<?xml version="1.0" encoding="UTF-8"?>
<svg width="100px" height="100px" viewBox="0 0 100 100" version="1.1" xmlns="http://www.w3.org/2000/svg" xmlns:xlink="http://www.w3.org/1999/xlink">
    <title>Shape</title>
    <g id="Page-1" stroke="none" stroke-width="1" fill="none" fill-rule="evenodd" fill-opacity="0.7">
        <g id="Artboard" fill="#FFFFFF" fill-rule="nonzero">
            <path d="M0.000347262404,49.8558231 C-0.0893017506,22.0890332 23.2403508,-0.721899207 51.3799317,0.0174827464 C77.3795445,0.716898108 100.109206,22.1689664 99.9996053,50.225514 C99.8970365,77.8166882 77.4287813,100.100996 49.814955,99.999258 C22.2011288,99.8968213 -0.101474248,77.4469972 0.000347262404,49.8558231 Z M73.7990177,49.8754797 C73.1284199,48.9487731 72.3423301,48.1106718 71.4596278,47.3813043 C61.1539453,41.2912737 50.8139105,35.2491422 40.4395234,29.2549099 C37.8527971,27.7460877 35.7916606,28.8032896 35.7916606,31.7490853 C35.6886038,43.8880901 35.6886038,56.0270949 35.7916606,68.1660997 C35.7916606,71.1324236 37.8527971,72.2717383 40.4292177,70.7629161 C50.8860503,64.7413129 61.3016601,58.6512823 71.6760471,52.4928244 C72.4386676,52.0104118 72.8921177,50.963474 73.8093234,49.8754797 L73.7990177,49.8754797 Z" id="Shape"></path>
        </g>
    </g>
</svg>