<?xml version="1.0" standalone="no"?>
<!DOCTYPE svg PUBLIC "-//W3C//DTD SVG 1.1//EN" "http://www.w3.org/Graphics/SVG/1.1/DTD/svg11.dtd" >
<svg xmlns="http://www.w3.org/2000/svg" xmlns:xlink="http://www.w3.org/1999/xlink" version="1.1">
<metadata>
Created by FontForge 20190801 at Wed May 10 19:32:01 2006
 By www-data
SteelTongs by TracerTong. wypers@gmail.com
</metadata>
<defs>
<font id="SteelTongs" horiz-adv-x="304" >
  <font-face 
    font-family="SteelTongs"
    font-weight="400"
    font-stretch="normal"
    units-per-em="1000"
    panose-1="2 1 6 8 2 2 2 4 5 4"
    ascent="800"
    descent="-200"
    x-height="799"
    cap-height="800"
    bbox="-5 -160 2747 887"
    underline-thickness="50"
    underline-position="-125"
    unicode-range="U+0020-2122"
  />
<missing-glyph horiz-adv-x="123" 
 />
    <glyph glyph-name=".notdef" horiz-adv-x="123" 
 />
    <glyph glyph-name=".null" horiz-adv-x="0" 
 />
    <glyph glyph-name="nonmarkingreturn" horiz-adv-x="333" 
 />
    <glyph glyph-name="space" unicode=" " horiz-adv-x="123" 
 />
    <glyph glyph-name="exclam" unicode="!" horiz-adv-x="151" 
d="M35 80h81v-80h-81v80zM116 404l-20 -244h-41l-20 241v399h81v-396z" />
    <glyph glyph-name="quotedbl" unicode="&#x22;" horiz-adv-x="170" 
d="M107 800h68v-80l-19 -120h-30l-19 120v80zM-5 800h68v-80l-19 -120h-30l-19 120v80z" />
    <glyph glyph-name="numbersign" unicode="#" horiz-adv-x="368" 
d="M131 461h82l23 83h-84zM49 598h64l47 178h55l-47 -178h82l47 178h53l-47 -178h68l-14 -54h-68l-22 -83h68l-15 -53h-67l-49 -178h-53l48 178h-84l-47 -178h-54l48 178h-64l14 53h64l23 83h-64z" />
    <glyph glyph-name="dollar" unicode="$" horiz-adv-x="308" 
d="M102 565q0 -31 31 -77v230q-31 -7 -31 -44v-109zM202 218q0 42 -32 95v-231q32 8 32 44v92zM133 1q-111 13 -111 175v99h80v-149q0 -37 31 -44v282q-5 5 -10.5 11t-10.5 12q-90 94 -90 186v51q0 161 111 175v44h37v-44q112 -12 112 -175v-73h-80v123q0 36 -32 44v-279
q5 -6 11 -12t11 -12q90 -96 90 -169v-70q0 -163 -112 -175v-51h-37v51z" />
    <glyph glyph-name="uni0025" unicode="%" horiz-adv-x="241" 
d="M49 3l51 387h40l51 -387h-39l-7 57h-50l-7 -57h-39zM100 102h39l-13 109l-6 68l-6 -67z" />
    <glyph glyph-name="ampersand" unicode="&#x26;" horiz-adv-x="348" 
d="M139 511q39 82 39 146v17q0 46 -30 46t-30 -46v-18q0 -60 21 -145zM127 339q-32 -44 -32 -132v-61q0 -66 49 -66q46 0 57 20zM245 215l22 61h67l-54 -188q12 -26 54 -15v-73h-41q-43 0 -56 33q-30 -33 -93 -33q-129 0 -129 176v32q-2 116 77 217q-54 145 -54 223
q0 152 110 152q101 0 101 -152q0 -95 -73 -222z" />
    <glyph glyph-name="quotesingle" unicode="'" horiz-adv-x="94" 
d="M13 800h68v-80l-19 -120h-30l-19 120v80z" />
    <glyph glyph-name="parenleft" unicode="(" horiz-adv-x="190" 
d="M70 80q0 -112 86 -112v-48q-134 0 -134 176v608q0 176 134 176v-48q-86 0 -86 -112v-640z" />
    <glyph glyph-name="parenright" unicode=")" horiz-adv-x="190" 
d="M107 720q0 112 -85 112v48q133 0 133 -176v-608q0 -176 -133 -176v48q85 0 85 112v640z" />
    <glyph glyph-name="asterisk" unicode="*" horiz-adv-x="315" 
d="M243 514l-58 -97l110 25v-89l-110 24l58 -96l-85 -28l-12 111l-74 -83l-52 72l103 44l-103 45l52 72l74 -85l12 113z" />
    <glyph glyph-name="plus" unicode="+" horiz-adv-x="268" 
d="M166 526v-86h85v-64h-85v-86h-64v86h-86v64h86v86h64z" />
    <glyph glyph-name="comma" unicode="," horiz-adv-x="113" 
d="M20 96h72v-80q0 -75 -60 -73v35q32 0 32 35h-44v83z" />
    <glyph glyph-name="hyphen" unicode="-" horiz-adv-x="166" 
d="M16 440h134v-64h-134v64z" />
    <glyph glyph-name="period" unicode="." horiz-adv-x="113" 
d="M20 96h72v-96h-72v96z" />
    <glyph glyph-name="slash" unicode="/" horiz-adv-x="210" 
d="M205 800l-154 -800h-49l154 800h49z" />
    <glyph glyph-name="zero" unicode="0" 
d="M192 674q0 46 -40 46t-40 -46v-548q0 -46 40 -46t40 46v548zM272 176q0 -176 -120 -176t-120 176v448q0 176 120 176t120 -176v-448z" />
    <glyph glyph-name="one" unicode="1" horiz-adv-x="171" 
d="M23 720q44 0 44 61v19h80v-800h-80v640h-44v80z" />
    <glyph glyph-name="two" unicode="2" 
d="M32 152q0 104 79 222q80 119 81 220v80q0 46 -40 46t-40 -46v-123h-80v73q0 176 120 176t120 -176v-44q0 -108 -79 -226t-80 -213v-61h159v-80h-240v152z" />
    <glyph glyph-name="three" unicode="3" 
d="M192 674q0 46 -40 46t-40 -46v-123h-80v73q0 176 120 176t120 -176v-80q0 -108 -49 -136q49 -28 49 -136v-96q0 -176 -120 -176t-120 176v96v3h80v-149q0 -46 40 -46t40 46v196q0 44 -39 46h-26v80h30q35 0 35 46v180z" />
    <glyph glyph-name="four" unicode="4" horiz-adv-x="302" 
d="M87 240h88v334l-22 -96zM11 244l164 556h75v-560h41v-80h-41v-160h-75v160h-164v84z" />
    <glyph glyph-name="five" unicode="5" horiz-adv-x="306" 
d="M32 800h240v-80h-160v-240q19 16 42 16q120 0 120 -176v-144q0 -176 -120 -176t-120 176v99h80v-149q0 -46 40 -46t40 46v244q0 53 -48 53q-40 0 -46 -36h-68v413z" />
    <glyph glyph-name="six" unicode="6" 
d="M192 367q0 47 -40 47q-39 0 -40 -43v-245q0 -46 40 -46t40 46v241zM272 551h-80v123q0 46 -40 46t-40 -46v-195q18 15 40 15q120 0 120 -176v-142q0 -176 -120 -176t-120 176v448q0 176 120 176t120 -176v-73z" />
    <glyph glyph-name="seven" unicode="7" horiz-adv-x="296" 
d="M27 800h241v-89q-66 -147 -91.5 -327t-26.5 -384h-79q0 200 30.5 382t96.5 338h-171v80z" />
    <glyph glyph-name="eight" unicode="8" 
d="M192 674q0 46 -40 46t-40 -46v-180q0 -44 41 -46q39 0 39 46v180zM192 322q0 44 -39 46q-41 0 -41 -46v-196q0 -46 40 -46t40 46v196zM272 544q0 -108 -49 -136q49 -28 49 -136v-96q0 -176 -120 -176t-120 176v96q0 108 49 136q-49 28 -49 136v80q0 176 120 176t120 -176
v-80z" />
    <glyph glyph-name="nine" unicode="9" 
d="M112 433q0 -47 40 -47q39 0 40 43v245q0 46 -40 46t-40 -46v-241zM32 249h80v-123q0 -46 40 -46t40 46v195q-18 -15 -40 -15q-120 0 -120 176v142q0 176 120 176t120 -176v-448q0 -176 -120 -176t-120 176v73z" />
    <glyph glyph-name="colon" unicode=":" horiz-adv-x="113" 
d="M18 370h72v-96h-72v96zM18 96h72v-96h-72v96z" />
    <glyph glyph-name="semicolon" unicode=";" horiz-adv-x="113" 
d="M18 370h72v-96h-72v96zM18 96h72v-80q0 -75 -60 -73v35q32 0 32 35h-44v83z" />
    <glyph glyph-name="less" unicode="&#x3c;" horiz-adv-x="271" 
d="M254 265l-238 103v79l238 102v-45l-225 -94l225 -100v-45z" />
    <glyph glyph-name="equal" unicode="=" horiz-adv-x="238" 
d="M16 488h198v-56h-198v56zM16 352h198v-56h-198v56z" />
    <glyph glyph-name="greater" unicode="&#x3e;" horiz-adv-x="271" 
d="M16 549l238 -103v-79l-238 -102v45l225 94l-225 100v45z" />
    <glyph glyph-name="question" unicode="?" horiz-adv-x="308" 
d="M92 80h81v-80h-81v80zM173 160h-81v126q0 104 49 162t51 158v68q0 46 -40 46t-40 -46v-123h-80v73q0 176 120 176t120 -176v-31q0 -108 -49 -166t-50 -152v-115z" />
    <glyph glyph-name="at" unicode="@" horiz-adv-x="428" 
d="M235 375q-17 -9 -30.5 -19.5t-13.5 -37.5v-43q0 -26 20 -26q24 0 24 26v100zM146 323q0 45 34 69q17 13 31 22.5t24 16.5v84q0 25 -20 25t-20 -25v-72h-44v53q0 91 64 91q65 0 65 -91v-222q0 -24 36 -24t36 24v303q0 94 -140 94q-135 0 -135 -94v-357q0 -88 100 -94h200
v-43h-184q-164 0 -164 112v363q0 162 184 162q185 0 185 -162v-268q0 -87 -81 -87q-38 0 -59 24q-14 -24 -49 -24q-63 0 -63 91v29z" />
    <glyph glyph-name="A" unicode="A" horiz-adv-x="293" 
d="M106 206h80l-27 225l-13 142l-12 -141zM0 0l106 800h81l106 -800h-81l-15 120h-102l-14 -120h-81z" />
    <glyph glyph-name="B" unicode="B" 
d="M192 674q0 46 -40 46h-40v-272h41q39 0 39 46v180zM192 322q0 44 -39 46h-41v-288h40q40 0 40 46v196zM272 544q0 -108 -57 -136q57 -29 57 -136v-96q0 -176 -120 -176h-120v800h120q120 0 120 -176v-80z" />
    <glyph glyph-name="C" unicode="C" horiz-adv-x="296" 
d="M190 275h76v-99q0 -176 -116 -176q-120 0 -120 176v448q0 176 120 176q116 0 116 -176v-73h-76v123q0 46 -40 46t-40 -46v-548q0 -46 40 -46t40 46v149z" />
    <glyph glyph-name="D" unicode="D" 
d="M192 674q0 46 -40 46h-40v-640h40q40 0 40 46v548zM272 176q0 -176 -120 -176h-120v800h120q120 0 120 -176v-448z" />
    <glyph glyph-name="E" unicode="E" horiz-adv-x="255" 
d="M106 80h123v-80h-203v800h203v-80h-123v-272h70v-80h-70v-288z" />
    <glyph glyph-name="F" unicode="F" horiz-adv-x="250" 
d="M103 0h-80v800h203v-80h-123v-272h70v-80h-70v-368z" />
    <glyph glyph-name="G" unicode="G" horiz-adv-x="301" 
d="M149 368h122v-368l-39 54q-23 -54 -84 -54q-120 0 -120 176v448q0 176 121 176q123 0 123 -176v-73h-77v123q0 46 -46 46q-41 0 -41 -46v-548q0 -46 40 -46q46 0 46 46v163h-45v79z" />
    <glyph glyph-name="H" unicode="H" 
d="M112 448h80v352h80v-800h-80v368h-80v-368h-80v800h80v-352z" />
    <glyph glyph-name="I" unicode="I" horiz-adv-x="144" 
d="M32 0v800h80v-800h-80z" />
    <glyph glyph-name="J" unicode="J" horiz-adv-x="189" 
d="M85 800h80v-624q0 -176 -120 -176h-22v80h22q40 0 40 46v674z" />
    <glyph glyph-name="K" unicode="K" horiz-adv-x="324" 
d="M17 0v800h80v-365l21 71l97 294h84l-134 -390l142 -410h-85l-104 315l-21 71v-386h-80z" />
    <glyph glyph-name="L" unicode="L" horiz-adv-x="246" 
d="M101 80h123v-80h-203v800h80v-720z" />
    <glyph glyph-name="M" unicode="M" horiz-adv-x="432" 
d="M32 0v800h117l53 -431l13 -142l12 141l53 432h120v-800h-72v626l-10 -96l-70 -530h-66l-70 537l-8 88v-625h-72z" />
    <glyph glyph-name="N" unicode="N" horiz-adv-x="330" 
d="M118 470l-14 107v-577h-72v800h96l82 -456l16 -121v577h72v-800h-96z" />
    <glyph glyph-name="O" unicode="O" 
d="M192 674q0 46 -40 46t-40 -46v-548q0 -46 40 -46t40 46v548zM272 176q0 -176 -120 -176t-120 176v448q0 176 120 176t120 -176v-448z" />
    <glyph glyph-name="P" unicode="P" horiz-adv-x="308" 
d="M150 480q52 0 52 54v132q0 54 -53 54h-43v-240h44zM106 0h-80v800h123q133 0 133 -184v-32q0 -184 -132 -184h-44v-400z" />
    <glyph glyph-name="Q" unicode="Q" 
d="M192 674q0 46 -40 46t-40 -46v-548q0 -46 40 -46t40 46v548zM272 176q0 -158 -96 -174q-3 -46 30 -49q34 -3 66 18v-57q-66 -29 -107 -6q-39 20 -40 94q-93 19 -93 174v448q0 176 120 176t120 -176v-448z" />
    <glyph glyph-name="R" unicode="R" horiz-adv-x="305" 
d="M148 448q52 0 52 54v164q0 54 -53 54h-43v-272h44zM104 0h-80v800h123q133 0 133 -168v-88q0 -111 -62 -158l60 -386h-81l-51 368h-42v-368z" />
    <glyph glyph-name="S" unicode="S" horiz-adv-x="292" 
d="M180 674q0 46 -34 46t-34 -46v-109q0 -52 74 -150t74 -169v-70q0 -176 -114 -176t-114 176v99h80v-149q0 -46 34 -46t34 46v92q0 74 -74 169t-74 186v51q0 176 114 176t114 -176v-73h-80v123z" />
    <glyph glyph-name="T" unicode="T" horiz-adv-x="246" 
d="M3 800h240v-80h-80v-720h-80v720h-80v80z" />
    <glyph glyph-name="U" unicode="U" 
d="M192 800h80v-624q0 -176 -120 -176t-120 176v624h80v-674q0 -46 40 -46t40 46v674z" />
    <glyph glyph-name="V" unicode="V" horiz-adv-x="293" 
d="M293 800l-106 -800h-81l-106 800h81l53 -431l12 -142l12 141l54 432h81z" />
    <glyph glyph-name="W" unicode="W" horiz-adv-x="489" 
d="M489 800l-105 -800h-74l-66 510l-64 -510h-74l-106 800h81l53 -431l13 -142l12 141l53 432h65l53 -431l13 -142l12 141l53 432h81z" />
    <glyph glyph-name="X" unicode="X" horiz-adv-x="305" 
d="M285 800l-92 -369l111 -431h-83l-50 227l-19 81l-20 -83l-49 -225h-83l110 431l-91 369h82l36 -180l15 -67l14 67l36 180h83z" />
    <glyph glyph-name="Y" unicode="Y" horiz-adv-x="290" 
d="M105 0v342l-105 458h82l48 -247l15 -108l15 108l47 247h83l-105 -458v-342h-80z" />
    <glyph glyph-name="Z" unicode="Z" horiz-adv-x="269" 
d="M23 800h231v-98l-159 -622h159v-80h-239v90l166 630h-158v80z" />
    <glyph glyph-name="bracketleft" unicode="[" horiz-adv-x="190" 
d="M156 -32v-48l-134 -1v961h134v-48h-86v-864h86z" />
    <glyph glyph-name="backslash" unicode="\" horiz-adv-x="216" 
d="M54 800l155 -800h-50l-153 800h48z" />
    <glyph glyph-name="bracketright" unicode="]" horiz-adv-x="190" 
d="M22 832v48h133v-960h-133v48l85 -1v865h-85z" />
    <glyph glyph-name="asciicircum" unicode="^" horiz-adv-x="306" 
d="M11 562l103 238h79l102 -238h-45l-94 225l-100 -225h-45z" />
    <glyph glyph-name="underscore" unicode="_" horiz-adv-x="319" 
d="M0 -80h320v-80h-320v80z" />
    <glyph glyph-name="grave" unicode="`" horiz-adv-x="158" 
d="M98 887l48 -51h-41l-94 51h87z" />
    <glyph glyph-name="a" unicode="a" horiz-adv-x="1067" 
d="M285 799l-51 -386h-36l-31 246l-30 -246h-36l-51 386h40l25 -208l6 -69l6 69l26 208h29l26 -208l6 -69l6 69l26 208h39zM339 413h-38v386h59q64 0 64 -81v-44q0 -51 -30 -75l28 -186h-38l-26 178h-19v-178zM360 629q24 0 24 26v79q0 25 -24 25h-21v-130h21zM447 413v386
h38v-386h-38zM503 799h115v-40h-38v-346h-40v346h-37v40zM620 799h116v-40h-39v-346h-38v346h-39v40zM792 453h57v-40h-97v386h97v-40h-57v-130h33v-38h-33v-138zM916 639l-6 51v-277h-35v386h45l40 -220l8 -59v279h35v-386h-47zM863 261q0 -51 -28 -65q28 -14 28 -65v-46
q0 -85 -58 -85h-57v384h57q58 0 58 -83v-40zM825 324q0 22 -20 22h-19v-130h19q20 0 20 21v87zM825 154q0 22 -20 22h-19v-136h19q11 0 15.5 4.5t4.5 16.5v93zM930 0v164l-51 220h39l24 -119l6 -51l8 51l21 119h40l-49 -220v-164h-38z" />
    <glyph glyph-name="b" unicode="b" horiz-adv-x="998" 
d="M127 546h38v-48q0 -85 -58 -85q-57 0 -57 85v216q0 85 57 85q58 0 58 -85v-36h-38v60q0 22 -20 22q-17 0 -17 -22v-263q0 -22 17 -22q20 0 20 22v71zM177 413l51 386h40l49 -386h-38l-7 58h-50l-6 -58h-39zM228 512h40l-14 109l-6 67l-6 -67zM404 738q0 22 -16 22
t-16 -22v-54q0 -23 36 -71q36 -47 36 -81v-34q0 -85 -56 -85q-55 0 -55 85v48h39v-71q0 -22 16 -22t16 22v43q0 37 -36 81q-35 49 -35 89v26q0 85 55 85q56 0 56 -85v-36h-40v60zM459 799h115v-39h-37v-347h-38v347h-40v39zM592 413v386h38v-386h-38zM703 639l-8 51v-277
h-34v386h46l39 -219l8 -60v279h34v-386h-46zM877 591h59v-178l-18 26q-13 -26 -41 -26q-58 0 -58 85v216q0 85 58 85q59 0 59 -85v-36h-35v60q0 22 -24 22q-20 0 -20 -22v-263q0 -22 20 -22q22 0 22 22v77h-22v39zM794 261q0 -49 -28 -65q28 -16 28 -65v-46q0 -85 -58 -85
h-57v384h57q58 0 58 -83v-40zM756 324q0 22 -20 22h-19v-130h19q20 0 20 21v87zM756 154q0 22 -20 22h-19v-136h19q9 0 14.5 4.5t5.5 16.5v93zM859 0v164l-49 220h39l22 -119l8 -51l8 51l21 119h40l-49 -220v-164h-40z" />
    <glyph glyph-name="c" unicode="c" horiz-adv-x="790" 
d="M50 413v386h57l24 -208l8 -69l4 69l26 208h57v-386h-34v301l-4 -46l-33 -255h-32l-33 259l-4 42v-301h-36zM335 799h37v-301q0 -85 -57 -85t-57 85v301h37v-325q0 -21 20 -21t20 21v325zM475 737q0 22 -18 22q-16 0 -16 -22v-53q0 -23 36 -71t36 -81v-34q0 -85 -56 -85
q-53 0 -53 85v48h37v-72q0 -21 16 -21q18 0 18 21v44q0 36 -36 81q-35 49 -35 89v26q0 85 53 85q56 0 56 -85v-36h-38v59zM544 413v386h38v-386h-38zM689 546h37v-48q0 -85 -55 -85q-58 0 -58 85v216q0 85 58 85q55 0 55 -85v-36h-37v59q0 22 -18 22q-20 0 -20 -22v-263
q0 -21 20 -21q18 0 18 21v72zM586 261q0 -49 -28 -65q28 -16 28 -66v-45q0 -85 -60 -85h-57v384h57q60 0 60 -83v-40zM546 324q0 22 -20 22h-17v-130h19q18 0 18 21v87zM546 154q0 22 -18 22h-19v-136h17q11 0 15.5 4.5t4.5 16.5v93zM651 0v164l-51 220h39l24 -119l8 -51
l6 51l23 119h40l-51 -220v-164h-38z" />
    <glyph glyph-name="d" unicode="d" horiz-adv-x="1128" 
d="M153 547h38v-48q0 -85 -56 -85q-57 0 -57 85v216q0 85 57 85q56 0 56 -85v-36h-38v60q0 22 -18 22q-20 0 -20 -22v-264q0 -21 20 -21q18 0 18 21v72zM335 499q0 -85 -57 -85q-58 0 -58 85v216q0 85 58 85q57 0 57 -85v-216zM296 739q0 22 -18 22q-20 0 -20 -22v-264
q0 -21 20 -21q18 0 18 21v264zM436 739q0 22 -16 22q-15 0 -15 -22v-54q0 -24 35 -71q36 -48 36 -81v-34q0 -85 -56 -85q-55 0 -55 85v48h40v-72q0 -21 15 -21q16 0 16 21v44q0 35 -35 81q-36 48 -36 89v26q0 85 55 85q56 0 56 -85v-36h-40v60zM492 800h117v-39h-40v-347
h-38v347h-39v39zM702 800h37v-301q0 -85 -57 -85q-58 0 -58 85v301h38v-325q0 -21 20 -21t20 21v325zM771 414v386h55l26 -208l6 -69l6 69l26 208h57v-386h-33v301l-6 -46l-34 -255h-32l-33 259l-4 42v-301h-34zM1017 454h59v-40h-97v386h97v-39h-59v-131h33v-38h-33v-138z
M165 85q0 -85 -58 -85h-57v384h57q58 0 58 -83v-216zM127 325q0 22 -20 22h-19v-307h19q20 0 20 21v264zM234 40h60v-40h-97v384h97v-37h-60v-131h34v-40h-34v-136zM389 325q0 22 -16 22t-16 -22v-54q0 -23 36 -71q35 -49 35 -81v-34q0 -85 -55 -85q-54 0 -54 85v48h38v-72
q0 -21 16 -21t16 21v44q0 36 -36 81q-34 49 -34 89v26q0 83 54 83q55 0 55 -83v-36h-39v60zM458 0v384h40v-384h-40zM587 176h57v-176l-18 26q-12 -26 -39 -26q-60 0 -60 85v216q0 83 60 83q59 0 59 -83v-36h-37v60q0 22 -22 22q-20 0 -20 -22v-264q0 -21 20 -21q22 0 22 21
v78h-22v37zM714 226l-6 51v-277h-34v384h45l40 -218l8 -59v277h34v-384h-46zM870 40h59v-40h-97v384h97v-37h-59v-131h34v-40h-34v-136zM993 0h-38v384h58q65 0 65 -79v-44q0 -51 -30 -75l28 -186h-38l-25 176h-20v-176zM1015 216q23 0 23 26v79q0 26 -25 26h-20v-131h22z
" />
    <glyph glyph-name="e" unicode="e" horiz-adv-x="808" 
d="M90 453h57v-40h-97v386h97v-40h-57v-130h33v-38h-33v-138zM287 498q0 -43 -13.5 -64t-43.5 -21h-57v386h57q30 0 43.5 -21.5t13.5 -63.5v-216zM250 738q0 21 -20 21h-20v-306h20q20 0 20 22v263zM319 413v386h38v-386h-38zM374 799h115v-40h-38v-346h-39v346h-38v40z
M544 453h60v-40h-97v386h97v-40h-60v-130h34v-38h-34v-138zM744 498q0 -85 -57 -85h-60v386h60q57 0 57 -85v-216zM705 738q0 21 -18 21h-20v-306h20q18 0 18 22v263zM604 261q0 -51 -28 -65q28 -14 28 -65v-46q0 -85 -58 -85h-57v384h57q58 0 58 -83v-40zM566 324
q0 22 -20 22h-19v-130h19q20 0 20 21v87zM566 154q0 22 -20 22h-19v-136h19q11 0 15.5 4.5t4.5 16.5v93zM671 0v164l-51 220h39l24 -119l6 -51l8 51l21 119h40l-49 -220v-164h-38z" />
    <glyph glyph-name="f" unicode="f" horiz-adv-x="1446" 
d="M88 414h-38v387h60q63 0 63 -89v-16q0 -90 -63 -90h-22v-192zM110 646q25 0 25 26v63q0 26 -25 26h-22v-115h22zM236 414h-38v387h60q63 0 63 -81v-44q0 -53 -30 -75l30 -187h-40l-25 179h-20v-179zM258 630q25 0 25 26v79q0 26 -25 26h-22v-131h22zM460 499
q0 -85 -58 -85q-57 0 -57 85v217q0 85 57 85q58 0 58 -85v-217zM422 739q0 22 -20 22q-19 0 -19 -22v-264q0 -21 19 -21q20 0 20 21v264zM607 499q0 -85 -58 -85h-57v387h57q58 0 58 -85v-217zM567 739q0 22 -18 22h-20v-307h20q18 0 18 21v264zM714 801h40v-302
q0 -85 -58 -85q-59 0 -59 85v302h39v-326q0 -21 20 -21q18 0 18 21v326zM861 547h38v-48q0 -85 -58 -85q-57 0 -57 85v217q0 85 57 85q58 0 58 -85v-36h-38v59q0 22 -20 22q-18 0 -18 -22v-264q0 -21 18 -21q20 0 20 21v72zM913 801h114v-40h-37v-347h-38v347h-39v40z
M1045 414v387h37v-387h-37zM1229 499q0 -85 -57 -85q-58 0 -58 85v217q0 85 58 85q57 0 57 -85v-217zM1192 739q0 22 -20 22t-20 -22v-264q0 -21 20 -21t20 21v264zM1303 640l-8 52v-278h-34v387h46l39 -220l8 -60v280h34v-387h-46zM482 85q0 -85 -58 -85h-57v385h57
q58 0 58 -83v-217zM444 326q0 21 -20 21h-20v-307h20q20 0 20 22v264zM551 40h60v-40h-97v385h97v-38h-60v-131h34v-39h-34v-137zM708 326q0 21 -18 21q-16 0 -16 -21v-54q0 -24 36 -72q36 -47 36 -81v-34q0 -85 -56 -85q-53 0 -53 85v48h37v-71q0 -22 16 -22q18 0 18 22v43
q0 37 -36 82q-35 47 -35 89v26q0 83 53 83q56 0 56 -83v-36h-38v60zM778 0v385h37v-385h-37zM905 177h59v-177l-20 26q-6 -14 -15 -20t-24 -6q-58 0 -58 85v217q0 83 58 83q59 0 59 -83v-36h-37v60q0 21 -22 21q-20 0 -20 -21v-264q0 -22 20 -22q22 0 22 22v77h-22v38z
M1033 226l-8 52v-278h-33v385h45l39 -218l8 -60v278h34v-385h-46zM1188 40h59v-40h-97v385h97v-38h-59v-131h33v-39h-33v-137zM1311 0h-38v385h59q64 0 64 -79v-44q0 -53 -30 -75l30 -187h-40l-26 177h-19v-177zM1332 216q26 0 26 26v80q0 25 -26 25h-21v-131h21z" />
    <glyph glyph-name="g" unicode="g" horiz-adv-x="1654" 
d="M372 498q0 -85 -57 -85h-58v386h58q57 0 57 -85v-216zM334 738q0 12 -5.5 16.5t-13.5 4.5h-20v-306h20q19 0 19 22v263zM404 413v386h37v-386h-37zM510 413h-37v386h57q65 0 65 -81v-44q0 -51 -29 -75l27 -186h-37l-26 178h-20v-178zM532 629q24 0 24 26v79q0 25 -26 25
h-20v-130h22zM657 453h59v-40h-97v386h97v-40h-59v-130h33v-38h-33v-138zM817 546h37v-48q0 -85 -55 -85q-57 0 -57 85v216q0 85 57 85q55 0 55 -85v-36h-37v60q0 12 -4.5 16.5t-13.5 4.5q-11 0 -15.5 -4.5t-4.5 -16.5v-263q0 -22 20 -22q18 0 18 22v71zM868 799h117v-40
h-40v-346h-37v346h-40v40zM1116 498q0 -85 -58 -85q-57 0 -57 85v216q0 85 57 85q58 0 58 -85v-216zM1078 738q0 12 -4.5 16.5t-15.5 4.5q-9 0 -13.5 -4.5t-4.5 -16.5v-263q0 -22 18 -22q20 0 20 22v263zM1185 413h-38v386h59q64 0 64 -81v-44q0 -51 -30 -75l30 -186h-40
l-24 178h-21v-178zM1206 629q26 0 26 26v79q0 25 -26 25h-21v-130h21zM1468 498q0 -85 -58 -85q-57 0 -57 85v216q0 85 57 85q58 0 58 -85v-216zM1430 738q0 12 -5.5 16.5t-14.5 4.5t-14.5 -4.5t-5.5 -16.5v-263q0 -22 20 -22t20 22v263zM1537 413h-38v386h97v-40h-59v-130
h33v-38h-33v-178zM89 0h-39v386h59q63 0 63 -89v-16q0 -89 -63 -89h-20v-192zM109 231q26 0 26 26v63q0 26 -26 26h-20v-115h20zM235 216h40v170h38v-386h-38v178h-40v-178h-37v386h37v-170zM459 85q0 -85 -57 -85q-58 0 -58 85v216q0 85 58 85q57 0 57 -85v-216zM421 324
q0 22 -19 22q-20 0 -20 -22v-263q0 -12 4.5 -16.5t15.5 -4.5q8 0 13.5 4.5t5.5 16.5v263zM477 386h114v-40h-39v-346h-38v346h-37v40zM722 85q0 -85 -57 -85q-58 0 -58 85v216q0 85 58 85q57 0 57 -85v-216zM684 324q0 22 -19 22q-18 0 -18 -22v-263q0 -12 4.5 -16.5
t13.5 -4.5q10 0 14.5 4.5t4.5 16.5v263zM811 178h59v-178l-18 26q-11 -26 -41 -26q-57 0 -57 85v216q0 85 57 85q59 0 59 -85v-36h-35v59q0 22 -24 22q-18 0 -18 -22v-263q0 -12 4.5 -16.5t13.5 -4.5q12 0 17 4.5t5 16.5v77h-22v40zM938 0h-40v386h59q64 0 64 -81v-44
q0 -27 -7.5 -45t-22.5 -30l30 -186h-40l-24 178h-19v-178zM957 216q26 0 26 25v79q0 26 -26 26h-19v-130h19zM1028 0l52 386h39l52 -386h-40l-8 57h-47l-8 -57h-40zM1080 99h39l-13 109l-6 67l-6 -67zM1224 0h-39v386h59q65 0 65 -89v-16q0 -89 -63 -89h-22v-192zM1246 231
q24 0 24 26v63q0 26 -26 26h-20v-115h22zM1373 216h37v170h38v-386h-38v178h-37v-178h-40v386h40v-170zM1515 0v164l-51 222h39l24 -119l6 -53l8 53l21 119h42l-51 -222v-164h-38z" />
    <glyph glyph-name="h" unicode="h" horiz-adv-x="1223" 
d="M766 454h59v-40h-99v386h40v-346zM845 414v386h40v-386h-40zM956 642l-6 51v-279h-36v386h46l39 -220l8 -57v277h36v-386h-47zM1112 454h60v-40h-99v386h99v-39h-60v-131h34v-38h-34v-138zM90 0h-40v386h59q64 0 64 -89v-16q0 -89 -64 -89h-19v-192zM109 232q26 0 26 25
v64q0 26 -26 26h-19v-115h19zM236 0h-37v386h59q33 0 48 -20.5t15 -60.5v-44q0 -51 -29 -75l29 -186h-39l-24 178h-22v-178zM258 216q26 0 26 26v79q0 26 -26 26h-22v-131h22zM460 85q0 -85 -57 -85q-58 0 -58 85v216q0 85 58 85q57 0 57 -85v-216zM422 325q0 22 -19 22
q-18 0 -18 -22v-264q0 -21 18 -21q19 0 19 21v264zM607 85q0 -85 -58 -85h-57v386h57q58 0 58 -85v-216zM569 325q0 22 -20 22h-20v-307h20q20 0 20 21v264zM715 386h38v-301q0 -85 -57 -85q-58 0 -58 85v301h38v-325q0 -21 20 -21q19 0 19 21v325zM860 133h38v-48
q0 -85 -56 -85q-57 0 -57 85v216q0 85 57 85q56 0 56 -85v-36h-38v60q0 22 -18 22q-20 0 -20 -22v-264q0 -21 20 -21q18 0 18 21v72zM965 40h59v-40h-97v386h97v-39h-59v-131h34v-38h-34v-138zM1088 0h-40v386h60q65 0 65 -81v-44q0 -51 -30 -75l28 -186h-38l-25 178h-20
v-178zM1110 216q23 0 23 26v79q0 26 -25 26h-20v-131h22z" />
    <glyph glyph-name="i" unicode="i" horiz-adv-x="1601" 
d="M127 547h38v-47q0 -86 -55 -86q-60 0 -60 86v216q0 85 60 85q55 0 55 -85v-36h-38v60q0 21 -17 21q-20 0 -20 -21v-264q0 -22 20 -22q17 0 17 22v71zM310 500q0 -86 -60 -86q-57 0 -57 86v216q0 85 57 85q60 0 60 -85v-216zM270 740q0 21 -20 21q-17 0 -17 -21v-264
q0 -22 17 -22q20 0 20 22v264zM332 627h65v-30h-65v30zM459 414h-40v387h59q66 0 66 -89v-16q0 -45 -16 -66t-48 -21h-21v-195zM480 646q24 0 24 26v64q0 25 -26 25h-19v-115h21zM607 414h-39v387h59q64 0 64 -81v-44q0 -51 -30 -75l30 -187h-40l-24 179h-20v-179zM627 630
q26 0 26 26v80q0 25 -26 25h-20v-131h20zM829 500q0 -86 -57 -86q-58 0 -58 86v216q0 85 58 85q57 0 57 -85v-216zM792 740q0 21 -20 21q-18 0 -18 -21v-264q0 -22 18 -22q20 0 20 22v264zM976 500q0 -86 -57 -86h-58v387h58q57 0 57 -85v-216zM938 740q0 21 -19 21h-18
v-307h18q19 0 19 22v264zM1085 801h38v-301q0 -86 -58 -86q-57 0 -57 86v301h37v-325q0 -22 20 -22t20 22v325zM1232 547h35v-47q0 -86 -55 -86q-58 0 -58 86v216q0 85 58 85q55 0 55 -85v-36h-35v60q0 21 -20 21t-20 -21v-264q0 -22 20 -22t20 22v71zM1335 454h59v-40h-97
v387h97v-40h-59v-131h34v-37h-34v-139zM1535 500q0 -86 -57 -86h-58v387h58q57 0 57 -85v-216zM1495 740q0 21 -17 21h-20v-307h20q17 0 17 22v264zM1394 262q0 -51 -25 -66q25 -12 25 -65v-46q0 -43 -13.5 -64t-43.5 -21h-58v387h58q30 0 43.5 -22t13.5 -64v-39zM1357 325
q0 22 -20 22h-18v-131h18q20 0 20 22v87zM1357 155q0 12 -4.5 16.5t-15.5 6.5h-18v-138h18q20 0 20 21v94zM1462 0v165l-52 222h40l24 -119l6 -54l8 54l21 119h42l-52 -222v-165h-37z" />
    <glyph glyph-name="j" unicode="j" horiz-adv-x="1232" 
d="M90 414h-40v387h59q66 0 66 -89v-16q0 -45 -16 -66t-48 -21h-21v-195zM111 646q24 0 24 26v64q0 25 -26 25h-19v-115h21zM238 414h-39v387h59q64 0 64 -81v-44q0 -51 -30 -75l30 -187h-40l-24 179h-20v-179zM258 630q26 0 26 26v80q0 25 -26 25h-20v-131h20zM460 500
q0 -86 -57 -86q-58 0 -58 86v216q0 85 58 85q57 0 57 -85v-216zM423 740q0 21 -20 21q-18 0 -18 -21v-264q0 -22 18 -22q20 0 20 22v264zM607 500q0 -86 -57 -86h-58v387h58q57 0 57 -85v-216zM569 740q0 21 -19 21h-18v-307h18q19 0 19 22v264zM716 801h38v-301
q0 -86 -58 -86q-57 0 -57 86v301h37v-325q0 -22 20 -22t20 22v325zM863 547h35v-47q0 -86 -55 -86q-58 0 -58 86v216q0 85 58 85q55 0 55 -85v-36h-35v60q0 21 -20 21t-20 -21v-264q0 -22 20 -22t20 22v71zM966 454h59v-40h-97v387h97v-40h-59v-131h34v-37h-34v-139z
M1166 500q0 -86 -57 -86h-58v387h58q57 0 57 -85v-216zM1126 740q0 21 -17 21h-20v-307h20q17 0 17 22v264zM1025 262q0 -51 -25 -66q25 -12 25 -65v-46q0 -43 -13.5 -64t-43.5 -21h-58v387h58q30 0 43.5 -22t13.5 -64v-39zM988 325q0 22 -20 22h-18v-131h18q20 0 20 22v87z
M988 155q0 12 -4.5 16.5t-15.5 6.5h-18v-138h18q20 0 20 21v94zM1093 0v165l-52 222h40l24 -119l6 -54l8 54l21 119h42l-52 -222v-165h-37z" />
    <glyph glyph-name="k" unicode="k" horiz-adv-x="1099" 
d="M166 500q0 -84 -59 -84h-57v385h57q59 0 59 -85v-216zM127 740q0 22 -20 22h-19v-308h19q20 0 20 22v264zM197 416v385h38v-385h-38zM304 416h-39v385h60q64 0 64 -81v-43q0 -53 -30 -75l29 -186h-39l-24 177h-21v-177zM326 632q25 0 25 26v79q0 25 -26 25h-21v-130h22z
M451 454h59v-38h-98v385h98v-39h-59v-130h34v-39h-34v-139zM612 548h37v-48q0 -84 -56 -84q-58 0 -58 84v216q0 85 58 85q56 0 56 -85v-34h-37v58q0 22 -19 22t-19 -22v-264q0 -22 19 -22t19 22v72zM663 801h116v-39h-38v-346h-39v346h-39v39zM834 454h59v-38h-97v385h97
v-39h-59v-130h34v-39h-34v-139zM1034 500q0 -84 -58 -84h-58v385h58q58 0 58 -85v-216zM995 740q0 22 -19 22h-19v-308h19q19 0 19 22v264zM894 263q0 -53 -27 -65q27 -15 27 -65v-47q0 -84 -57 -84h-58v385h58q57 0 57 -85v-39zM856 326q0 22 -19 22h-20v-131h20
q19 0 19 22v87zM856 157q0 21 -19 22h-20v-139h20q19 0 19 22v95zM961 2v164l-51 221h39l24 -120l6 -51l7 51l23 120h40l-51 -221v-164h-37z" />
    <glyph glyph-name="l" unicode="l" horiz-adv-x="1467" 
d="M127 548h37v-48q0 -84 -56 -84q-58 0 -58 84v216q0 85 58 85q56 0 56 -85v-34h-37v58q0 22 -19 22q-20 0 -20 -22v-264q0 -22 20 -22q19 0 19 22v72zM307 500q0 -84 -58 -84q-57 0 -57 84v216q0 85 57 85q58 0 58 -85v-216zM269 740q0 22 -20 22q-18 0 -18 -22v-264
q0 -22 18 -22q20 0 20 22v264zM330 627h65v-30h-65v30zM534 500q0 -84 -59 -84h-57v385h57q59 0 59 -85v-216zM495 740q0 22 -20 22h-19v-308h19q20 0 20 22v264zM565 416v385h38v-385h-38zM672 416h-39v385h60q64 0 64 -81v-43q0 -53 -30 -75l29 -186h-39l-24 177h-21v-177
zM694 632q25 0 25 26v79q0 25 -26 25h-21v-130h22zM819 454h59v-38h-98v385h98v-39h-59v-130h34v-39h-34v-139zM980 548h37v-48q0 -84 -56 -84q-58 0 -58 84v216q0 85 58 85q56 0 56 -85v-34h-37v58q0 22 -19 22t-19 -22v-264q0 -22 19 -22t19 22v72zM1031 801h116v-39h-38
v-346h-39v346h-39v39zM1202 454h59v-38h-97v385h97v-39h-59v-130h34v-39h-34v-139zM1402 500q0 -84 -58 -84h-58v385h58q58 0 58 -85v-216zM1363 740q0 22 -19 22h-19v-308h19q19 0 19 22v264zM1262 263q0 -53 -27 -65q27 -15 27 -65v-47q0 -84 -57 -84h-58v385h58
q57 0 57 -85v-39zM1224 326q0 22 -19 22h-20v-131h20q19 0 19 22v87zM1224 157q0 21 -19 22h-20v-139h20q19 0 19 22v95zM1329 2v164l-51 221h39l24 -120l6 -51l7 51l23 120h40l-51 -221v-164h-37z" />
    <glyph glyph-name="m" unicode="m" horiz-adv-x="777" 
d="M122 739q0 21 -16 21t-16 -21v-54q0 -25 34 -72q37 -48 37 -80v-34q0 -85 -55 -85q-56 0 -56 85v48h40v-73q0 -21 16 -21t16 21v44q0 38 -35 83q-37 45 -37 90v24q0 84 56 84q55 0 55 -84v-37h-39v61zM178 799h115v-39h-39v-346h-37v346h-39v39zM426 499q0 -85 -59 -85
q-57 0 -57 85v216q0 84 57 84q59 0 59 -84v-216zM387 739q0 21 -20 21q-19 0 -19 -21v-265q0 -22 19 -22q20 0 20 22v265zM494 414h-38v385h60q64 0 64 -81v-42q0 -52 -30 -77l29 -185h-39l-25 177h-21v-177zM516 629q25 0 25 26v79q0 26 -25 26h-22v-131h22zM637 414v165
l-49 220h40l21 -119l8 -51l7 51l23 119h40l-51 -220v-165h-39zM573 261q0 -52 -29 -66q29 -14 29 -65v-47q0 -83 -59 -83h-58v385h58q59 0 59 -85v-39zM533 324q0 22 -19 22h-20v-131h21q18 0 18 22v87zM533 154q0 23 -18 23h-21v-139h20q19 0 19 21v95zM637 0v164l-49 221
h40l21 -120l8 -52l7 52l23 120h40l-51 -221v-164h-39z" />
    <glyph glyph-name="n" unicode="n" horiz-adv-x="1595" 
d="M165 678q0 -53 -27 -66q27 -14 27 -65v-47q0 -85 -57 -85h-58v387h58q57 0 57 -85v-39zM126 741q0 22 -18 22h-19v-132h19q18 0 18 23v87zM126 571q0 22 -18 22h-19v-139h19q18 0 18 22v95zM181 415l51 387h39l51 -387h-39l-8 58h-49l-7 -58h-38zM232 515h38l-13 109
l-6 68l-6 -68zM409 741q0 22 -16 22q-17 0 -17 -22v-53q0 -26 36 -72q35 -47 35 -82v-34q0 -85 -54 -85q-56 0 -56 85v48h39v-72q0 -22 17 -22q16 0 16 22v45q0 36 -36 81q-17 23 -26.5 45t-9.5 45v25q0 85 56 85q54 0 54 -85v-36h-38v60zM517 454h59v-39h-97v387h97v-39
h-59v-132h34v-38h-34v-139zM717 500q0 -85 -58 -85h-58v387h58q58 0 58 -85v-217zM679 741q0 22 -20 22h-19v-309h19q20 0 20 22v265zM923 500q0 -85 -58 -85t-58 85v217q0 85 58 85t58 -85v-217zM884 741q0 22 -19 22t-19 -22v-265q0 -22 19 -22t19 22v265zM995 643l-6 51
v-279h-35v387h46l39 -221l8 -58v279h35v-387h-46zM1158 802h116v-39h-38v-348h-39v348h-39v39zM1330 631h38v171h38v-387h-38v178h-38v-178h-39v387h39v-171zM1476 454h60v-39h-99v387h99v-39h-60v-132h34v-38h-34v-139zM567 227l-6 51v-278h-35v386h47l38 -220l8 -58v278
h35v-386h-46zM801 85q0 -85 -58 -85t-58 85v216q0 85 58 85t58 -85v-216zM762 326q0 22 -19 22t-19 -22v-265q0 -22 19 -22t19 22v265zM958 386l-51 -386h-40l-51 386h39l26 -208l6 -69l6 68l26 209h39zM1012 39h59v-39h-98v386h98v-38h-59v-132h33v-39h-33v-138zM1135 39
h59v-39h-98v386h39v-347zM1390 263q0 -52 -28 -66q28 -14 28 -65v-47q0 -85 -58 -85h-58v386h58q58 0 58 -85v-38zM1351 326q0 22 -19 22h-20v-132h20q19 0 19 23v87zM1351 156q0 21 -19 21h-20v-138h20q19 0 19 22v95zM1455 0v165l-50 221h40l22 -119l8 -52l7 52l23 119h40
l-51 -221v-165h-39z" />
    <glyph glyph-name="o" unicode="o" horiz-adv-x="1446" 
d="M121 740q0 23 -17 23q-16 0 -16 -23v-52q0 -25 36 -73q35 -45 35 -81v-34q0 -85 -55 -85q-54 0 -54 85v48h38v-71q0 -24 16 -24q17 0 17 24v44q0 36 -36 81q-35 45 -35 90v24q0 86 54 86q55 0 55 -86v-35h-38v59zM267 548h37v-48q0 -85 -56 -85q-58 0 -58 85v216
q0 86 58 86q56 0 56 -86v-35h-37v59q0 23 -19 23t-19 -23v-263q0 -24 19 -24t19 24v71zM372 415h-39v387h60q64 0 64 -82v-42q0 -54 -30 -76l28 -187h-38l-25 178h-20v-178zM393 632q25 0 25 26v79q0 26 -25 26h-21v-131h21zM519 453h60v-38h-98v387h98v-39h-60v-132h34v-38
h-34v-140zM642 453h59v-38h-98v387h98v-39h-59v-132h33v-38h-33v-140zM768 642l-7 52v-279h-34v387h45l40 -221l8 -58v279h35v-387h-47zM924 415h-39v387h59q64 0 64 -89v-15q0 -90 -64 -90h-20v-193zM944 647q26 0 26 26v64q0 26 -26 26h-20v-116h20zM1073 453h59v-38h-98
v387h39v-349zM1136 415l52 387h39l50 -387h-38l-7 57h-50l-7 -57h-39zM1188 516h38l-13 108l-6 68l-6 -68zM1308 415v165l-52 222h40l24 -120l7 -51l7 51l22 120h40l-49 -222v-165h-39zM1241 263q0 -53 -28 -66q28 -13 28 -66v-45q0 -86 -58 -86h-57v386h57q58 0 58 -84v-39
zM1202 325q0 23 -19 23h-20v-132h20q19 0 19 22v87zM1202 156q0 21 -19 21h-20v-138h20q19 0 19 22v95zM1308 0v166l-52 220h40l24 -119l7 -52l7 52l22 119h40l-49 -220v-166h-39z" />
    <glyph glyph-name="p" unicode="p" horiz-adv-x="1220" 
d="M101 452h59v-39h-98v386h98v-39h-59v-131h33v-38h-33v-139zM307 799l-44 -178l53 -208h-39l-25 110l-8 39l-10 -39l-23 -110h-42l53 208l-43 178h39l18 -86l8 -34l6 34l17 86h40zM369 452h61v-39h-98v386h98v-39h-61v-131h35v-38h-35v-139zM532 546h35v-49
q0 -41 -13.5 -62.5t-41.5 -21.5q-29 0 -44 21.5t-15 62.5v218q0 41 15 62.5t44 21.5q28 0 41.5 -21.5t13.5 -62.5v-36h-35v59q0 22 -20 22q-19 0 -19 -22v-264q0 -22 19 -22q20 0 20 22v72zM673 799h39v-302q0 -41 -14.5 -62.5t-42.5 -21.5q-29 0 -44 21.5t-15 62.5v302h39
v-325q0 -22 20 -22q18 0 18 22v325zM729 799h116v-39h-39v-347h-39v347h-38v39zM861 413v386h39v-386h-39zM1054 799l-50 -386h-38l-51 386h38l25 -208l6 -68l6 68l27 208h37zM1109 452h59v-39h-98v386h98v-39h-59v-131h34v-38h-34v-139zM87 0h-37v384h59q62 0 62 -88v-16
q0 -88 -62 -88h-22v-192zM109 231q25 0 25 25v63q0 28 -25 28h-22v-116h22zM236 0h-39v384h59q64 0 64 -81v-43q0 -53 -29 -74l29 -186h-39l-25 176h-20v-176zM258 215q23 0 23 26v78q0 28 -25 28h-20v-132h22zM459 84q0 -84 -58 -84q-57 0 -57 84v216q0 84 57 84
q58 0 58 -84v-216zM420 323q0 24 -19 24q-18 0 -18 -24v-262q0 -24 18 -24q19 0 19 24v262zM604 84q0 -43 -13.5 -63.5t-43.5 -20.5h-56v384h56q30 0 43.5 -21t13.5 -63v-216zM567 323q0 24 -20 24h-19v-310h19q20 0 20 24v262zM712 384h39v-300q0 -84 -57 -84q-59 0 -59 84
v300h40v-323q0 -24 19 -24q18 0 18 24v323zM859 131h37v-47q0 -84 -57 -84t-57 84v216q0 84 57 84t57 -84v-36h-37v59q0 24 -20 24q-19 0 -19 -24v-262q0 -24 19 -24q20 0 20 24v70zM962 37h59v-37h-96v384h96v-37h-59v-132h34v-39h-34v-139zM1086 0h-39v384h58q65 0 65 -81
v-43q0 -53 -29 -74l29 -186h-39l-26 176h-19v-176zM1107 215q24 0 24 26v78q0 28 -26 28h-19v-132h21z" />
    <glyph glyph-name="q" unicode="q" horiz-adv-x="1569" 
d="M126 548h37v-49q0 -84 -57 -84q-56 0 -56 84v216q0 84 56 84q57 0 57 -84v-35h-37v59q0 21 -20 21q-17 0 -17 -21v-264q0 -21 17 -21q20 0 20 21v73zM305 499q0 -84 -56 -84q-57 0 -57 84v216q0 84 57 84q56 0 56 -84v-216zM268 739q0 21 -19 21q-20 0 -20 -21v-264
q0 -21 20 -21q19 0 19 21v264zM329 626h64v-30h-64v30zM455 454h59v-39h-98v384h98v-39h-59v-131h33v-37h-33v-138zM660 799l-45 -177l55 -207h-41l-24 109l-10 39l-9 -39l-24 -109h-39l53 207l-43 177h39l18 -86l5 -33l8 33l16 86h41zM722 454h59v-39h-98v384h98v-39h-59
v-131h33v-37h-33v-138zM882 548h37v-49q0 -84 -57 -84q-56 0 -56 84v216q0 84 56 84q57 0 57 -84v-35h-37v59q0 21 -20 21q-17 0 -17 -21v-264q0 -21 17 -21q20 0 20 21v73zM1024 799h37v-300q0 -84 -56 -84q-57 0 -57 84v300h37v-324q0 -21 20 -21q19 0 19 21v324z
M1079 799h115v-39h-39v-345h-37v345h-39v39zM1211 415v384h37v-384h-37zM1404 799l-51 -384h-39l-50 384h39l25 -207l6 -68l6 68l25 207h39zM1459 454h58v-39h-97v384h97v-39h-58v-131h33v-37h-33v-138zM442 4h-39v382h58q64 0 64 -88v-15q0 -88 -64 -88h-19v-191zM463 234
q23 0 23 25v63q0 27 -25 27h-19v-115h21zM588 4h-37v382h58q64 0 64 -80v-43q0 -52 -31 -74l29 -185h-38l-24 175h-21v-175zM609 218q25 0 25 26v78q0 27 -25 27h-21v-131h21zM810 88q0 -84 -57 -84q-56 0 -56 84v214q0 84 56 84q57 0 57 -84v-214zM773 325q0 24 -20 24
q-19 0 -19 -24v-261q0 -23 19 -23q20 0 20 23v261zM956 88q0 -84 -57 -84h-58v382h58q57 0 57 -84v-214zM917 325q0 24 -18 24h-19v-308h19q18 0 18 23v261zM1063 386h39v-298q0 -84 -58 -84q-57 0 -57 84v298h37v-322q0 -23 20 -23q19 0 19 23v322zM1209 135h35v-47
q0 -84 -54 -84q-59 0 -59 84v214q0 84 59 84q54 0 54 -84v-35h-35v58q0 24 -19 24q-20 0 -20 -24v-261q0 -23 20 -23q19 0 19 23v71zM1312 41h59v-37h-97v382h97v-37h-59v-131h34v-39h-34v-138zM1433 4h-37v382h59q64 0 64 -80v-43q0 -26 -8.5 -44.5t-22.5 -29.5l29 -185
h-39l-23 175h-22v-175zM1455 218q25 0 25 26v78q0 27 -25 27h-22v-131h22z" />
    <glyph glyph-name="r" unicode="r" horiz-adv-x="1123" 
d="M475 592h60v-179l-21 28q-9 -28 -39 -28q-29 0 -44 21.5t-15 62.5v218q0 84 59 84q60 0 60 -84v-35h-38v59q0 22 -22 22q-19 0 -19 -22v-265q0 -22 19 -22q22 0 22 22v79h-22v39zM638 799h39v-302q0 -41 -14 -62.5t-42 -21.5q-29 0 -44.5 21.5t-15.5 62.5v302h39v-325
q0 -22 21 -22q17 0 17 22v325zM746 452h60v-39h-97v386h97v-38h-60v-132h35v-37h-35v-140zM903 739q0 22 -18 22q-16 0 -16 -22v-53q0 -25 35 -72q35 -49 35 -82v-35q0 -41 -13 -62.5t-41 -21.5q-27 0 -41 21.5t-14 62.5v50h39v-73q0 -22 16 -22q18 0 18 22v46q0 17 -9 37.5
t-29 42.5q-35 45 -35 90v25q0 84 55 84q54 0 54 -84v-35h-36v59zM958 799h115v-38h-39v-348h-37v348h-39v38zM165 84q0 -84 -56 -84h-59v384h59q56 0 56 -84v-216zM129 323q0 12 -6 18t-14 6h-20v-310h20q8 0 14 6t6 18v262zM197 0v384h40v-384h-40zM305 0h-39v384h61
q62 0 62 -80v-43q0 -26 -7.5 -45.5t-21.5 -28.5l29 -187h-39l-25 176h-20v-176zM327 215q25 0 25 26v78q0 28 -25 28h-22v-132h22zM452 37h58v-37h-97v384h97v-37h-58v-132h33v-39h-33v-139zM613 131h37v-47q0 -84 -57 -84t-57 84v216q0 84 57 84t57 -84v-35h-37v58
q0 24 -20 24q-19 0 -19 -24v-262q0 -24 19 -24q20 0 20 24v70zM664 384h115v-37h-37v-347h-39v347h-39v37zM913 84q0 -84 -60 -84q-27 0 -42 20.5t-15 63.5v216q0 43 15 63.5t42 20.5q60 0 60 -84v-216zM874 323q0 24 -21 24q-17 0 -17 -24v-262q0 -24 17 -24q21 0 21 24
v262zM981 0h-37v384h59q62 0 62 -80v-43q0 -26 -7.5 -45.5t-21.5 -28.5l29 -187h-39l-23 176h-22v-176zM1003 215q25 0 25 26v78q0 28 -25 28h-22v-132h22z" />
    <glyph glyph-name="s" unicode="s" horiz-adv-x="1316" 
d="M471 738q0 22 -16 22q-15 0 -15 -22v-53q0 -11 8.5 -30t26.5 -42q35 -47 35 -80v-36q0 -41 -14 -62.5t-41 -21.5q-28 0 -41.5 21.5t-13.5 62.5v49h40v-72q0 -22 15 -22q16 0 16 22v45q0 36 -35 80q-36 48 -36 90v26q0 84 55 84t55 -84v-36h-39v59zM579 413h-38v386h59
q63 0 63 -88v-16q0 -88 -63 -88h-21v-194zM600 644q26 0 26 26v64q0 26 -26 26h-21v-116h21zM727 452h59v-39h-98v386h98v-39h-59v-131h34v-38h-34v-139zM888 546h37v-49q0 -41 -14 -62.5t-43 -21.5q-28 0 -42 21.5t-14 62.5v218q0 84 56 84q57 0 57 -84v-36h-37v59
q0 22 -20 22q-19 0 -19 -22v-264q0 -22 19 -22q20 0 20 22v72zM953 413v386h39v-386h-39zM1008 413l50 386h40l51 -386h-40l-7 59h-49l-6 -59h-39zM1058 513h40l-14 108l-6 68l-6 -68zM1201 452h61v-39h-98v386h37v-347zM89 37h59v-37h-98v384h98v-37h-59v-132h33v-39h-33
v-139zM212 0h-39v384h98v-37h-59v-132h34v-39h-34v-176zM332 0h-39v384h98v-37h-59v-132h33v-39h-33v-176zM451 37h61v-37h-98v384h98v-37h-61v-132h36v-39h-36v-139zM614 131h35v-47q0 -84 -55 -84q-58 0 -58 84v216q0 84 58 84q55 0 55 -84v-36h-35v59q0 24 -20 24
q-19 0 -19 -24v-262q0 -24 19 -24q20 0 20 24v70zM665 384h115v-37h-39v-347h-37v347h-39v37zM868 323q0 24 -17 24q-16 0 -16 -24v-51q0 -25 35 -72q36 -48 36 -83v-33q0 -84 -55 -84t-55 84v47h39v-70q0 -22 16 -22q17 0 17 22v43q0 37 -35 82q-19 22 -28 45t-9 45v24
q0 84 55 84t55 -84v-36h-38v59zM1111 260q0 -49 -27 -64q27 -15 27 -65v-47q0 -84 -56 -84h-59v384h59q56 0 56 -84v-40zM1074 323q0 24 -19 24h-20v-132h20q19 0 19 22v86zM1074 155q0 21 -19 21h-20v-139h20q19 0 19 24v94zM1178 0v164l-51 220h39l24 -118l7 -53l6 53
l24 118h39l-51 -220v-164h-37z" />
    <glyph glyph-name="t" unicode="t" horiz-adv-x="1320" 
d="M653 800l-51 -387h-39l-51 387h39l26 -209l5 -68l6 68l26 209h39zM669 413v387h37v-387h-37zM808 739q0 21 -15 21q-16 0 -16 -21v-53q0 -26 35 -73q36 -48 36 -81v-35q0 -84 -55 -84t-55 84v49h39v-73q0 -21 16 -21q15 0 15 21v46q0 17 -8.5 37.5t-26.5 42.5
q-35 47 -35 91v25q0 85 55 85t55 -85v-35h-40v59zM956 800h39v-303q0 -84 -59 -84q-57 0 -57 84v303h37v-327q0 -21 20 -21t20 21v327zM1011 413l51 387h39l51 -387h-39l-8 58h-49l-6 -58h-39zM1062 513h37l-12 108l-8 69l-3 -69zM1205 452h59v-39h-98v387h39v-348zM89 35
h59v-37h-98v385h98v-37h-59v-132h34v-39h-34v-140zM211 -2h-37v385h98v-37h-61v-132h35v-39h-35v-177zM333 -2h-39v385h98v-37h-59v-132h33v-39h-33v-177zM453 35h59v-37h-97v385h97v-37h-59v-132h33v-39h-33v-140zM614 130h37v-48q0 -84 -55 -84q-59 0 -59 84v217
q0 84 59 84q55 0 55 -84v-36h-37v59q0 24 -18 24q-19 0 -19 -24v-263q0 -24 19 -24q18 0 18 24v71zM667 383h116v-37h-40v-348h-39v348h-37v37zM869 322q0 24 -15 24q-16 0 -16 -24v-51q0 -14 9 -31.5t26 -41.5q36 -47 36 -82v-34q0 -84 -55 -84t-55 84v48h39v-71
q0 -22 16 -22q15 0 15 22v43q0 20 -9 39.5t-26 43.5q-18 22 -26.5 45t-8.5 45v24q0 84 55 84t55 -84v-36h-40v59zM1115 259q0 -49 -28 -65q28 -14 28 -64v-48q0 -84 -59 -84h-57v385h57q59 0 59 -84v-40zM1076 322q0 24 -20 24h-18v-132h20q18 0 18 22v86zM1076 153
q0 22 -18 22h-20v-140h18q20 0 20 24v94zM1182 -2v165l-51 220h39l23 -118l6 -53l8 53l24 118h39l-51 -220v-165h-37z" />
    <glyph glyph-name="u" unicode="u" horiz-adv-x="1316" 
d="M252 738q0 22 -20 22t-20 -22v-58h-37v35q0 84 57 84t57 -84v-39q0 -53 -24 -65q24 -15 24 -67v-45q0 -84 -57 -84t-57 84v45v2h37v-70q0 -24 20 -24t20 24v94q0 21 -20 21h-12v40h14q9 0 13.5 4.5t4.5 16.5v86zM436 499q0 -84 -57 -84h-59v384h59q57 0 57 -84v-216z
M396 738q0 22 -17 22h-20v-308h20q17 0 17 24v262zM651 799l-51 -384h-39l-51 384h39l26 -208l6 -68l5 68l26 208h39zM667 415v384h39v-384h-39zM808 738q0 22 -18 22q-16 0 -16 -22v-53q0 -24 36 -70q35 -50 35 -82v-34q0 -84 -55 -84t-55 84v47h39v-70q0 -24 16 -24
q18 0 18 24v43q0 36 -37 82q-36 45 -36 88v26q0 84 55 84t55 -84v-35h-37v58zM953 799h39v-300q0 -84 -59 -84q-57 0 -57 84v300h39v-323q0 -24 18 -24q20 0 20 24v323zM1007 415l51 384h40l50 -384h-39l-8 57h-48l-6 -57h-40zM1058 513h38l-12 108l-6 68l-6 -66zM1201 452
h59v-37h-96v384h37v-347zM89 39h59v-39h-98v386h98v-39h-59v-132h33v-37h-33v-139zM212 0h-39v386h98v-39h-59v-132h34v-37h-34v-178zM332 0h-39v386h98v-39h-59v-132h33v-37h-33v-178zM451 39h59v-39h-96v386h96v-39h-59v-132h36v-37h-36v-139zM612 133h37v-49
q0 -84 -55 -84q-58 0 -58 84v216q0 86 58 86q28 0 41.5 -21.5t13.5 -62.5v-36h-37v59q0 22 -18 22q-19 0 -19 -22v-264q0 -22 19 -22q18 0 18 22v72zM665 386h115v-39h-39v-347h-39v347h-37v39zM868 325q0 22 -17 22q-16 0 -16 -22v-53q0 -25 35 -72q36 -48 36 -81v-35
q0 -84 -55 -84t-55 84v49h39v-72q0 -22 16 -22q17 0 17 22v45q0 35 -37 80q-35 47 -35 90v24q0 86 55 86t55 -86v-34h-38v59zM1111 262q0 -50 -27 -66q27 -13 27 -65v-47q0 -84 -57 -84h-58v386h58q57 0 57 -86v-38zM1072 325q0 22 -18 22h-19v-132h19q18 0 18 22v88z
M1072 155q0 20 -18 23h-19v-139h19q18 0 18 22v94zM1178 0v165l-51 221h39l24 -120l5 -51l8 51l24 120h39l-51 -221v-165h-37z" />
    <glyph glyph-name="v" unicode="v" horiz-adv-x="1246" 
d="M50 417l51 383h39l51 -383h-39l-8 56h-49l-6 -56h-39zM101 514h39l-14 108l-6 68l-6 -66zM277 739q0 22 -16 22t-16 -22v-52q0 -25 36 -71q35 -50 35 -82v-33q0 -84 -55 -84t-55 84v47h39v-71q0 -23 16 -23t16 23v43q0 35 -35 82q-36 45 -36 88v26q0 84 55 84t55 -84v-35
h-39v58zM418 739q0 22 -16 22q-18 0 -18 -22v-52q0 -25 36 -71q35 -50 35 -82v-33q0 -84 -53 -84q-55 0 -55 84v47h37v-71q0 -23 18 -23q16 0 16 23v43q0 35 -36 82q-35 46 -35 88v26q0 84 55 84q53 0 53 -84v-35h-37v58zM486 417v383h39v-383h-39zM627 739q0 22 -16 22
q-17 0 -17 -22v-52q0 -26 35 -71q35 -50 35 -82v-33q0 -84 -53 -84q-55 0 -55 84v47h38v-71q0 -23 17 -23q16 0 16 23v43q0 35 -35 82q-36 45 -36 88v26q0 84 55 84q53 0 53 -84v-35h-37v58zM682 800h115v-39h-37v-344h-39v344h-39v39zM781 417l51 383h39l51 -383h-39l-8 56
h-49l-6 -56h-39zM832 514h37l-11 108l-6 68l-6 -66zM979 642l-8 50v-275h-33v383h45l39 -219l8 -59v278h35v-383h-47zM1081 800h115v-39h-37v-344h-39v344h-39v39zM292 86q0 -84 -58 -84h-57v385h57q58 0 58 -86v-215zM253 327q0 21 -19 21h-18v-307h18q19 0 19 22v264z
M324 2v385h37v-385h-37zM431 2h-39v385h59q64 0 64 -82v-41q0 -54 -29 -76l27 -186h-37l-25 178h-20v-178zM451 217q25 0 25 28v78q0 25 -25 25h-20v-131h20zM576 41h61v-39h-98v385h98v-39h-61v-131h35v-37h-35v-139zM738 135h36v-49q0 -84 -55 -84q-59 0 -59 84v215
q0 86 59 86q55 0 55 -84v-35h-36v59q0 21 -19 21q-20 0 -20 -21v-264q0 -22 20 -22q19 0 19 22v72zM789 387h116v-39h-40v-346h-37v346h-39v39zM1036 86q0 -84 -57 -84q-59 0 -59 84v215q0 86 59 86q57 0 57 -86v-215zM998 327q0 21 -19 21q-20 0 -20 -21v-264q0 -22 20 -22
q19 0 19 22v264zM1106 2h-39v385h59q64 0 64 -82v-41q0 -53 -29 -76l29 -186h-39l-25 178h-20v-178zM1128 217q23 0 23 28v78q0 25 -25 25h-20v-131h22z" />
    <glyph glyph-name="w" unicode="w" horiz-adv-x="1120" 
d="M667 415l51 384h39l51 -384h-39l-8 57h-49l-6 -57h-39zM718 513h37l-12 108l-6 68l-6 -66zM861 415h-38v384h59q63 0 63 -81v-43q0 -52 -30 -76l30 -184h-39l-24 176h-21v-176zM882 630q26 0 26 26v78q0 26 -26 26h-21v-130h21zM954 799h116v-39h-37v-345h-39v345h-40v39
zM166 84q0 -84 -59 -84h-57v386h57q59 0 59 -86v-216zM126 325q0 22 -19 22h-20v-308h20q19 0 19 22v264zM195 0v386h39v-386h-39zM303 0h-38v386h59q65 0 65 -83v-41q0 -52 -30 -76l28 -186h-39l-24 178h-21v-178zM324 215q26 0 26 28v78q0 26 -26 26h-21v-132h21zM449 39
h61v-39h-98v386h98v-39h-61v-132h36v-37h-36v-139zM612 133h35v-49q0 -84 -55 -84q-58 0 -58 84v216q0 86 58 86q55 0 55 -85v-35h-35v59q0 22 -20 22q-19 0 -19 -22v-264q0 -22 19 -22q20 0 20 22v72zM663 386h115v-39h-39v-347h-37v347h-39v39zM909 84q0 -84 -56 -84
q-59 0 -59 84v216q0 86 59 86q56 0 56 -86v-216zM872 325q0 22 -19 22q-20 0 -20 -22v-264q0 -22 20 -22q19 0 19 22v264zM980 0h-39v386h59q64 0 64 -83v-41q0 -52 -29 -76l27 -186h-37l-25 178h-20v-178zM1000 215q25 0 25 28v78q0 26 -25 26h-20v-132h20z" />
    <glyph glyph-name="x" unicode="x" horiz-adv-x="1573" 
d="M127 546h35v-47q0 -84 -55 -84q-57 0 -57 84v216q0 84 57 84q55 0 55 -84v-35h-35v58q0 22 -20 22t-20 -22v-262q0 -24 20 -24t20 24v70zM307 499q0 -84 -57 -84q-59 0 -59 84v216q0 84 59 84q57 0 57 -84v-216zM268 738q0 22 -18 22q-20 0 -20 -22v-262q0 -24 20 -24
q18 0 18 24v262zM330 627h65v-32h-65v32zM456 452h58v-37h-96v384h96v-39h-58v-129h33v-40h-33v-139zM661 799l-43 -178l53 -206h-39l-26 108l-7 39l-10 -39l-24 -108h-39l53 206l-45 178h39l18 -86l8 -33l5 33l18 86h39zM726 452h59v-37h-98v384h98v-39h-59v-129h33v-40
h-33v-139zM887 546h37v-47q0 -84 -57 -84t-57 84v216q0 84 57 84t57 -84v-35h-37v58q0 22 -20 22t-20 -22v-262q0 -24 20 -24t20 24v70zM1028 799h39v-300q0 -84 -57 -84q-59 0 -59 84v300h39v-323q0 -24 20 -24q18 0 18 24v323zM1084 799h116v-39h-39v-345h-39v345h-38v39z
M1216 415v384h39v-384h-39zM1411 799l-51 -384h-39l-51 384h40l25 -208l6 -68l6 68l25 208h39zM1464 452h59v-37h-96v384h96v-39h-59v-129h34v-40h-34v-139zM303 0h-39v386h58q65 0 65 -88v-16q0 -90 -65 -90h-19v-192zM322 231q26 0 26 26v64q0 26 -26 26h-19v-116h19z
M450 0h-37v386h58q63 0 63 -82v-42q0 -52 -29 -76l29 -186h-39l-24 178h-21v-178zM471 215q26 0 26 28v78q0 26 -26 26h-21v-132h21zM673 84q0 -84 -57 -84q-59 0 -59 84v216q0 86 59 86q57 0 57 -86v-216zM636 325q0 22 -20 22q-19 0 -19 -22v-264q0 -22 19 -22q20 0 20 22
v264zM820 84q0 -84 -57 -84h-59v386h59q57 0 57 -86v-216zM781 325q0 22 -18 22h-19v-308h19q18 0 18 22v264zM928 386h39v-302q0 -84 -59 -84q-57 0 -57 84v302h37v-325q0 -22 20 -22t20 22v325zM1075 133h35v-49q0 -84 -55 -84q-59 0 -59 84v216q0 86 59 86
q28 0 41.5 -21.5t13.5 -62.5v-36h-35v59q0 22 -20 22t-20 -22v-264q0 -22 20 -22t20 22v72zM1178 39h59v-39h-98v386h98v-39h-59v-132h34v-37h-34v-139zM1300 0h-37v386h58q63 0 63 -82v-42q0 -52 -29 -76l29 -186h-39l-24 178h-21v-178zM1321 215q26 0 26 28v78
q0 26 -26 26h-21v-132h21zM1480 325q0 22 -18 22q-15 0 -15 -22v-53q0 -27 35 -72q35 -49 35 -81v-35q0 -84 -55 -84t-55 84v49h40v-72q0 -22 15 -22q18 0 18 22v45q0 36 -35 80q-18 23 -28 45.5t-10 44.5v24q0 86 55 86t55 -86v-34h-37v59z" />
    <glyph glyph-name="y" unicode="y" horiz-adv-x="1481" 
d="M312 547h37v-48q0 -85 -56 -85q-57 0 -57 85v216q0 84 57 84q56 0 56 -84v-35h-37v59q0 22 -19 22t-19 -22v-264q0 -22 19 -22t19 22v72zM416 414h-38v385h59q64 0 64 -80v-43q0 -55 -30 -76l29 -186h-38l-25 177h-21v-177zM437 630q25 0 25 27v78q0 26 -25 26h-21v-131
h21zM563 453h59v-39h-98v385h98v-38h-59v-131h34v-39h-34v-138zM632 414l51 385h39l51 -385h-39l-7 58h-50l-6 -58h-39zM683 513h38l-13 109l-6 68l-6 -68zM758 799h115v-38h-38v-347h-39v347h-38v38zM967 799h39v-300q0 -85 -59 -85q-57 0 -57 85v300h38v-324q0 -22 19 -22
q20 0 20 22v324zM1074 414h-37v385h59q63 0 63 -80v-43q0 -54 -30 -76l30 -186h-39l-25 177h-21v-177zM1096 630q25 0 25 27v78q0 26 -25 26h-22v-131h22zM1221 453h60v-39h-98v385h98v-38h-60v-131h34v-39h-34v-138zM1377 739q0 22 -16 22q-17 0 -17 -22v-52q0 -26 35 -72
q37 -49 37 -82v-34q0 -85 -55 -85t-55 85v48h38v-72q0 -22 17 -22q16 0 16 22v44q0 36 -35 82q-36 45 -36 89v25q0 84 55 84t55 -84v-35h-39v59zM165 85q0 -85 -58 -85h-57v385h57q58 0 58 -84v-216zM126 325q0 21 -19 21h-18v-307h18q19 0 19 22v264zM235 39h59v-39h-98
v385h98v-39h-59v-130h33v-39h-33v-138zM389 325q0 21 -16 21q-15 0 -15 -21v-53q0 -27 35 -72q35 -49 35 -81v-34q0 -85 -55 -85q-54 0 -54 85v47h39v-71q0 -22 15 -22q16 0 16 22v44q0 37 -35 82q-35 46 -35 89v25q0 84 54 84q55 0 55 -84v-35h-39v59zM459 0v385h39v-385
h-39zM586 177h59v-177l-18 26q-11 -26 -41 -26q-57 0 -57 85v216q0 84 58 84q59 0 59 -84v-35h-37v59q0 21 -22 21q-20 0 -20 -21v-264q0 -22 19 -22q23 0 23 22v78h-23v38zM715 226l-7 52v-278h-35v385h46l40 -219l8 -59v278h34v-385h-46zM871 39h59v-39h-98v385h98v-39
h-59v-130h33v-39h-33v-138zM1070 85q0 -85 -58 -85h-57v385h57q58 0 58 -84v-216zM1031 325q0 21 -19 21h-18v-307h18q19 0 19 22v264zM1275 262q0 -53 -27 -66q27 -13 27 -65v-46q0 -85 -57 -85h-58v385h58q57 0 57 -84v-39zM1238 325q0 21 -20 21h-19v-130h20q19 0 19 22
v87zM1238 155q0 20 -19 22h-20v-138h19q20 0 20 22v94zM1342 0v165l-51 220h39l24 -119l7 -52l7 52l23 119h40l-51 -220v-165h-38z" />
    <glyph glyph-name="z" unicode="z" horiz-adv-x="2402" 
d="M127 547h37v-47q0 -85 -55 -85q-59 0 -59 85v216q0 84 59 84q55 0 55 -84v-35h-37v59q0 22 -18 22q-20 0 -20 -22v-264q0 -22 20 -22q18 0 18 22v71zM232 415h-39v385h59q65 0 65 -81v-42q0 -52 -30 -76l29 -186h-40l-24 177h-20v-177zM253 631q25 0 25 26v79
q0 26 -26 26h-20v-131h21zM379 454h59v-39h-98v385h98v-38h-59v-131h33v-39h-33v-138zM448 415l50 385h40l51 -385h-39l-8 57h-49l-7 -57h-38zM498 514h39l-13 109l-6 68l-6 -68zM573 800h116v-38h-38v-347h-39v347h-39v38zM782 800h39v-300q0 -85 -58 -85q-57 0 -57 85v300
h38v-324q0 -22 19 -22t19 22v324zM891 415h-39v385h59q65 0 65 -81v-42q0 -54 -30 -76l29 -186h-39l-25 177h-20v-177zM912 631q25 0 25 26v79q0 26 -26 26h-20v-131h21zM1038 454h59v-39h-98v385h98v-38h-59v-131h33v-39h-33v-138zM1193 740q0 22 -17 22q-16 0 -16 -22v-52
q0 -27 36 -73q36 -48 36 -81v-34q0 -85 -56 -85q-54 0 -54 85v47h38v-71q0 -22 16 -22q17 0 17 22v44q0 37 -35 82q-36 45 -36 89v25q0 84 54 84q56 0 56 -84v-35h-39v59zM1437 500q0 -85 -57 -85h-58v385h58q57 0 57 -84v-216zM1399 740q0 22 -19 22h-19v-308h19
q19 0 19 22v264zM1507 454h59v-39h-98v385h98v-38h-59v-131h33v-39h-33v-138zM1663 740q0 22 -17 22q-16 0 -16 -22v-52q0 -26 35 -73q36 -48 36 -81v-34q0 -85 -55 -85t-55 85v47h39v-71q0 -22 16 -22q17 0 17 22v44q0 35 -36 82q-36 45 -36 89v25q0 84 55 84t55 -84v-35
h-38v59zM1732 415v385h38v-385h-38zM1860 592h58v-177l-19 26q-10 -26 -40 -26q-58 0 -58 85v216q0 84 59 84t59 -84v-35h-37v59q0 22 -22 22q-20 0 -20 -22v-264q0 -22 19 -22q22 0 22 22v78h-21v38zM1988 641l-7 52v-278h-34v385h45l40 -219l8 -59v278h34v-385h-46z
M2144 454h59v-39h-97v385h97v-38h-59v-131h34v-39h-34v-138zM2267 415h-39v385h59q65 0 65 -81v-42q0 -54 -30 -76l29 -186h-39l-25 177h-20v-177zM2288 631q25 0 25 26v79q0 26 -26 26h-20v-131h21zM504 0l51 386h39l51 -386h-39l-7 58h-50l-6 -58h-39zM555 99h38l-13 108
l-6 69l-6 -68zM702 226l-7 52v-278h-35v386h47l39 -220l8 -58v278h34v-386h-46zM935 85q0 -85 -58 -85h-58v386h58q58 0 58 -85v-216zM897 325q0 22 -20 22h-19v-308h19q20 0 20 22v264zM1096 325q0 22 -16 22t-16 -22v-52q0 -26 35 -72q36 -48 36 -82v-34q0 -85 -55 -85
t-55 85v48h39v-72q0 -22 16 -22t16 22v44q0 35 -35 82q-36 45 -36 89v25q0 85 55 85t55 -85v-35h-39v59zM1243 386h38v-301q0 -85 -57 -85q-58 0 -58 85v301h38v-325q0 -22 20 -22q19 0 19 22v325zM1351 0h-39v386h60q64 0 64 -89v-16q0 -88 -64 -88h-21v-193zM1372 231
q26 0 26 26v64q0 26 -26 26h-21v-116h21zM1499 39h60v-39h-99v386h99v-39h-60v-131h34v-39h-34v-138zM1622 0h-38v386h59q64 0 64 -81v-43q0 -54 -30 -76l30 -186h-40l-24 177h-21v-177zM1644 216q25 0 25 26v79q0 26 -26 26h-21v-131h22zM1856 386l-50 -386h-40l-51 386h39
l26 -208l6 -69l5 68l27 209h38zM1872 0v386h39v-386h-39zM2012 325q0 22 -16 22q-17 0 -17 -22v-52q0 -28 37 -72q35 -49 35 -82v-34q0 -85 -55 -85q-54 0 -54 85v48h37v-72q0 -22 17 -22q16 0 16 22v44q0 35 -35 82q-35 44 -35 89v25q0 85 54 85q55 0 55 -85v-35h-39v59z
M2197 85q0 -85 -58 -85q-57 0 -57 85v216q0 85 57 85q58 0 58 -85v-216zM2159 325q0 22 -20 22q-18 0 -18 -22v-264q0 -22 18 -22q20 0 20 22v264zM2267 0h-39v386h59q65 0 65 -81v-43q0 -54 -30 -76l29 -186h-39l-25 177h-20v-177zM2288 216q25 0 25 26v79q0 26 -26 26h-20
v-131h21z" />
    <glyph glyph-name="braceleft" unicode="{" horiz-adv-x="260" 
d="M150 80q0 -112 86 -112v-48q-134 0 -134 176v196l-89 108l89 111v193q0 176 134 176v-48q-86 0 -86 -112v-223l-79 -97l79 -98v-222z" />
    <glyph glyph-name="bar" unicode="|" horiz-adv-x="90" 
d="M70 800l1 -800h-50v800h49z" />
    <glyph glyph-name="braceright" unicode="}" horiz-adv-x="260" 
d="M98 720q0 112 -86 112v48q134 0 134 -176v-196l89 -108l-89 -111v-193q0 -176 -134 -176v48q86 0 86 112v223l79 97l-79 98v222z" />
    <glyph glyph-name="asciitilde" unicode="~" horiz-adv-x="369" 
d="M24 344q0 52 28 81q28 31 72 31q29 0 82 -27q30 -14 46 -14t24 8.5t12 33.5h63q-1 -57 -27.5 -84t-68.5 -27q-30 0 -81 27q-32 18 -48 18t-26 -12q-11 -13 -11 -35h-65z" />
    <glyph glyph-name="nonbreakingspace" unicode="&#xa0;" horiz-adv-x="197" 
 />
    <glyph glyph-name="exclamdown" unicode="&#xa1;" horiz-adv-x="1383" 
d="M88 415h-38v385h59q64 0 64 -88v-16q0 -88 -64 -88h-21v-193zM110 646q24 0 24 26v64q0 26 -25 26h-21v-116h22zM236 415h-39v385h60q64 0 64 -81v-42q0 -55 -30 -76l29 -186h-39l-25 177h-20v-177zM257 631q26 0 26 25v80q0 26 -26 26h-21v-131h21zM383 453h59v-38h-97
v385h97v-38h-59v-131h33v-39h-33v-139zM538 739q0 22 -16 22t-16 -22v-52q0 -25 35 -72q36 -48 36 -81v-35q0 -84 -55 -84q-54 0 -54 84v48h38v-71q0 -23 16 -23t16 23v44q0 35 -35 81q-35 45 -35 89v25q0 85 54 85q55 0 55 -85v-35h-39v59zM647 453h59v-38h-99v385h99v-38
h-59v-131h33v-39h-33v-139zM772 641l-7 52v-278h-35v385h46l40 -220l8 -58v278h34v-385h-46zM875 800h116v-38h-38v-347h-39v347h-39v38zM1079 739q0 22 -16 22t-16 -22v-52q0 -25 35 -72q35 -49 35 -81v-35q0 -84 -54 -84q-55 0 -55 84v48h39v-71q0 -23 16 -23t16 23v44
q0 36 -36 81q-35 45 -35 89v25q0 85 55 85q54 0 54 -85v-35h-38v59zM1192 415l52 385h38l51 -385h-39l-7 57h-49l-7 -57h-39zM1244 514h38l-13 108l-7 68l-6 -67z" />
    <glyph glyph-name="cent" unicode="&#xa2;" horiz-adv-x="1167" 
d="M88 415h-38v385h59q64 0 64 -88v-16q0 -88 -64 -88h-21v-193zM110 646q24 0 24 26v64q0 26 -25 26h-21v-116h22zM236 415h-39v385h60q64 0 64 -81v-42q0 -55 -30 -76l29 -186h-39l-25 177h-20v-177zM257 631q26 0 26 25v80q0 26 -26 26h-21v-131h21zM383 453h59v-38h-97
v385h97v-38h-59v-131h33v-39h-33v-139zM538 739q0 22 -16 22t-16 -22v-52q0 -25 35 -72q36 -48 36 -81v-35q0 -84 -55 -84q-54 0 -54 84v48h38v-71q0 -23 16 -23t16 23v44q0 35 -35 81q-35 45 -35 89v25q0 85 54 85q55 0 55 -85v-35h-39v59zM647 453h59v-38h-99v385h99v-38
h-59v-131h33v-39h-33v-139zM772 641l-7 52v-278h-35v385h46l40 -220l8 -58v278h34v-385h-46zM875 800h116v-38h-38v-347h-39v347h-39v38zM1079 739q0 22 -16 22t-16 -22v-52q0 -25 35 -72q35 -49 35 -81v-35q0 -84 -54 -84q-55 0 -55 84v48h39v-71q0 -23 16 -23t16 23v44
q0 36 -36 81q-35 45 -35 89v25q0 85 55 85q54 0 54 -85v-35h-38v59z" />
    <glyph glyph-name="sterling" unicode="&#xa3;" horiz-adv-x="1861" 
d="M1014 740q0 22 -17 22q-16 0 -16 -22v-53q0 -12 8.5 -30.5t26.5 -41.5q36 -48 36 -81v-35q0 -84 -55 -84t-55 84v48h39v-72q0 -22 16 -22q17 0 17 22v45q0 35 -36 82q-36 45 -36 89v24q0 86 55 86t55 -86v-35h-38v60zM1121 415h-38v386h60q64 0 64 -89v-15q0 -89 -64 -89
h-22v-193zM1143 646q25 0 25 27v63q0 26 -25 26h-22v-116h22zM1270 453h60v-38h-99v386h99v-39h-60v-131h34v-39h-34v-139zM1431 547h38v-48q0 -84 -57 -84q-58 0 -58 84v216q0 86 58 86q57 0 57 -85v-36h-38v60q0 22 -19 22t-19 -22v-265q0 -22 19 -22t19 22v72zM1497 415
v386h38v-386h-38zM1551 415l51 386h39l51 -386h-39l-7 58h-49l-7 -58h-39zM1602 514h39l-14 108l-6 69l-5 -68zM1746 453h60v-38h-98v386h38v-348zM50 0l51 386h39l52 -386h-40l-6 57h-50l-7 -57h-39zM101 99h39l-13 108l-6 69l-6 -68zM245 0h-38v386h59q65 0 65 -89v-15
q0 -89 -64 -89h-22v-193zM267 231q25 0 25 26v64q0 26 -26 26h-21v-116h22zM394 0h-38v386h58q64 0 64 -89v-15q0 -89 -63 -89h-21v-193zM415 231q25 0 25 26v64q0 26 -26 26h-20v-116h21zM543 38h58v-38h-97v386h97v-39h-58v-131h34v-38h-34v-140zM612 0l50 386h39l51 -386
h-39l-7 57h-49l-7 -57h-38zM662 99h39l-13 108l-6 69l-6 -68zM806 0h-38v386h60q64 0 64 -81v-43q0 -52 -30 -76l29 -186h-39l-25 178h-21v-178zM828 216q25 0 25 26v79q0 26 -25 26h-22v-131h22zM899 0l52 386h39l51 -386h-39l-8 57h-49l-6 -57h-40zM951 99h38l-13 108
l-6 69l-6 -68zM1097 226l-6 52v-278h-35v386h46l40 -220l7 -58v278h35v-386h-46zM1292 132h37v-47q0 -85 -56 -85q-58 0 -58 85v215q0 86 58 86q56 0 56 -86v-35h-37v60q0 22 -19 22t-19 -22v-264q0 -23 19 -23t19 23v71zM1396 38h60v-38h-98v386h98v-39h-60v-131h34v-38
h-34v-140zM1656 262q0 -50 -28 -66q28 -14 28 -65v-46q0 -85 -58 -85h-58v386h58q58 0 58 -86v-38zM1617 325q0 22 -19 22h-19v-131h19q19 0 19 22v87zM1617 155q0 21 -19 23h-19v-140h19q19 0 19 23v94zM1721 0v165l-50 221h39l23 -120l8 -52l7 52l23 120h40l-51 -221v-165
h-39z" />
    <glyph glyph-name="currency" unicode="&#xa4;" horiz-adv-x="1672" 
d="M1006 738q0 23 -19 23t-19 -23v-58h-39v35q0 85 58 85q57 0 57 -85v-39q0 -51 -23 -65q23 -14 23 -66v-47q0 -84 -57 -84q-58 0 -58 84v47v2h39v-71q0 -23 19 -23t19 23v94q0 21 -19 21h-12v39h14q17 0 17 23v85zM1191 498q0 -84 -58 -84h-58v386h58q58 0 58 -85v-217z
M1152 738q0 23 -19 23h-19v-308h19q19 0 19 23v262zM1358 547h36v-49q0 -84 -56 -84q-58 0 -58 84v217q0 85 58 85q56 0 56 -85v-35h-36v58q0 23 -20 23q-19 0 -19 -23v-262q0 -23 19 -23q20 0 20 23v71zM1481 591h59v-177l-19 27q-11 -27 -40 -27q-58 0 -58 84v217
q0 85 58 85q59 0 59 -85v-35h-37v58q0 23 -22 23q-20 0 -20 -23v-262q0 -23 19 -23q23 0 23 23v77h-22v38zM1567 414v386h40v-386h-40zM121 324q0 23 -16 23q-17 0 -17 -23v-52q0 -24 36 -72q35 -47 35 -81v-34q0 -85 -54 -85q-55 0 -55 85v47h38v-72q0 -21 17 -21
q16 0 16 21v45q0 36 -36 81q-35 47 -35 90v24q0 85 55 85q54 0 54 -85v-34h-38v58zM229 39h59v-39h-99v385h99v-38h-59v-131h33v-39h-33v-138zM428 85q0 -75 -46 -83q-1 -22 14 -24q16 -1 32 8v-27q-32 -14 -51 -3t-19 46q-45 7 -45 83v215q0 85 58 85q57 0 57 -85v-215z
M389 324q0 23 -18 23q-19 0 -19 -23v-264q0 -21 19 -21q18 0 18 21v264zM536 385h39v-300q0 -85 -58 -85t-58 85v300h39v-325q0 -21 19 -21t19 21v325zM644 39h59v-39h-98v385h98v-38h-59v-131h34v-39h-34v-138zM770 226l-7 51v-277h-35v385h46l39 -219l8 -59v278h35v-385
h-46zM963 132h38v-48q0 -84 -57 -84t-57 85v215q0 85 57 85t57 -85v-34h-38v58q0 23 -19 23t-19 -23v-264q0 -21 19 -21t19 21v72zM1067 39h60v-39h-98v385h98v-38h-60v-131h34v-39h-34v-138zM1223 324q0 23 -16 23t-16 -23v-52q0 -25 35 -72t35 -81v-34q0 -85 -54 -85
q-55 0 -55 85v47h39v-72q0 -21 16 -21t16 21v45q0 37 -35 81q-36 46 -36 90v24q0 85 55 85q54 0 54 -85v-34h-38v58zM1466 262q0 -52 -26 -66q26 -14 26 -65v-46q0 -85 -56 -85h-59v385h59q56 0 56 -85v-38zM1429 324q0 23 -19 23h-20v-131h20q19 0 19 22v86zM1429 155
q0 20 -19 22h-20v-138h20q19 0 19 21v95zM1533 0v164l-51 221h40l23 -118l7 -52l7 52l23 118h40l-51 -221v-164h-38z" />
    <glyph glyph-name="yen" unicode="&#xa5;" horiz-adv-x="1408" 
d="M495 498q0 -84 -58 -84t-58 84v217q0 85 58 85t58 -85v-217zM457 738q0 23 -20 23t-20 -23v-262q0 -23 20 -23t20 23v262zM563 414h-37v386h58q65 0 65 -82v-42q0 -54 -30 -75l29 -187h-39l-25 177h-21v-177zM585 631q25 0 25 25v79q0 26 -26 26h-21v-130h22zM672 414
v386h39v-386h-39zM800 591h58v-177l-18 27q-13 -27 -41 -27q-57 0 -57 84v217q0 85 58 85q59 0 59 -85v-35h-37v58q0 23 -22 23q-20 0 -20 -23v-262q0 -23 19 -23q22 0 22 23v77h-21v38zM886 414v386h39v-386h-39zM997 641l-8 52v-279h-34v386h46l40 -220l8 -59v279h34v-386
h-46zM1099 414l51 386h38l52 -386h-40l-7 59h-48l-7 -59h-39zM1150 513h37l-12 109l-7 69l-4 -68zM1293 453h60v-39h-98v386h38v-347zM126 132h38v-48q0 -84 -57 -84t-57 85v215q0 85 57 85t57 -85v-34h-38v58q0 23 -19 23q-18 0 -18 -23v-264q0 -21 18 -21q19 0 19 21v72z
M308 85q0 -85 -58 -85t-58 85v215q0 85 58 85t58 -85v-215zM269 324q0 23 -19 23t-19 -23v-264q0 -21 19 -21t19 21v264zM380 226l-7 51v-277h-35v385h46l40 -219l8 -59v278h35v-385h-47zM573 132h38v-48q0 -84 -57 -84q-56 0 -56 85v215q0 85 56 85q57 0 57 -85v-34h-38v58
q0 23 -19 23t-19 -23v-264q0 -21 19 -21t19 21v72zM678 39h60v-39h-99v385h99v-38h-60v-131h34v-39h-34v-138zM801 0h-40v385h61q63 0 63 -88v-16q0 -88 -63 -88h-21v-193zM822 231q25 0 25 26v63q0 27 -25 27h-21v-116h21zM896 385h115v-38h-38v-347h-37v347h-40v38z
M1203 262q0 -53 -28 -66q28 -13 28 -65v-46q0 -85 -57 -85h-58v385h58q57 0 57 -85v-38zM1165 324q0 23 -19 23h-20v-131h20q19 0 19 22v86zM1165 155q0 20 -19 22h-20v-138h20q19 0 19 21v95zM1269 0v164l-50 221h39l24 -118l6 -52l7 52l23 118h40l-50 -221v-164h-39z" />
    <glyph glyph-name="brokenbar" unicode="&#xa6;" horiz-adv-x="833" 
d="M109 414v386h56l25 -208l6 -69l6 68l26 209h58v-386h-35v302l-5 -46l-34 -256h-32l-33 260l-3 41v-301h-35zM301 414l52 386h38l51 -386h-39l-8 59h-48l-6 -59h-40zM353 513h37l-13 109l-6 69l-5 -68zM426 800h116v-39h-38v-347h-39v347h-39v39zM545 800h115v-39h-38
v-347h-39v347h-38v39zM716 453h59v-39h-98v386h98v-39h-59v-131h34v-39h-34v-138zM50 0l52 385h39l50 -385h-38l-8 58h-49l-6 -58h-40zM102 99h38l-13 109l-6 68l-6 -68zM245 0h-38v385h59q65 0 65 -81v-42q0 -54 -30 -76l29 -186h-40l-24 177h-21v-177zM267 216q24 0 24 26
v78q0 27 -25 27h-21v-131h22zM340 385h115v-38h-39v-347h-38v347h-38v38zM472 0v385h38v-385h-38zM612 324q0 23 -17 23q-15 0 -15 -23v-52q0 -25 34 -72q36 -47 36 -81v-34q0 -85 -55 -85q-54 0 -54 85v47h39v-72q0 -21 15 -21q17 0 17 21v45q0 35 -35 81q-36 46 -36 90v24
q0 85 54 85q55 0 55 -85v-34h-38v58zM667 385h116v-38h-38v-347h-38v347h-40v38z" />
    <glyph glyph-name="section" unicode="&#xa7;" horiz-adv-x="1060" 
d="M220 738q0 22 -17 22q-16 0 -16 -22v-52q0 -23 35 -72q36 -48 36 -82v-34q0 -84 -55 -84q-54 0 -54 84v49h38v-71q0 -22 16 -22q17 0 17 22v43q0 35 -36 82q-35 45 -35 90v24q0 85 54 85q55 0 55 -85v-35h-38v58zM327 414h-39v386h60q64 0 64 -90v-15q0 -88 -64 -88h-21
v-193zM348 645q26 0 26 27v63q0 26 -26 26h-21v-116h21zM476 453h59v-39h-97v386h97v-39h-59v-131h33v-39h-33v-138zM637 547h36v-49q0 -84 -55 -84q-59 0 -59 84v217q0 85 59 85q55 0 55 -85v-35h-36v58q0 23 -19 23q-20 0 -20 -23v-262q0 -23 20 -23q19 0 19 23v71z
M702 414v386h38v-386h-38zM755 414l51 386h40l51 -386h-38l-8 59h-49l-7 -59h-40zM806 513h40l-13 109l-6 69l-7 -68zM951 453h59v-39h-99v386h40v-347zM50 0v385h56l25 -207l7 -68l6 67l26 208h57v-385h-35v301l-4 -45l-34 -256h-32l-34 259l-3 41v-300h-35zM243 0l50 385
h39l51 -385h-39l-8 58h-49l-6 -58h-38zM293 99h39l-14 109l-6 68l-6 -68zM399 0v385h38v-175l11 34l45 141h41l-64 -188l68 -197h-41l-49 152l-11 34v-186h-38zM593 39h59v-39h-97v385h97v-38h-59v-131h34v-39h-34v-138zM813 385h39v-300q0 -85 -58 -85t-58 85v300h39v-325
q0 -21 19 -21t19 21v325zM921 0h-38v385h59q63 0 63 -88v-16q0 -88 -63 -88h-21v-193zM942 231q25 0 25 26v63q0 27 -25 27h-21v-116h21z" />
    <glyph glyph-name="dieresis" unicode="&#xa8;" horiz-adv-x="2390" 
d="M50 0v385h38v-385h-38zM160 226l-6 52v-278h-35v385h46l39 -220l7 -58v278h35v-385h-46zM321 0l51 385h39l51 -385h-39l-7 58h-50l-6 -58h-39zM372 99h39l-14 108l-6 69l-6 -68zM548 324q0 23 -16 23q-17 0 -17 -23v-52q0 -25 36 -73q35 -45 35 -81v-34q0 -84 -54 -84
q-55 0 -55 84v48h38v-72q0 -22 17 -22q16 0 16 22v45q0 37 -35 81q-36 45 -36 90v24q0 85 55 85q54 0 54 -85v-35h-38v59zM688 324q0 23 -16 23t-16 -23v-52q0 -25 36 -73q35 -47 35 -81v-34q0 -84 -55 -84q-54 0 -54 84v48h38v-72q0 -22 16 -22t16 22v45q0 35 -35 81
t-35 90v24q0 85 54 85q55 0 55 -85v-35h-39v59zM873 84q0 -84 -58 -84q-57 0 -57 84v216q0 85 57 85q58 0 58 -85v-216zM835 324q0 23 -20 23q-18 0 -18 -23v-264q0 -22 18 -22q20 0 20 22v264zM981 132h37v-48q0 -84 -56 -84q-58 0 -58 84v216q0 85 58 85q56 0 56 -84v-36
h-37v59q0 23 -19 23t-19 -23v-264q0 -22 19 -22t19 22v72zM1047 0v385h38v-385h-38zM1101 0l51 385h38l51 -385h-39l-7 58h-49l-7 -58h-38zM1152 99h38l-14 108l-6 69l-6 -68zM1226 385h116v-38h-39v-347h-39v347h-38v38zM1358 0v385h39v-385h-39zM1543 84q0 -84 -58 -84
q-57 0 -57 84v216q0 85 57 85q58 0 58 -85v-216zM1504 324q0 23 -19 23t-19 -23v-264q0 -22 19 -22t19 22v264zM1615 226l-7 52v-278h-35v385h46l40 -220l8 -58v278h34v-385h-46zM2022 385l-51 -385h-35l-32 245l-31 -245h-35l-51 385h39l25 -208l7 -68l5 68l26 208h31
l26 -208l6 -68l6 68l25 208h39zM2038 0v385h38v-385h-38zM2093 385h115v-38h-38v-347h-39v347h-38v38zM2263 215h39v170h38v-385h-38v177h-39v-177h-38v385h38v-170z" />
    <glyph glyph-name="copyright" unicode="&#xa9;" horiz-adv-x="414" 
d="M219 691q0 17 -16 17q-14 0 -14 -17v-103q0 -18 14 -18q16 0 16 18v18h30v-6q0 -60 -46 -60q-44 0 -44 60v79q0 60 44 60q46 0 46 -60v-10h-30v22zM75 642q0 -27 10.5 -51t28 -41.5t41.5 -28t51 -10.5t50.5 10.5t41.5 28t28.5 41.5t10.5 51t-10.5 50.5t-28.5 41.5
t-41.5 28.5t-50.5 10.5t-51 -10.5t-41.5 -28.5t-28 -41.5t-10.5 -50.5zM50 642q0 32 12 60.5t33.5 50.5t49.5 34.5t61 12.5q32 0 60.5 -12.5t50.5 -34.5t34.5 -50.5t12.5 -60.5q0 -33 -12.5 -61t-34.5 -49.5t-50.5 -33.5t-60.5 -12q-33 0 -61 12t-49.5 33.5t-33.5 49.5
t-12 61z" />
    <glyph glyph-name="ordfeminine" unicode="&#xaa;" horiz-adv-x="1456" 
d="M474 415v385h57l25 -208l6 -68l6 68l26 208h57v-385h-34v301l-5 -46l-34 -255h-32l-33 258l-4 43v-301h-35zM721 454h59v-39h-98v385h98v-38h-59v-131h34v-39h-34v-138zM920 499q0 -84 -57 -84h-58v385h58q57 0 57 -85v-216zM883 740q0 22 -20 22h-19v-308h19q20 0 20 21
v265zM952 415v385h38v-385h-38zM1098 547h36v-48q0 -84 -55 -84q-58 0 -58 84v216q0 85 58 85q55 0 55 -85v-35h-36v60q0 22 -19 22t-19 -22v-265q0 -21 19 -21t19 21v72zM1148 415l51 385h39l51 -385h-38l-8 57h-49l-6 -57h-40zM1199 514h39l-14 109l-6 68l-5 -68z
M1343 454h60v-39h-98v385h38v-346zM127 132h36v-47q0 -85 -55 -85q-58 0 -58 85v216q0 84 58 84q55 0 55 -84v-36h-36v60q0 21 -19 21t-19 -21v-265q0 -22 19 -22t19 22v72zM308 85q0 -85 -57 -85q-59 0 -59 85v216q0 84 59 84q57 0 57 -84v-216zM270 325q0 21 -19 21
q-20 0 -20 -21v-265q0 -22 20 -22q19 0 19 22v265zM380 226l-6 52v-278h-35v385h46l39 -219l9 -59v278h34v-385h-46zM569 325q0 21 -16 21t-16 -21v-53q0 -25 35 -72q36 -48 36 -82v-33q0 -85 -55 -85t-55 85v47h39v-72q0 -22 16 -22t16 22v44q0 39 -36 82q-35 47 -35 90v25
q0 84 55 84t55 -84v-36h-39v60zM716 385h39v-300q0 -85 -59 -85q-57 0 -57 85v300h38v-325q0 -22 19 -22q20 0 20 22v325zM824 38h59v-38h-98v385h39v-347zM890 385h116v-39h-39v-346h-39v346h-38v39zM990 0l50 385h40l50 -385h-39l-7 58h-49l-7 -58h-38zM1040 99h39
l-13 108l-6 69l-7 -68zM1188 226l-8 52v-278h-34v385h46l40 -219l7 -59v278h35v-385h-46zM1291 385h115v-39h-38v-346h-38v346h-39v39z" />
    <glyph glyph-name="guillemotleft" unicode="&#xab;" horiz-adv-x="1029" 
d="M50 415v385h57l25 -208l6 -68l7 68l25 208h58v-385h-35v301l-4 -46l-34 -255h-32l-34 258l-4 43v-301h-35zM298 454h58v-39h-97v385h97v-38h-58v-131h33v-39h-33v-138zM498 499q0 -84 -59 -84h-58v385h58q59 0 59 -85v-216zM459 740q0 22 -20 22h-19v-308h19q20 0 20 21
v265zM528 415v385h39v-385h-39zM675 547h37v-48q0 -84 -56 -84q-59 0 -59 84v216q0 85 59 85q56 0 56 -85v-35h-37v60q0 22 -20 22q-19 0 -19 -22v-265q0 -21 19 -21q20 0 20 21v72zM725 415l51 385h39l51 -385h-39l-7 57h-50l-6 -57h-39zM776 514h38l-12 109l-7 68l-6 -68z
M920 454h59v-39h-97v385h38v-346zM52 0l51 385h39l51 -385h-38l-8 58h-49l-7 -58h-39zM103 99h39l-13 108l-7 69l-5 -68zM324 85q0 -85 -58 -85h-57v385h57q58 0 58 -84v-216zM286 325q0 21 -20 21h-19v-308h19q20 0 20 22v265zM481 385l-51 -385h-40l-50 385h39l25 -208
l6 -68l6 68l26 208h39zM497 0v385h38v-385h-38zM637 325q0 21 -16 21t-16 -21v-53q0 -12 8.5 -30.5t26.5 -41.5q36 -48 36 -82v-33q0 -85 -55 -85t-55 85v47h39v-72q0 -22 16 -22t16 22v44q0 37 -36 82q-35 47 -35 90v25q0 84 55 84t55 -84v-36h-39v60zM822 85
q0 -85 -58 -85t-58 85v216q0 84 58 84t58 -84v-216zM784 325q0 21 -20 21q-19 0 -19 -21v-265q0 -22 19 -22q20 0 20 22v265zM892 0h-39v385h59q64 0 64 -81v-42q0 -53 -29 -77l28 -185h-38l-25 177h-20v-177zM912 216q26 0 26 26v79q0 25 -26 25h-20v-130h20z" />
    <glyph glyph-name="logicalnot" unicode="&#xac;" horiz-adv-x="2390" 
d="M50 416v385h38v-385h-38zM160 642l-6 52v-278h-35v385h46l39 -220l7 -58v278h35v-385h-46zM321 416l51 385h39l51 -385h-39l-7 58h-50l-6 -58h-39zM372 515h39l-14 108l-6 69l-6 -68zM548 740q0 23 -16 23q-17 0 -17 -23v-52q0 -25 36 -73q35 -45 35 -81v-34
q0 -84 -54 -84q-55 0 -55 84v48h38v-72q0 -22 17 -22q16 0 16 22v45q0 37 -35 81q-36 45 -36 90v24q0 85 55 85q54 0 54 -85v-35h-38v59zM688 740q0 23 -16 23t-16 -23v-52q0 -25 36 -73q35 -47 35 -81v-34q0 -84 -55 -84q-54 0 -54 84v48h38v-72q0 -22 16 -22t16 22v45
q0 35 -35 81t-35 90v24q0 85 54 85q55 0 55 -85v-35h-39v59zM873 500q0 -84 -58 -84q-57 0 -57 84v216q0 85 57 85q58 0 58 -85v-216zM835 740q0 23 -20 23q-18 0 -18 -23v-264q0 -22 18 -22q20 0 20 22v264zM981 548h37v-48q0 -84 -56 -84q-58 0 -58 84v216q0 85 58 85
q56 0 56 -84v-36h-37v59q0 23 -19 23t-19 -23v-264q0 -22 19 -22t19 22v72zM1047 416v385h38v-385h-38zM1101 416l51 385h38l51 -385h-39l-7 58h-49l-7 -58h-38zM1152 515h38l-14 108l-6 69l-6 -68zM1226 801h116v-38h-39v-347h-39v347h-38v38zM1358 416v385h39v-385h-39z
M1543 500q0 -84 -58 -84q-57 0 -57 84v216q0 85 57 85q58 0 58 -85v-216zM1504 740q0 23 -19 23t-19 -23v-264q0 -22 19 -22t19 22v264zM1615 642l-7 52v-278h-35v385h46l40 -220l8 -58v278h34v-385h-46zM2022 801l-51 -385h-35l-32 245l-31 -245h-35l-51 385h39l25 -208
l7 -68l5 68l26 208h31l26 -208l6 -68l6 68l25 208h39zM2038 416v385h38v-385h-38zM2093 801h115v-38h-38v-347h-39v347h-38v38zM2263 631h39v170h38v-385h-38v177h-39v-177h-38v385h38v-170z" />
    <glyph glyph-name="registered" unicode="&#xae;" horiz-adv-x="2162" 
d="M303 585l15 121h33l-37 -270h-27l-20 149l-19 -149h-28l-37 270h32l16 -120l4 -58l5 57l15 121h24l15 -120l5 -58zM395 436l-38 270h32l14 -120l7 -58l3 57l16 121h32l-36 -270q-2 -16 -7 -28t-15 -20q-6 -8 -17 -12t-24 -4v32q25 3 33 32zM480 706h31v-12q12 12 28 12
q35 0 35 -64v-142q0 -64 -35 -64q-22 0 -28 11v-75h-31v334zM543 488v167q0 18 -15 18q-17 0 -17 -18v-167q0 -20 17 -20q15 0 15 20zM635 488q0 -20 15 -20q17 0 17 20v51h31v-39q0 -64 -48 -64q-47 0 -47 64v142q0 64 47 64q48 0 48 -64v-77h-63v-77zM635 597h32v58
q0 18 -17 18q-15 0 -15 -18v-58zM787 706v-40q-7 7 -13 7q-15 0 -15 -18v-219h-32v270h32v-10q3 10 28 10zM859 656q0 19 -12 19q-13 0 -13 -19v-25q0 -20 28 -57q31 -36 31 -70q0 -68 -45 -68t-45 70v12h31v-33q0 -18 14 -18q13 0 13 18v25q0 22 -29 54t-29 74q0 68 44 68
t44 -68v-23h-32v41zM984 563q9 4 15 9l6 4t5 4v37q0 12 -10 12q-8 0 -8 -12v-32h-21v24q0 42 29 42q31 0 31 -42v-100q0 -12 15 -12q18 0 18 12v136q0 43 -65 43q-61 0 -61 -43v-163q0 -38 46 -41h91v-20h-84q-75 0 -75 50v167q0 73 84 73t84 -73v-123q0 -39 -37 -39
q-17 0 -27 12q-5 -12 -22 -12q-30 0 -30 43v11q0 11 4.5 18.5t11.5 14.5zM996 546q-6 -6 -6 -18v-19q0 -12 9 -12q11 0 11 12v45q-5 -2 -8 -4zM1159 404q15 0 15 19v31q-5 -12 -26 -12q-37 0 -37 65v135q0 64 37 64q14 0 26 -12v12h33v-270q0 -64 -48 -64q-41 0 -47 49h31
q0 -17 16 -17zM1159 475q15 0 15 16v164q0 18 -15 18q-16 0 -16 -18v-162q0 -18 16 -18zM1346 673q-16 0 -16 -18v-219h-32v219q0 18 -15 18t-15 -18v-219h-32v270h32v-10q3 10 25 10q17 0 30 -18q10 18 33 18q36 0 36 -64v-206h-31v219q0 18 -15 18zM1446 569q7 4 12 8
l10 8q4 4 8 7t8 5v58q0 18 -14 18q-13 0 -13 -18v-49h-32v36q0 64 45 64q46 0 46 -64v-206h-32v11q-8 -11 -25 -11q-38 0 -38 64v21q0 30 25 48zM1473 551q-2 -2 -5.5 -4t-5.5 -4q-8 -10 -8 -25v-30q0 -20 14 -20q16 0 16 20v69q-2 -2 -5.5 -3t-5.5 -3zM1576 751h-31v49h31
v-49zM1576 436h-31v270h31v-270zM1601 800h32v-364h-32v364zM1652 480h33v-44h-33v44zM1758 673q-17 0 -17 -18v-167q0 -20 17 -20q15 0 15 20v51h32v-39q0 -64 -47 -64q-49 0 -49 64v142q0 64 49 64q47 0 47 -64v-36h-32v49q0 18 -15 18zM1926 500q0 -64 -47 -64
q-48 0 -48 64v142q0 64 48 64q47 0 47 -64v-142zM1894 655q0 18 -15 18q-16 0 -16 -18v-167q0 -20 16 -20q15 0 15 20v167zM2065 673q-16 0 -16 -18v-219h-31v219q0 18 -16 18q-17 0 -17 -18v-219h-29v270h29l1 -10q7 10 26 10q20 0 31 -18q8 18 32 18q37 0 37 -64v-206h-31
v219q0 18 -16 18zM170 157l14 120h32l-35 -270h-28l-19 148l-20 -148h-29l-35 270h32l15 -120l5 -58l5 58l15 120h24l15 -120l3 -58zM342 157l15 120h32l-35 -270h-29l-20 148l-19 -148h-28l-35 270h31l15 -120l4 -58l6 58l15 120h22l16 -120l5 -58zM515 157l14 120h33
l-35 -270h-29l-21 148l-20 -148h-27l-35 270h32l14 -120l5 -58l6 58l14 120h23l16 -120l5 -58zM573 50h32v-43h-32v43zM617 277h13v93h32v-93h14v-33h-14v-187q0 -17 17 -17v-33q-49 0 -49 65v172h-13v33zM760 277v-40q-3 7 -11 7q-15 0 -15 -19v-218h-32v270h32v-11
q3 11 26 11zM805 140q13 9 21 15q9 7 18 11v59q0 19 -15 19q-14 0 -14 -19v-50h-31v39q0 63 45 63q46 0 46 -63v-207h-31v12q-8 -12 -26 -12q-38 0 -38 65v19q0 17 6.5 28.5t18.5 20.5zM832 121q-3 -2 -5.5 -3t-4.5 -3q-9 -9 -9 -27v-31q0 -18 13 -18q18 0 18 18v71
q-6 -1 -12 -7zM951 244q-16 0 -16 -19v-168q0 -18 16 -18q15 0 15 18v51h32v-36q0 -65 -47 -65q-48 0 -48 65v142q0 63 48 63q47 0 47 -63v-39h-32v50q0 19 -15 19zM1056 57q0 -18 16 -18q17 0 17 18v51h31v-36q0 -65 -48 -65q-47 0 -47 65v142q0 63 47 63q48 0 48 -63v-79
h-64v-78zM1056 169h33v56q0 20 -17 20q-16 0 -16 -20v-56zM1208 277v-40q-3 7 -11 7q-16 0 -16 -19v-218h-31v270h31v-11q5 11 27 11zM1216 277h13v93h31v-93h14v-33h-14v-187q0 -17 16 -17v-33q-47 0 -47 65v172h-13v33zM1382 72q0 -65 -48 -65t-48 65v142q0 63 48 63
t48 -63v-142zM1349 225q0 19 -15 19q-16 0 -16 -19v-168q0 -18 16 -18q15 0 15 18v168zM1458 244q-15 0 -15 -19v-218h-31v270h31v-11q5 11 25 11q37 0 37 -63v-207h-32v218q0 19 -15 19zM1580 -25q19 0 19 18v31q-9 -11 -29 -11q-35 0 -35 64v137q0 63 35 63q15 0 29 -13
v13h30v-270q0 -64 -49 -64q-19 0 -31 12.5t-14 35.5h30q2 -16 15 -16zM1581 45q16 0 18 17v163q0 20 -18 20q-16 0 -16 -20v-162q0 -8 4 -13t12 -5zM1652 50h33v-43h-33v43zM1758 244q-17 0 -17 -19v-168q0 -18 17 -18q15 0 15 18v51h32v-36q0 -65 -47 -65q-49 0 -49 65v142
q0 63 49 63q47 0 47 -63v-39h-32v50q0 19 -15 19zM1926 72q0 -65 -47 -65q-48 0 -48 65v142q0 63 48 63q47 0 47 -63v-142zM1894 225q0 19 -15 19q-16 0 -16 -19v-168q0 -18 16 -18q15 0 15 18v168zM2065 244q-16 0 -16 -19v-218h-31v218q0 19 -16 19q-17 0 -17 -19v-218
h-29v270h29l1 -11q8 11 26 11q20 0 31 -17q8 17 32 17q37 0 37 -63v-207h-31v218q0 19 -16 19z" />
    <glyph glyph-name="degree" unicode="&#xb0;" horiz-adv-x="1369" 
d="M50 417l51 385h38l52 -385h-40l-6 58h-49l-7 -58h-39zM101 516h38l-12 108l-7 69l-6 -68zM277 742q0 21 -17 21q-15 0 -15 -21v-53q0 -27 35 -72q35 -49 35 -81v-34q0 -85 -55 -85q-54 0 -54 85v47h39v-71q0 -22 15 -22q17 0 17 22v44q0 36 -35 81q-36 45 -36 90v25
q0 84 54 84q55 0 55 -84v-36h-38v60zM418 742q0 21 -17 21q-16 0 -16 -21v-53q0 -25 35 -72q36 -48 36 -81v-34q0 -85 -55 -85t-55 85v47h39v-71q0 -22 16 -22q17 0 17 22v44q0 34 -36 81q-36 45 -36 90v25q0 84 55 84t55 -84v-36h-38v60zM602 502q0 -85 -57 -85
q-58 0 -58 85v216q0 84 58 84q57 0 57 -84v-216zM564 742q0 21 -19 21t-19 -21v-264q0 -22 19 -22t19 22v264zM710 549h37v-47q0 -85 -56 -85q-58 0 -58 85v216q0 84 58 84q56 0 56 -84v-36h-37v60q0 21 -19 21t-19 -21v-264q0 -22 19 -22t19 22v71zM776 417v385h37v-385
h-37zM829 417l51 385h39l51 -385h-39l-7 58h-49l-7 -58h-39zM880 516h39l-14 108l-6 69l-6 -68zM955 802h115v-39h-38v-346h-38v346h-39v39zM1125 456h59v-39h-97v385h97v-39h-59v-130h35v-39h-35v-138zM1281 742q0 21 -17 21q-16 0 -16 -21v-53q0 -25 35 -72q36 -48 36 -81
v-34q0 -85 -55 -85t-55 85v47h39v-71q0 -22 16 -22q17 0 17 22v44q0 34 -36 81q-36 45 -36 90v25q0 84 55 84t55 -84v-36h-38v60z" />
    <glyph glyph-name="plusminus" unicode="&#xb1;" horiz-adv-x="1457" 
d="M429 415v385h57l25 -207l7 -68l5 68l26 207h58v-385h-35v302l-5 -46l-33 -256h-32l-34 259l-4 43v-302h-35zM637 415v385h39v-385h-39zM745 453h59v-38h-97v385h38v-347zM826 415v385h38v-385h-38zM881 800h115v-38h-38v-347h-39v347h-38v38zM980 415l51 385h39l51 -385
h-39l-7 58h-50l-6 -58h-39zM1031 514h38l-12 109l-7 69l-6 -68zM1175 415h-38v385h59q64 0 64 -80v-43q0 -52 -29 -76l28 -186h-39l-24 178h-21v-178zM1197 631q25 0 25 27v78q0 26 -26 26h-21v-131h22zM1319 415v165l-51 220h39l24 -118l7 -52l7 52l23 118h39l-50 -220
v-165h-38zM127 133h36v-48q0 -85 -55 -85q-58 0 -58 85v216q0 84 58 84q55 0 55 -83v-36h-36v60q0 21 -19 21q-20 0 -20 -22v-264q0 -23 20 -23q19 0 19 23v72zM308 85q0 -85 -58 -85q-57 0 -57 85v216q0 84 57 84q58 0 58 -84v-216zM270 325q0 22 -20 22q-19 0 -19 -22
v-264q0 -23 19 -23q20 0 20 23v264zM380 227l-6 51v-278h-35v385h47l39 -219l7 -58v277h35v-385h-46zM569 325q0 22 -16 22q-17 0 -17 -22v-52q0 -25 36 -73q36 -47 36 -81v-34q0 -85 -55 -85t-55 85v48h38v-72q0 -22 17 -22q16 0 16 22v44q0 35 -35 82q-36 46 -36 90v24
q0 84 55 84t55 -84v-35h-39v59zM716 385h38v-300q0 -85 -58 -85q-57 0 -57 85v300h38v-324q0 -23 19 -23q20 0 20 23v324zM824 38h59v-38h-98v385h39v-347zM890 385h116v-38h-39v-347h-39v347h-38v38zM989 0l52 385h38l51 -385h-39l-7 58h-49l-7 -58h-39zM1041 99h38
l-13 109l-7 69l-5 -68zM1187 227l-6 51v-278h-35v385h46l40 -219l7 -58v277h35v-385h-46zM1290 385h116v-38h-38v-347h-38v347h-40v38z" />
    <glyph glyph-name="twosuperior" unicode="&#xb2;" horiz-adv-x="1078" 
d="M50 415v385h56l26 -207l6 -68l5 68l26 207h58v-385h-35v302l-4 -46l-34 -256h-32l-34 259l-4 43v-302h-34zM257 415v385h40v-385h-40zM365 453h60v-38h-98v385h38v-347zM446 415v385h38v-385h-38zM501 800h116v-38h-38v-347h-40v347h-38v38zM600 415l52 385h38l52 -385
h-39l-7 58h-50l-7 -58h-39zM652 514h38l-13 109l-6 69l-6 -68zM796 415h-39v385h59q64 0 64 -80v-43q0 -52 -29 -76l28 -186h-38l-25 178h-20v-178zM817 631q25 0 25 27v78q0 26 -26 26h-20v-131h21zM939 415v165l-51 220h40l23 -118l8 -52l7 52l22 118h40l-50 -220v-165
h-39zM96 0l51 385h39l51 -385h-39l-8 58h-49l-6 -58h-39zM147 99h38l-12 109l-7 69l-6 -68zM368 85q0 -85 -58 -85h-57v385h57q58 0 58 -84v-216zM330 325q0 22 -20 22h-19v-309h19q20 0 20 23v264zM525 385l-52 -385h-38l-52 385h40l25 -207l6 -68l6 68l26 207h39zM540 0
v385h39v-385h-39zM680 325q0 22 -16 22t-16 -22v-52q0 -25 36 -73q35 -47 35 -81v-34q0 -85 -55 -85q-54 0 -54 85v48h38v-72q0 -22 16 -22t16 22v44q0 37 -35 82q-35 47 -35 90v24q0 84 54 84q55 0 55 -84v-35h-39v59zM866 85q0 -85 -58 -85t-58 85v216q0 84 58 84t58 -84
v-216zM828 325q0 22 -20 22t-20 -22v-264q0 -23 20 -23t20 23v264zM936 0h-40v385h60q64 0 64 -80v-43q0 -54 -30 -75l29 -187h-39l-25 178h-19v-178zM956 216q26 0 26 27v78q0 26 -26 26h-20v-131h20z" />
    <glyph glyph-name="threesuperior" unicode="&#xb3;" horiz-adv-x="1456" 
d="M549 800l-50 -385h-36l-32 246l-30 -246h-36l-52 385h39l26 -207l6 -68l6 68l26 207h31l26 -207l6 -68l5 68l26 207h39zM603 453h59v-38h-97v385h97v-38h-59v-131h34v-38h-34v-140zM672 415l51 385h39l51 -385h-39l-8 58h-49l-6 -58h-39zM723 514h39l-13 109l-7 69
l-6 -68zM867 415h-38v385h59q64 0 64 -88v-15q0 -89 -63 -89h-22v-193zM889 647q25 0 25 26v63q0 26 -26 26h-21v-115h22zM1092 500q0 -85 -57 -85q-58 0 -58 85v216q0 84 58 84q57 0 57 -84v-216zM1054 740q0 22 -19 22q-20 0 -20 -22v-264q0 -23 20 -23q19 0 19 23v264z
M1165 642l-7 51v-278h-35v385h47l39 -219l8 -58v277h35v-385h-47zM1354 740q0 22 -17 22q-16 0 -16 -22v-52q0 -24 35 -73q36 -47 36 -81v-34q0 -85 -55 -85t-55 85v48h39v-72q0 -22 16 -22q17 0 17 22v44q0 36 -36 81q-17 24 -26.5 46t-9.5 45v24q0 84 55 84t55 -84v-35
h-38v59zM127 133h37v-48q0 -85 -56 -85q-58 0 -58 85v216q0 84 58 84q56 0 56 -83v-36h-37v60q0 21 -19 21q-20 0 -20 -22v-264q0 -23 20 -23q19 0 19 23v72zM308 85q0 -85 -57 -85q-58 0 -58 85v216q0 84 58 84q57 0 57 -84v-216zM269 325q0 22 -18 22q-20 0 -20 -22v-264
q0 -23 20 -23q18 0 18 23v264zM380 227l-6 51v-278h-35v385h46l40 -219l8 -58v277h34v-385h-46zM569 325q0 22 -16 22q-17 0 -17 -22v-52q0 -23 36 -73q36 -47 36 -81v-34q0 -85 -55 -85t-55 85v48h38v-72q0 -22 17 -22q16 0 16 22v44q0 37 -36 82q-35 47 -35 90v24
q0 84 55 84t55 -84v-35h-39v59zM716 385h38v-300q0 -85 -57 -85q-58 0 -58 85v300h38v-324q0 -23 20 -23q19 0 19 23v324zM823 38h60v-38h-98v385h38v-347zM890 385h116v-38h-39v-347h-38v347h-39v38zM989 0l51 385h39l51 -385h-39l-7 58h-49l-7 -58h-39zM1040 99h39
l-14 109l-6 69l-5 -68zM1187 227l-7 51v-278h-34v385h46l39 -219l8 -58v277h34v-385h-45zM1291 385h115v-38h-38v-347h-39v347h-38v38z" />
    <glyph glyph-name="acute" unicode="&#xb4;" horiz-adv-x="1186" 
d="M286 800l-51 -385h-36l-32 246l-30 -246h-36l-51 385h39l25 -207l7 -68l6 68l25 207h31l26 -207l6 -68l6 68l26 207h39zM339 453h60v-38h-98v385h98v-38h-60v-131h34v-38h-34v-140zM408 415l52 385h38l52 -385h-39l-7 58h-50l-7 -58h-39zM460 514h38l-13 109l-6 69
l-6 -68zM603 415h-38v385h59q64 0 64 -88v-15q0 -89 -63 -89h-22v-193zM625 647q25 0 25 26v63q0 26 -26 26h-21v-115h22zM829 500q0 -85 -58 -85t-58 85v216q0 84 58 84t58 -84v-216zM791 740q0 22 -20 22q-19 0 -19 -22v-264q0 -23 19 -23q20 0 20 23v264zM901 642l-7 51
v-278h-34v385h46l39 -219l8 -58v277h35v-385h-46zM1090 740q0 22 -16 22t-16 -22v-52q0 -26 35 -73q35 -45 35 -81v-34q0 -85 -54 -85q-55 0 -55 85v48h39v-72q0 -22 16 -22t16 22v44q0 36 -36 81q-17 24 -26 46t-9 45v24q0 84 55 84q54 0 54 -84v-35h-38v59zM212 0l51 385
h39l51 -385h-39l-8 58h-49l-6 -58h-39zM263 99h39l-14 109l-6 69l-6 -68zM484 85q0 -85 -58 -85h-57v385h57q58 0 58 -84v-216zM446 325q0 22 -20 22h-19v-309h19q20 0 20 23v264zM641 385l-52 -385h-38l-52 385h39l26 -207l6 -68l6 68l26 207h39zM656 0v385h38v-385h-38z
M796 325q0 22 -16 22t-16 -22v-52q0 -25 36 -73q35 -47 35 -81v-34q0 -85 -55 -85q-54 0 -54 85v48h38v-72q0 -22 16 -22t16 22v44q0 37 -35 82t-35 90v24q0 84 54 84q55 0 55 -84v-35h-39v59zM982 85q0 -85 -58 -85t-58 85v216q0 84 58 84t58 -84v-216zM943 325
q0 22 -19 22t-19 -22v-264q0 -23 19 -23t19 23v264zM1051 0h-38v385h59q64 0 64 -80v-43q0 -52 -29 -75l28 -187h-39l-24 178h-21v-178zM1073 216q25 0 25 27v78q0 26 -26 26h-21v-131h22z" />
    <glyph glyph-name="mu" unicode="&#xb5;" horiz-adv-x="955" 
d="M191 800l-51 -385h-39l-51 385h39l26 -207l5 -68l6 68l26 207h39zM245 453h59v-38h-97v385h97v-38h-59v-131h34v-38h-34v-140zM368 631h39v169h38v-385h-38v178h-39v-178h-39v385h39v-169zM476 415v385h39v-385h-39zM623 548h36v-48q0 -85 -56 -85q-58 0 -58 85v216
q0 84 58 84q56 0 56 -83v-36h-36v60q0 21 -20 21t-20 -22v-264q0 -23 20 -23t20 23v72zM726 453h60v-38h-98v385h38v-347zM845 453h60v-38h-99v385h99v-38h-60v-131h34v-38h-34v-140zM261 85q0 -85 -58 -85h-57v385h57q58 0 58 -84v-216zM223 325q0 22 -20 22h-19v-309h19
q20 0 20 23v264zM331 38h59v-38h-98v385h98v-38h-59v-131h34v-38h-34v-140zM486 325q0 22 -16 22t-16 -22v-52q0 -24 35 -73q35 -45 35 -81v-34q0 -85 -54 -85t-54 85v48h38v-72q0 -22 16 -22t16 22v44q0 35 -36 82q-34 46 -34 90v24q0 84 54 84t54 -84v-35h-38v59zM556 0
v385h38v-385h-38zM683 178h59v-178l-19 26q-11 -26 -40 -26q-58 0 -58 85v216q0 84 58 84q60 0 60 -83v-36h-37v60q0 21 -23 21q-19 0 -19 -22v-264q0 -23 19 -23q22 0 22 23v78h-22v39zM812 227l-7 51v-278h-35v385h46l39 -219l9 -58v277h34v-385h-46z" />
    <glyph glyph-name="paragraph" unicode="&#xb6;" horiz-adv-x="1039" 
d="M286 800l-50 -385h-36l-32 246l-30 -246h-36l-52 385h40l25 -207l7 -68l5 68l26 207h31l26 -207l6 -68l6 68l25 207h39zM340 453h59v-38h-97v385h97v-38h-59v-131h34v-38h-34v-140zM409 415l51 385h39l51 -385h-38l-8 58h-50l-6 -58h-39zM460 514h39l-13 109l-7 69
l-6 -68zM604 415h-38v385h59q64 0 64 -88v-15q0 -89 -63 -89h-22v-193zM626 647q25 0 25 26v63q0 26 -26 26h-21v-115h22zM829 500q0 -85 -57 -85q-58 0 -58 85v216q0 84 58 84q57 0 57 -84v-216zM791 740q0 22 -19 22t-19 -22v-264q0 -23 19 -23t19 23v264zM902 642l-7 51
v-278h-34v385h46l39 -219l8 -58v277h35v-385h-46zM352 85q0 -85 -58 -85h-58v385h58q58 0 58 -84v-216zM313 325q0 22 -19 22h-20v-309h20q19 0 19 23v264zM421 38h59v-38h-98v385h98v-38h-59v-131h34v-38h-34v-140zM577 325q0 22 -16 22q-17 0 -17 -22v-52q0 -24 35 -73
q36 -45 36 -81v-34q0 -85 -54 -85q-56 0 -56 85v48h39v-72q0 -22 17 -22q16 0 16 22v44q0 35 -36 82q-36 46 -36 90v24q0 84 56 84q54 0 54 -84v-35h-38v59zM646 0v385h39v-385h-39zM774 178h59v-178l-19 26q-12 -26 -41 -26q-57 0 -57 85v216q0 84 58 84q59 0 59 -83v-36
h-37v60q0 21 -22 21q-20 0 -20 -22v-264q0 -23 19 -23q22 0 22 23v78h-21v39zM902 227l-7 51v-278h-34v385h46l39 -219l8 -58v277h35v-385h-46z" />
    <glyph glyph-name="periodcentered" unicode="&#xb7;" horiz-adv-x="1513" 
d="M89 415h-39v386h59q65 0 65 -88v-16q0 -89 -64 -89h-21v-193zM110 647q26 0 26 26v64q0 26 -27 26h-20v-116h21zM237 415h-38v386h59q65 0 65 -81v-42q0 -55 -30 -77l29 -186h-40l-24 178h-21v-178zM259 632q25 0 25 26v79q0 26 -26 26h-21v-131h22zM462 500
q0 -85 -58 -85t-58 85v216q0 85 58 85t58 -85v-216zM423 741q0 22 -19 22t-19 -22v-265q0 -23 19 -23t19 23v265zM564 741q0 21 -17 21q-16 0 -16 -21v-53q0 -25 36 -73q35 -45 35 -82v-33q0 -85 -55 -85q-54 0 -54 85v48h38v-72q0 -22 16 -22q17 0 17 22v44q0 35 -36 82
q-35 47 -35 90v24q0 85 54 85q55 0 55 -85v-35h-38v60zM620 801h116v-38h-39v-348h-39v348h-38v38zM791 632h38v169h39v-386h-39v178h-38v-178h-38v386h38v-169zM937 453h60v-38h-98v386h98v-38h-60v-131h35v-39h-35v-140zM1009 801h115v-38h-39v-348h-38v348h-38v38z
M1141 415v386h39v-386h-39zM1287 548h37v-48q0 -85 -56 -85q-57 0 -57 85v216q0 85 57 85q56 0 56 -85v-35h-37v60q0 22 -19 22t-19 -22v-265q0 -23 19 -23t19 23v72zM1424 741q0 21 -16 21t-16 -21v-53q0 -27 36 -73q35 -47 35 -82v-33q0 -85 -55 -85t-55 85v48h39v-72
q0 -22 16 -22t16 22v44q0 35 -35 82q-17 23 -26.5 45t-9.5 45v24q0 85 55 85t55 -85v-35h-39v60zM825 85q0 -85 -58 -85h-57v386h57q58 0 58 -85v-216zM787 325q0 22 -20 22h-19v-309h19q20 0 20 22v265zM895 38h59v-38h-98v386h99v-39h-60v-132h33v-37h-33v-140zM1050 325
q0 22 -16 22t-16 -22v-53q0 -26 36 -72q35 -47 35 -82v-33q0 -85 -55 -85t-55 85v47h39v-72q0 -22 16 -22t16 22v45q0 35 -35 82q-36 47 -36 89v25q0 85 55 85t55 -85v-35h-39v59zM1120 0v386h38v-386h-38zM1247 178h60v-178l-19 25q-10 -25 -41 -25q-57 0 -57 85v216
q0 85 58 85q59 0 59 -85v-35h-37v59q0 22 -22 22q-19 0 -19 -22v-265q0 -22 18 -22q23 0 23 22v79h-23v39zM1376 226l-6 52v-278h-35v386h46l39 -220l9 -59v279h34v-386h-46z" />
    <glyph glyph-name="cedilla" unicode="&#xb8;" horiz-adv-x="1392" 
d="M89 415h-39v386h59q64 0 64 -88v-16q0 -89 -64 -89h-20v-193zM109 647q26 0 26 26v64q0 26 -26 26h-20v-116h20zM237 415h-39v386h60q64 0 64 -81v-42q0 -55 -30 -77l29 -186h-39l-25 178h-20v-178zM258 632q25 0 25 26v79q0 26 -25 26h-21v-131h21zM462 500
q0 -85 -59 -85q-58 0 -58 85v216q0 85 58 85q59 0 59 -85v-216zM423 741q0 22 -20 22q-19 0 -19 -22v-265q0 -23 19 -23q20 0 20 23v265zM563 741q0 21 -16 21t-16 -21v-53q0 -24 35 -73q36 -47 36 -82v-33q0 -85 -55 -85t-55 85v48h39v-72q0 -22 16 -22t16 22v44
q0 37 -35 82q-36 46 -36 90v24q0 85 55 85t55 -85v-35h-39v60zM619 801h116v-38h-38v-348h-39v348h-39v38zM791 632h38v169h38v-386h-38v178h-38v-178h-39v386h39v-169zM937 453h60v-38h-98v386h98v-38h-60v-131h34v-39h-34v-140zM1093 741q0 21 -17 21q-16 0 -16 -21v-53
q0 -25 36 -73q35 -47 35 -82v-33q0 -85 -55 -85q-54 0 -54 85v48h38v-72q0 -22 16 -22q17 0 17 22v44q0 35 -36 82q-35 47 -35 90v24q0 85 54 85q55 0 55 -85v-35h-38v60zM1163 415v386h38v-386h-38zM1303 741q0 21 -16 21t-16 -21v-53q0 -24 35 -73q36 -47 36 -82v-33
q0 -85 -55 -85t-55 85v48h39v-72q0 -22 16 -22t16 22v44q0 37 -35 82q-36 46 -36 90v24q0 85 55 85t55 -85v-35h-39v60zM704 85q0 -85 -58 -85h-57v386h57q58 0 58 -85v-216zM665 325q0 22 -19 22h-19v-309h19q19 0 19 22v265zM773 38h60v-38h-98v386h98v-39h-60v-132h35
v-37h-35v-140zM929 325q0 22 -16 22t-16 -22v-53q0 -23 35 -72q36 -47 36 -82v-33q0 -85 -55 -85t-55 85v47h39v-72q0 -22 16 -22t16 22v45q0 37 -36 82q-35 46 -35 89v25q0 85 55 85t55 -85v-35h-39v59zM999 0v386h38v-386h-38zM1127 178h59v-178l-19 25q-12 -25 -40 -25
q-59 0 -59 85v216q0 85 59 85t59 -85v-35h-37v59q0 22 -22 22q-20 0 -20 -22v-265q0 -22 20 -22q21 0 21 22v79h-21v39zM1255 226l-7 52v-278h-34v386h46l40 -220l7 -59v279h35v-386h-46z" />
    <glyph glyph-name="onesuperior" unicode="&#xb9;" horiz-adv-x="1040" 
d="M169 414v385h56l26 -207l6 -68l6 67l25 208h58v-385h-35v301l-4 -46l-34 -255h-32l-34 259l-3 42v-301h-35zM492 498q0 -84 -58 -84q-57 0 -57 84v216q0 85 57 85q58 0 58 -85v-216zM453 738q0 23 -19 23q-18 0 -18 -23v-263q0 -22 18 -22q19 0 19 22v263zM509 799h116
v-38h-39v-347h-38v347h-39v38zM641 414v385h39v-385h-39zM826 498q0 -84 -57 -84q-58 0 -58 84v216q0 85 58 85q57 0 57 -85v-216zM787 738q0 23 -18 23q-20 0 -20 -23v-263q0 -22 20 -22q18 0 18 22v263zM898 640l-6 52v-278h-35v385h46l40 -220l7 -57v277h35v-385h-47z
M127 132h37v-48q0 -84 -56 -84q-58 0 -58 84v216q0 85 58 85q56 0 56 -85v-35h-37v59q0 23 -20 23q-18 0 -18 -23v-264q0 -21 18 -21q20 0 20 21v72zM178 0l50 385h39l52 -385h-40l-7 57h-49l-7 -57h-38zM228 99h38l-12 108l-6 69l-7 -69zM372 0h-38v385h59q64 0 64 -89v-15
q0 -89 -64 -89h-21v-192zM393 231q25 0 25 26v64q0 26 -25 26h-21v-116h21zM468 385h115v-38h-38v-347h-39v347h-38v38zM677 385h39v-301q0 -84 -58 -84t-58 84v301h38v-325q0 -21 20 -21q19 0 19 21v325zM785 0h-39v385h59q64 0 64 -81v-43q0 -53 -30 -75l29 -186h-38
l-25 177h-20v-177zM806 216q25 0 25 26v79q0 26 -26 26h-20v-131h21zM931 39h59v-39h-97v385h97v-38h-59v-131h34v-39h-34v-138z" />
    <glyph glyph-name="ordmasculine" unicode="&#xba;" horiz-adv-x="1184" 
d="M528 738q0 23 -16 23t-16 -23v-52q0 -25 36 -73q35 -47 35 -80v-35q0 -84 -55 -84t-55 84v48h39v-71q0 -22 16 -22t16 22v44q0 36 -35 81q-36 47 -36 90v24q0 85 55 85t55 -85v-35h-39v59zM584 799h116v-38h-39v-347h-38v347h-39v38zM832 498q0 -84 -58 -84q-57 0 -57 84
v216q0 85 57 85q58 0 58 -85v-216zM793 738q0 23 -19 23t-19 -23v-263q0 -22 19 -22t19 22v263zM901 414h-39v385h60q63 0 63 -80v-43q0 -54 -29 -76l29 -186h-39l-24 177h-21v-177zM923 630q25 0 25 26v79q0 26 -26 26h-21v-131h22zM1045 414v164l-52 221h40l23 -119l8 -51
l7 51l22 119h41l-52 -221v-164h-37zM165 261q0 -52 -27 -65q27 -14 27 -65v-47q0 -84 -58 -84h-57v385h57q58 0 58 -85v-39zM127 324q0 23 -20 23h-19v-131h20q19 0 19 21v87zM127 154q0 21 -19 23h-20v-138h19q20 0 20 21v94zM311 84q0 -84 -58 -84q-57 0 -57 84v216
q0 85 57 85q58 0 58 -85v-216zM273 324q0 23 -20 23q-18 0 -18 -23v-264q0 -21 18 -21q20 0 20 21v264zM327 0l50 385h40l51 -385h-39l-8 57h-48l-7 -57h-39zM377 99h39l-13 108l-6 69l-6 -69zM522 0h-39v385h60q63 0 63 -81v-43q0 -52 -29 -75l28 -186h-38l-25 177h-20
v-177zM543 216q25 0 25 26v79q0 26 -25 26h-21v-131h21zM745 84q0 -84 -58 -84h-57v385h57q58 0 58 -85v-216zM707 324q0 23 -20 23h-19v-308h19q20 0 20 21v264zM776 0v385h39v-385h-39zM887 226l-7 52v-278h-35v385h46l40 -220l8 -58v278h34v-385h-46zM1062 177h59v-177
l-19 26q-11 -26 -40 -26q-58 0 -58 84v216q0 85 59 85q58 0 58 -85v-35h-37v59q0 23 -22 23q-19 0 -19 -23v-264q0 -21 19 -21q22 0 22 21v79h-22v38z" />
    <glyph glyph-name="guillemotright" unicode="&#xbb;" horiz-adv-x="1259" 
d="M746 414h-37v385h97v-38h-59v-131h34v-39h-35v-177zM829 414v385h38v-385h-38zM936 453h59v-39h-97v385h38v-346zM1016 414v385h56l26 -207l6 -68l6 67l25 208h59v-385h-35v301l-5 -46l-34 -255h-31l-34 259l-4 42v-301h-35zM88 39h59v-39h-97v385h97v-38h-59v-131h34
v-39h-34v-138zM288 84q0 -84 -58 -84h-57v385h57q58 0 58 -85v-216zM250 324q0 23 -20 23h-19v-308h19q20 0 20 21v264zM319 0v385h39v-385h-39zM375 385h115v-38h-39v-347h-39v347h-37v38zM507 0v385h38v-385h-38zM617 226l-7 52v-278h-34v385h46l39 -220l8 -58v278h34
v-385h-45zM792 177h60v-177l-19 26q-12 -26 -41 -26q-57 0 -57 84v216q0 85 57 85q60 0 60 -85v-35h-37v59q0 23 -23 23q-19 0 -19 -23v-264q0 -21 19 -21q22 0 22 21v79h-22v38zM1054 261q0 -52 -27 -65q27 -14 27 -65v-47q0 -84 -58 -84h-57v385h57q58 0 58 -85v-39z
M1015 324q0 23 -19 23h-20v-131h20q19 0 19 21v87zM1015 154q0 22 -19 23h-20v-138h20q19 0 19 21v94zM1120 0v164l-51 221h39l24 -119l7 -52l7 52l23 119h40l-51 -221v-164h-38z" />
    <glyph glyph-name="onequarter" unicode="&#xbc;" horiz-adv-x="841" 
d="M166 499q0 -84 -57 -84h-59v385h59q57 0 57 -85v-216zM127 739q0 23 -18 23h-20v-309h20q18 0 18 22v264zM197 415v385h38v-385h-38zM251 415l51 385h39l51 -385h-39l-8 58h-49l-5 -58h-40zM302 514h39l-13 108l-7 69l-5 -67zM445 453h61v-38h-98v385h37v-347zM642 499
q0 -84 -58 -84t-58 84v216q0 85 58 85t58 -85v-216zM603 739q0 23 -19 23q-20 0 -20 -23v-264q0 -22 20 -22q19 0 19 22v264zM730 592h61v-177l-21 26q-9 -26 -40 -26q-58 0 -58 84v216q0 85 59 85q60 0 60 -85v-34h-39v58q0 23 -21 23t-21 -23v-264q0 -22 20 -22
q22 0 22 22v80h-22v37zM175 134h37v-48q0 -86 -56 -86q-58 0 -58 86v215q0 84 58 84q56 0 56 -84v-36h-37v60q0 22 -19 22t-19 -22v-263q0 -24 19 -24t19 24v72zM356 86q0 -86 -58 -86t-58 86v215q0 84 58 84t58 -84v-215zM318 325q0 22 -20 22q-18 0 -18 -22v-263
q0 -24 18 -24q20 0 20 24v263zM371 0l52 385h39l52 -385h-40l-8 58h-48l-7 -58h-40zM423 99h39l-14 109l-6 69l-5 -68zM605 134h37v-48q0 -86 -55 -86q-58 0 -58 86v215q0 84 58 84q55 0 55 -84v-36h-37v60q0 22 -18 22q-21 0 -21 -22v-263q0 -24 21 -24q18 0 18 24v72z
M710 215h38v170h39v-385h-39v178h-38v-178h-39v385h39v-170z" />
    <glyph glyph-name="onehalf" unicode="&#xbd;" horiz-adv-x="1112" 
d="M166 499q0 -84 -58 -84h-58v385h58q58 0 58 -85v-216zM126 739q0 23 -18 23h-19v-309h19q18 0 18 22v264zM197 415v385h38v-385h-38zM251 415l51 385h39l52 -385h-40l-7 58h-50l-7 -58h-38zM302 514h38l-12 108l-6 69l-7 -67zM446 453h59v-38h-98v385h39v-347zM641 499
q0 -84 -57 -84q-59 0 -59 84v216q0 85 59 85q57 0 57 -85v-216zM602 739q0 23 -18 23q-20 0 -20 -23v-264q0 -22 20 -22q18 0 18 22v264zM730 592h59v-177l-18 26q-12 -26 -41 -26q-58 0 -58 84v216q0 85 59 85t59 -85v-34h-38v58q0 23 -22 23q-20 0 -20 -23v-264
q0 -22 20 -22q22 0 22 22v80h-22v37zM895 800h38v-301q0 -84 -59 -84q-56 0 -56 84v301h37v-325q0 -22 19 -22q21 0 21 22v325zM1001 453h60v-38h-97v385h98v-38h-61v-131h35v-39h-35v-139zM445 134h36v-48q0 -86 -56 -86q-58 0 -58 86v215q0 84 58 84q56 0 56 -84v-36h-36
v60q0 22 -20 22q-19 0 -19 -22v-263q0 -24 19 -24q20 0 20 24v72zM625 86q0 -86 -57 -86q-58 0 -58 86v215q0 84 58 84q57 0 57 -84v-215zM588 325q0 22 -20 22t-20 -22v-263q0 -24 20 -24t20 24v263zM641 0l51 385h39l51 -385h-39l-8 58h-49l-6 -58h-39zM692 99h38l-12 109
l-7 69l-6 -68zM874 134h38v-48q0 -86 -57 -86q-56 0 -56 86v215q0 84 56 84q57 0 57 -84v-36h-38v60q0 22 -19 22t-19 -22v-263q0 -24 19 -24t19 24v72zM978 215h40v170h38v-385h-38v178h-40v-178h-38v385h38v-170z" />
    <glyph glyph-name="threequarters" unicode="&#xbe;" horiz-adv-x="383" 
d="M50 415l51 385h39l51 -385h-39l-7 57h-49l-7 -57h-39zM101 514h39l-13 108l-7 69l-5 -68zM248 641l-7 51v-277h-35v385h46l40 -219l7 -58v277h34v-385h-45z" />
    <glyph glyph-name="questiondown" unicode="&#xbf;" horiz-adv-x="1437" 
d="M88 414h-38v385h59q65 0 65 -89v-15q0 -89 -64 -89h-22v-192zM110 645q25 0 25 26v63q0 27 -26 27h-21v-116h22zM237 414h-38v385h59q63 0 63 -81v-42q0 -55 -29 -77l29 -185h-39l-25 177h-20v-177zM258 630q26 0 26 26v78q0 27 -26 27h-21v-131h21zM461 499
q0 -85 -58 -85t-58 85v215q0 85 58 85t58 -85v-215zM422 738q0 23 -19 23q-20 0 -20 -23v-264q0 -22 20 -22q19 0 19 22v264zM606 499q0 -85 -57 -85h-58v385h58q57 0 57 -85v-215zM568 738q0 23 -19 23h-18v-309h18q19 0 19 22v264zM715 799h37v-300q0 -85 -57 -85
q-58 0 -58 85v300h39v-325q0 -22 19 -22q20 0 20 22v325zM861 546h36v-47q0 -85 -55 -85q-59 0 -59 85v215q0 85 59 85q55 0 55 -85v-35h-36v59q0 23 -20 23q-19 0 -19 -23v-264q0 -22 19 -22q20 0 20 22v72zM912 799h115v-38h-38v-347h-38v347h-39v38zM1044 414v385h40
v-385h-40zM1229 499q0 -85 -58 -85t-58 85v215q0 85 58 85t58 -85v-215zM1190 738q0 23 -19 23t-19 -23v-264q0 -22 19 -22t19 22v264zM1301 640l-7 51v-277h-34v385h45l41 -219l7 -58v277h34v-385h-45z" />
    <glyph glyph-name="Agrave" unicode="&#xc0;" horiz-adv-x="1221" 
d="M360 548h37v-48q0 -85 -57 -85q-58 0 -58 85v216q0 86 58 86q57 0 57 -85v-36h-37v60q0 22 -20 22t-20 -22v-265q0 -22 20 -22t20 22v72zM503 802h38v-302q0 -85 -58 -85t-58 85v302h39v-326q0 -22 19 -22q20 0 20 22v326zM643 741q0 22 -17 22q-16 0 -16 -22v-53
q0 -25 36 -73q36 -47 36 -81v-34q0 -85 -56 -85q-54 0 -54 85v48h38v-72q0 -22 16 -22q17 0 17 22v45q0 37 -35 82q-36 45 -36 89v24q0 86 54 86q56 0 56 -86v-35h-39v60zM699 802h116v-39h-39v-348h-38v348h-39v39zM947 500q0 -85 -58 -85q-57 0 -57 85v216q0 86 57 86
q58 0 58 -86v-216zM909 741q0 22 -20 22q-19 0 -19 -22v-265q0 -22 19 -22q20 0 20 22v265zM978 415v387h57l25 -209l7 -68l6 68l25 209h58v-387h-35v303l-5 -47l-34 -256h-32l-33 259l-4 43v-302h-35zM89 38h59v-38h-98v386h39v-348zM154 0l50 386h39l52 -386h-40l-6 57
h-50l-7 -57h-38zM204 99h39l-13 109l-6 68l-6 -67zM324 0v165l-51 221h40l23 -119l7 -52l7 52l23 119h40l-51 -221v-165h-38zM544 85q0 -85 -58 -85t-58 85v216q0 85 58 85t58 -85v-216zM506 326q0 22 -20 22q-19 0 -19 -22v-265q0 -23 19 -23q20 0 20 23v265zM652 386h39
v-301q0 -85 -58 -85t-58 85v301h39v-325q0 -23 19 -23t19 23v325zM708 386h116v-38h-39v-348h-38v348h-39v38zM1015 262q0 -52 -27 -65q27 -14 27 -66v-46q0 -85 -57 -85h-58v386h58q57 0 57 -85v-39zM977 326q0 22 -19 22h-20v-132h20q19 0 19 23v87zM977 156q0 21 -19 22
h-20v-140h20q19 0 19 23v95zM1082 0v165l-50 221h39l23 -119l7 -52l8 52l22 119h40l-50 -221v-165h-39z" />
    <glyph glyph-name="Aacute" unicode="&#xc1;" horiz-adv-x="1222" 
d="M89 415h-39v384h97v-38h-58v-131h33v-38h-33v-177zM209 453h58v-38h-97v384h97v-38h-58v-131h34v-38h-34v-139zM278 415l50 384h39l51 -384h-39l-7 57h-49l-7 -57h-38zM328 513h39l-14 109l-6 68l-5 -68zM403 799h115v-38h-39v-346h-38v346h-38v38zM611 799h39v-299
q0 -85 -57 -85q-58 0 -58 85v299h38v-324q0 -22 20 -22q18 0 18 22v324zM719 415h-38v384h59q64 0 64 -81v-42q0 -53 -29 -76l29 -185h-40l-24 177h-21v-177zM741 630q24 0 24 26v78q0 27 -25 27h-21v-131h22zM827 415v384h39v-384h-39zM938 641l-7 51v-277h-35v384h47
l39 -219l8 -58v277h34v-384h-46zM1113 592h59v-177l-19 26q-10 -26 -41 -26q-57 0 -57 85v215q0 84 58 84q59 0 59 -84v-35h-37v59q0 22 -22 22q-19 0 -19 -22v-264q0 -22 18 -22q23 0 23 22v78h-22v39z" />
    <glyph glyph-name="Acircumflex" unicode="&#xc2;" horiz-adv-x="1222" 
d="M89 1h-39v385h97v-39h-58v-131h33v-38h-33v-177zM209 39h58v-38h-97v385h97v-39h-58v-131h34v-38h-34v-139zM278 1l50 385h39l51 -385h-39l-7 58h-49l-7 -58h-38zM328 100h39l-14 108l-6 69l-5 -68zM403 386h115v-39h-39v-346h-38v346h-38v39zM611 386h39v-301
q0 -84 -57 -84q-58 0 -58 84v301h38v-325q0 -22 20 -22q18 0 18 22v325zM719 1h-38v385h59q64 0 64 -81v-43q0 -52 -29 -76l29 -185h-40l-24 177h-21v-177zM741 216q24 0 24 27v78q0 26 -25 26h-21v-131h22zM827 1v385h39v-385h-39zM938 226l-7 52v-277h-35v385h47l39 -220
l8 -58v278h34v-385h-46zM1113 178h59v-177l-19 26q-11 -26 -41 -26q-57 0 -57 84v216q0 85 58 85q59 0 59 -85v-35h-37v59q0 22 -22 22q-19 0 -19 -22v-264q0 -22 18 -22q23 0 23 22v79h-22v38z" />
    <glyph glyph-name="Atilde" unicode="&#xc3;" horiz-adv-x="1168" 
d="M88 1h-38v385h60q63 0 63 -88v-16q0 -88 -63 -88h-22v-193zM110 232q25 0 25 26v63q0 27 -25 27h-22v-116h22zM237 1h-39v385h59q65 0 65 -81v-42q0 -55 -30 -76l29 -186h-39l-25 177h-20v-177zM258 217q25 0 25 25v79q0 27 -26 27h-20v-131h21zM383 39h60v-38h-98v385
h98v-38h-60v-131h34v-39h-34v-139zM538 325q0 22 -16 22t-16 -22v-52q0 -25 36 -73q35 -47 35 -81v-34q0 -84 -55 -84t-55 84v48h39v-71q0 -23 16 -23t16 23v44q0 37 -35 81q-36 45 -36 89v25q0 85 55 85t55 -85v-35h-39v59zM646 39h60v-38h-98v385h98v-38h-60v-131h35v-39
h-35v-139zM773 227l-7 52v-278h-35v385h46l39 -220l8 -58v278h35v-385h-46zM876 386h115v-38h-39v-347h-38v347h-38v38zM1079 325q0 22 -17 22q-16 0 -16 -22v-52q0 -25 36 -73q36 -47 36 -81v-34q0 -84 -56 -84q-54 0 -54 84v48h38v-71q0 -23 16 -23q17 0 17 23v44
q0 37 -35 81q-36 45 -36 89v25q0 85 54 85q56 0 56 -85v-35h-39v59z" />
    <glyph glyph-name="Adieresis" unicode="&#xc4;" horiz-adv-x="1383" 
d="M88 1h-38v385h60q63 0 63 -88v-16q0 -88 -63 -88h-22v-193zM110 232q25 0 25 26v63q0 27 -25 27h-22v-116h22zM237 1h-39v385h59q65 0 65 -81v-42q0 -55 -30 -76l29 -186h-39l-25 177h-20v-177zM258 217q25 0 25 25v79q0 27 -26 27h-20v-131h21zM383 39h60v-38h-98v385
h98v-38h-60v-131h34v-39h-34v-139zM538 325q0 22 -16 22t-16 -22v-52q0 -25 36 -73q35 -47 35 -81v-34q0 -84 -55 -84t-55 84v48h39v-71q0 -23 16 -23t16 23v44q0 37 -35 81q-36 45 -36 89v25q0 85 55 85t55 -85v-35h-39v59zM646 39h60v-38h-98v385h98v-38h-60v-131h35v-39
h-35v-139zM773 227l-7 52v-278h-35v385h46l39 -220l8 -58v278h35v-385h-46zM876 386h115v-38h-39v-347h-38v347h-38v38zM1079 325q0 22 -17 22q-16 0 -16 -22v-52q0 -25 36 -73q36 -47 36 -81v-34q0 -84 -56 -84q-54 0 -54 84v48h38v-71q0 -23 16 -23q17 0 17 23v44
q0 37 -35 81q-36 45 -36 89v25q0 85 54 85q56 0 56 -85v-35h-39v59zM1192 1l51 385h39l51 -385h-39l-7 57h-49l-7 -57h-39zM1243 100h38l-12 108l-6 68l-6 -67z" />
    <glyph glyph-name="Aring" unicode="&#xc5;" horiz-adv-x="1526" 
d="M88 1h-38v385h59q64 0 64 -88v-16q0 -88 -64 -88h-21v-193zM110 232q24 0 24 26v64q0 26 -25 26h-21v-116h22zM236 1h-39v385h60q64 0 64 -81v-42q0 -55 -30 -76l29 -186h-39l-25 177h-20v-177zM257 217q26 0 26 25v80q0 26 -26 26h-21v-131h21zM383 39h59v-38h-97v385
h97v-38h-59v-131h33v-39h-33v-139zM538 325q0 22 -16 22t-16 -22v-52q0 -25 35 -72q36 -48 36 -81v-35q0 -84 -55 -84q-54 0 -54 84v48h38v-71q0 -23 16 -23t16 23v44q0 35 -35 81q-35 45 -35 89v25q0 85 54 85q55 0 55 -85v-35h-39v59zM647 39h59v-38h-99v385h99v-38h-59
v-131h33v-39h-33v-139zM772 227l-7 52v-278h-35v385h46l40 -220l8 -58v278h34v-385h-46zM875 386h116v-38h-38v-347h-39v347h-39v38zM1079 325q0 22 -16 22t-16 -22v-52q0 -25 35 -72q35 -49 35 -81v-35q0 -84 -54 -84q-55 0 -55 84v48h39v-71q0 -23 16 -23t16 23v44
q0 36 -36 81q-35 45 -35 89v25q0 85 55 85q54 0 54 -85v-35h-38v59zM1192 1l52 385h38l51 -385h-39l-7 57h-49l-7 -57h-39zM1244 100h38l-13 108l-7 68l-6 -67zM1390 227l-7 52v-278h-35v385h46l41 -220l7 -58v278h34v-385h-46z" />
    <glyph glyph-name="AE" unicode="&#xc6;" horiz-adv-x="1068" 
d="M50 415v387h57l25 -209l7 -68l5 68l26 209h58v-387h-35v303l-4 -47l-34 -256h-32l-33 259l-5 43v-302h-35zM244 415l51 387h39l51 -387h-39l-8 59h-48l-7 -59h-39zM295 515h38l-13 108l-6 69l-6 -68zM401 415v387h38v-176l11 34l46 142h41l-65 -188l68 -199h-41l-49 153
l-11 34v-187h-38zM596 454h59v-39h-98v387h98v-39h-59v-131h33v-39h-33v-139zM816 802h39v-302q0 -85 -58 -85t-58 85v302h39v-326q0 -22 19 -22t19 22v326zM925 415h-39v387h59q64 0 64 -89v-15q0 -89 -63 -89h-21v-194zM946 647q25 0 25 27v63q0 26 -26 26h-20v-116h21z
M283 0l51 386h39l51 -386h-39l-7 57h-50l-6 -57h-39zM334 99h39l-13 109l-7 68l-6 -67zM478 0h-39v386h60q64 0 64 -81v-43q0 -54 -30 -76l29 -186h-39l-25 178h-20v-178zM499 216q26 0 26 26v79q0 27 -26 27h-21v-132h21zM573 386h116v-38h-39v-348h-38v348h-39v38zM705 0
v386h39v-386h-39zM846 325q0 22 -16 22t-16 -22v-52q0 -25 36 -73q35 -49 35 -81v-34q0 -85 -55 -85t-55 85v48h39v-72q0 -23 16 -23t16 23v44q0 36 -36 81q-35 47 -35 90v25q0 85 55 85t55 -85v-35h-39v59zM902 386h116v-38h-38v-348h-39v348h-39v38z" />
    <glyph glyph-name="Ccedilla" unicode="&#xc7;" horiz-adv-x="1573" 
d="M230 741q0 22 -17 22q-16 0 -16 -22v-53q0 -24 36 -72q35 -47 35 -81v-34q0 -84 -55 -84q-54 0 -54 84v48h38v-72q0 -22 16 -22q17 0 17 22v45q0 35 -35 81q-36 45 -36 90v24q0 85 54 85q55 0 55 -85v-35h-38v59zM286 802h115v-39h-39v-346h-38v346h-38v39zM494 802h39
v-301q0 -84 -58 -84q-57 0 -57 84v301h38v-325q0 -22 19 -22t19 22v325zM605 642l-7 52v-277h-35v385h46l40 -220l8 -58v278h34v-385h-46zM708 802h116v-39h-38v-346h-39v346h-39v39zM924 802l-74 -385h-23l73 385h24zM980 417h-39v385h98v-39h-59v-131h34v-38h-34v-177z
M1062 417v385h38v-385h-38zM1189 594h59v-177l-19 25q-10 -25 -41 -25q-57 0 -57 84v216q0 85 58 85q59 0 59 -85v-35h-37v59q0 22 -22 22q-19 0 -19 -22v-264q0 -22 18 -22q23 0 23 22v79h-22v38zM1314 632h39v170h38v-385h-38v177h-39v-177h-39v385h39v-170zM1408 802h115
v-39h-38v-346h-39v346h-38v39zM127 135h36v-48q0 -84 -55 -84q-58 0 -58 84v216q0 85 58 85q55 0 55 -85v-35h-36v59q0 23 -20 23q-19 0 -19 -23v-264q0 -22 19 -22q20 0 20 22v72zM307 87q0 -84 -57 -84q-58 0 -58 84v216q0 85 58 85q57 0 57 -85v-216zM269 327
q0 23 -19 23t-19 -23v-264q0 -22 19 -22t19 22v264zM454 87q0 -84 -58 -84q-57 0 -57 84v216q0 85 57 85q58 0 58 -85v-216zM415 327q0 23 -19 23t-19 -23v-264q0 -22 19 -22t19 22v264zM523 3h-39v385h60q64 0 64 -81v-43q0 -53 -30 -75l29 -186h-39l-25 177h-20v-177z
M544 218q25 0 25 26v79q0 27 -25 27h-21v-132h21zM746 87q0 -84 -57 -84h-58v385h58q57 0 57 -85v-216zM708 327q0 23 -19 23h-20v-309h20q19 0 19 22v264zM777 3v385h38v-385h-38zM888 229l-7 52v-278h-35v385h46l40 -220l8 -58v278h34v-385h-46zM989 3l51 385h39l51 -385
h-39l-6 57h-50l-7 -57h-39zM1040 102h39l-13 108l-6 68l-6 -67zM1115 388h115v-38h-38v-347h-39v347h-38v38zM1362 87q0 -84 -57 -84q-58 0 -58 84v216q0 85 58 85q57 0 57 -85v-216zM1324 327q0 23 -19 23q-20 0 -20 -23v-264q0 -22 20 -22q19 0 19 22v264zM1432 3h-38v385
h58q64 0 64 -81v-43q0 -55 -29 -75l28 -186h-38l-25 177h-20v-177zM1453 218q25 0 25 26v79q0 27 -26 27h-20v-132h21z" />
    <glyph glyph-name="Egrave" unicode="&#xc8;" horiz-adv-x="1574" 
d="M285 800l-51 -385h-35l-32 245l-31 -245h-36l-50 385h38l26 -208l7 -68l5 68l25 208h32l26 -208l6 -68l5 68l26 208h39zM339 415h-38v385h58q64 0 64 -81v-42q0 -55 -30 -76l29 -186h-38l-25 177h-20v-177zM360 631q25 0 25 26v78q0 27 -26 27h-20v-131h21zM447 415v385
h38v-385h-38zM502 800h116v-38h-39v-347h-38v347h-39v38zM621 800h115v-38h-38v-347h-39v347h-38v38zM791 453h60v-38h-98v385h98v-38h-60v-131h34v-39h-34v-139zM917 641l-6 52v-278h-35v385h46l39 -220l8 -58v278h34v-385h-46zM1078 415l51 385h39l51 -385h-39l-7 58h-49
l-7 -58h-39zM1129 514h39l-14 108l-6 69l-6 -68zM1276 641l-7 52v-278h-35v385h46l40 -220l7 -58v278h35v-385h-46zM1509 499q0 -84 -58 -84h-58v385h58q58 0 58 -85v-216zM1470 740q0 22 -19 22h-19v-309h19q19 0 19 23v264zM295 85q0 -84 -57 -84h-58v385h58q57 0 57 -85
v-216zM257 326q0 22 -19 22h-19v-309h19q19 0 19 22v265zM326 1v385h38v-385h-38zM434 1h-38v385h59q64 0 64 -81v-42q0 -55 -30 -76l29 -186h-39l-24 177h-21v-177zM456 217q24 0 24 25v79q0 27 -25 27h-21v-131h22zM581 39h59v-38h-97v385h97v-38h-59v-131h34v-39h-34
v-139zM742 133h37v-48q0 -84 -56 -84q-58 0 -58 84v216q0 85 58 85q56 0 56 -85v-35h-37v60q0 22 -20 22q-18 0 -18 -22v-265q0 -22 18 -22q20 0 20 22v72zM794 386h115v-38h-38v-347h-39v347h-38v38zM964 39h59v-38h-97v385h97v-38h-59v-131h34v-39h-34v-139zM1164 85
q0 -84 -58 -84h-57v385h57q58 0 58 -85v-216zM1125 326q0 22 -19 22h-19v-309h19q19 0 19 22v265zM1369 263q0 -53 -27 -66q27 -14 27 -66v-46q0 -84 -58 -84h-57v385h57q58 0 58 -85v-38zM1331 326q0 22 -20 22h-19v-131h20q19 0 19 22v87zM1331 156q0 21 -19 22h-20v-139
h19q20 0 20 22v95zM1435 1v164l-51 221h40l23 -119l7 -52l8 52l22 119h40l-50 -221v-164h-39z" />
    <glyph glyph-name="Eacute" unicode="&#xc9;" horiz-adv-x="653" 
d="M285 801l-51 -385h-35l-32 245l-31 -245h-35l-51 385h39l25 -208l7 -68l5 68l26 208h31l26 -208l6 -68l6 68l25 208h39zM301 416v385h38v-385h-38zM356 801h115v-38h-38v-347h-39v347h-38v38zM526 631h39v170h38v-385h-38v177h-39v-177h-38v385h38v-170z" />
    <glyph glyph-name="Ecircumflex" unicode="&#xca;" horiz-adv-x="1162" 
d="M50 0l52 385h39l51 -385h-39l-7 57h-50l-6 -57h-40zM102 99h39l-14 108l-6 68l-6 -67zM305 0h-39v385h98v-38h-59v-131h34v-39h-34v-177zM387 0v385h39v-385h-39zM495 38h58v-38h-97v385h39v-347zM575 0v385h56l26 -208l6 -68l6 68l25 208h58v-385h-35v301l-5 -46
l-33 -255h-32l-34 258l-3 43v-301h-35zM957 262q0 -51 -27 -66q27 -14 27 -66v-46q0 -84 -57 -84h-58v385h58q57 0 57 -85v-38zM918 325q0 22 -18 22h-20v-131h20q18 0 18 22v87zM918 155q0 22 -18 22h-20v-139h20q18 0 18 23v94zM1023 0v165l-50 220h39l23 -119l8 -52l7 52
l22 119h40l-50 -220v-165h-39z" />
    <glyph glyph-name="Edieresis" unicode="&#xcb;" horiz-adv-x="2796" 
d="M1371 675q0 -26 -6 -42t-21 -24q15 -6 21 -22.5t6 -42.5v-46q0 -84 -57 -84h-58v385h58q57 0 57 -86v-38zM1333 738q0 21 -19 21h-19v-130h21q17 0 17 22v87zM1333 569q0 21 -17 23h-21v-139h19q19 0 19 21v95zM1387 414l51 385h40l49 -385h-38l-7 57h-49l-6 -57h-40z
M1438 513h39l-14 108l-6 68l-5 -68zM1615 737q0 22 -17 22q-16 0 -16 -22v-51q0 -25 35 -72q36 -48 36 -82v-34q0 -84 -55 -84q-54 0 -54 84v48h38v-72q0 -21 16 -21q17 0 17 21v45q0 34 -36 81q-18 23 -26.5 45.5t-8.5 43.5v24q0 86 54 86q55 0 55 -86v-33h-38v57z
M1723 453h59v-39h-98v385h98v-40h-59v-130h33v-37h-33v-139zM1922 498q0 -84 -58 -84h-57v385h57q58 0 58 -86v-215zM1883 738q0 21 -19 21h-20v-306h20q19 0 19 21v264zM2127 498q0 -84 -57 -84t-57 84v215q0 86 57 86t57 -86v-215zM2088 738q0 21 -18 21q-20 0 -20 -21
v-264q0 -21 20 -21q18 0 18 21v264zM2199 639l-7 52v-277h-35v385h47l39 -220l8 -58v278h35v-385h-46zM2362 799h116v-40h-40v-345h-38v345h-38v40zM2532 629h39v170h38v-385h-38v178h-39v-178h-38v385h38v-170zM2678 453h60v-39h-98v385h98v-40h-60v-130h34v-37h-34v-139z
M126 132h37v-48q0 -84 -56 -84q-57 0 -57 84v215q0 85 57 85q56 0 56 -85v-33h-37v58q0 22 -19 22q-20 0 -20 -22v-264q0 -22 20 -22q19 0 19 22v72zM231 216h37v168h39v-384h-39v177h-37v-177h-39v384h39v-168zM322 0l51 384h39l51 -384h-39l-8 58h-48l-6 -58h-40zM373 99
h38l-13 108l-6 68l-5 -68zM518 0h-39v384h59q63 0 63 -80v-43q0 -52 -28 -76l27 -185h-38l-24 177h-20v-177zM539 216q25 0 25 26v78q0 26 -26 26h-20v-130h21zM610 0l51 384h39l51 -384h-39l-7 58h-49l-7 -58h-39zM661 99h38l-12 108l-6 68l-6 -68zM842 132h37v-48
q0 -84 -55 -84q-58 0 -58 84v215q0 85 58 85q55 0 55 -85v-33h-37v58q0 22 -18 22t-18 -22v-264q0 -22 18 -22t18 22v72zM896 384h115v-38h-40v-346h-39v346h-36v38zM1064 38h61v-38h-98v384h98v-38h-61v-130h35v-39h-35v-139zM1188 0h-39v384h59q65 0 65 -80v-43
q0 -27 -8 -45.5t-22 -30.5l29 -185h-40l-24 177h-20v-177zM1209 216q25 0 25 26v78q0 26 -26 26h-20v-130h21zM1367 324q0 22 -16 22q-17 0 -17 -22v-53q0 -26 36 -72q36 -45 36 -81v-34q0 -84 -55 -84t-55 84v48h38v-72q0 -21 17 -21q16 0 16 21v45q0 34 -36 81
q-35 47 -35 89v24q0 85 55 85t55 -85v-34h-39v59zM1573 132h36v-48q0 -84 -56 -84q-57 0 -57 84v215q0 85 57 85q56 0 56 -85v-33h-36v58q0 22 -21 22q-19 0 -19 -22v-264q0 -22 19 -22q21 0 21 22v72zM1676 0h-38v384h59q63 0 63 -80v-43q0 -53 -29 -76l29 -185h-39
l-25 177h-20v-177zM1697 216q26 0 26 26v78q0 26 -26 26h-21v-130h21zM1823 38h58v-38h-97v384h97v-38h-58v-130h33v-39h-33v-139zM1893 0l50 384h39l51 -384h-40l-6 58h-49l-8 -58h-37zM1943 99h39l-14 108l-6 68l-6 -68zM2017 384h114v-38h-37v-346h-38v346h-39v38z
M2187 38h59v-38h-96v384h96v-38h-58v-130h34v-39h-35v-139zM2387 84q0 -84 -57 -84h-58v384h58q57 0 57 -85v-215zM2348 324q0 22 -18 22h-20v-308h20q18 0 18 22v264zM2593 261q0 -51 -28 -65q28 -16 28 -66v-46q0 -84 -59 -84h-56v384h56q59 0 59 -85v-38zM2553 324
q0 22 -19 22h-18v-130h18q19 0 19 21v87zM2553 154q0 22 -19 23h-18v-139h18q19 0 19 22v94zM2659 0v164l-51 220h40l23 -117l7 -53l6 53l24 117h39l-51 -220v-164h-37z" />
    <glyph glyph-name="Igrave" unicode="&#xcc;" horiz-adv-x="1257" 
d="M50 802h116v-39h-39v-348h-38v348h-39v39zM221 454h60v-39h-98v387h98v-39h-60v-131h35v-39h-35v-139zM383 548h37v-48q0 -85 -56 -85q-58 0 -58 85v216q0 86 58 86q56 0 56 -85v-36h-37v60q0 22 -19 22q-20 0 -20 -22v-265q0 -22 20 -22q19 0 19 22v72zM487 632h39v170
h39v-387h-39v178h-39v-178h-38v387h38v-170zM637 642l-6 52v-279h-35v387h46l39 -221l8 -58v279h35v-387h-46zM755 415v387h38v-387h-38zM902 548h37v-48q0 -85 -57 -85t-57 85v216q0 86 57 86t57 -85v-36h-37v60q0 22 -20 22q-19 0 -19 -22v-265q0 -22 19 -22q20 0 20 22
v72zM951 415l52 387h39l51 -387h-39l-7 59h-49l-7 -59h-40zM1003 515h39l-14 108l-6 69l-6 -68zM1147 454h60v-39h-98v387h38v-348zM278 0l51 386h39l52 -386h-40l-6 57h-50l-7 -57h-39zM329 99h39l-13 109l-6 68l-6 -67zM550 85q0 -85 -57 -85h-58v386h58q57 0 57 -85v-216
zM512 326q0 22 -19 22h-19v-310h19q19 0 19 23v265zM708 386l-52 -386h-39l-51 386h39l26 -208l6 -69l6 69l25 208h40zM723 0v386h39v-386h-39zM864 325q0 22 -17 22q-16 0 -16 -22v-52q0 -25 36 -73t36 -81v-34q0 -85 -56 -85q-55 0 -55 85v48h39v-72q0 -23 16 -23
q17 0 17 23v44q0 36 -36 81q-36 46 -36 90v25q0 85 55 85q56 0 56 -85v-35h-39v59zM1049 85q0 -85 -57 -85q-59 0 -59 85v216q0 85 59 85q57 0 57 -85v-216zM1010 326q0 22 -18 22q-20 0 -20 -22v-265q0 -23 20 -23q18 0 18 23v265zM1119 0h-39v386h59q65 0 65 -81v-43
q0 -54 -30 -76l29 -186h-39l-25 178h-20v-178zM1140 216q25 0 25 26v79q0 27 -26 27h-20v-132h21z" />
    <glyph glyph-name="Iacute" unicode="&#xcd;" horiz-adv-x="1429" 
d="M225 800h116v-39h-38v-347h-39v347h-39v39zM397 453h59v-39h-98v386h98v-39h-59v-131h33v-38h-33v-139zM558 547h36v-48q0 -85 -56 -85q-57 0 -57 85v216q0 85 57 85q56 0 56 -85v-35h-36v59q0 22 -20 22q-19 0 -19 -22v-264q0 -22 19 -22q20 0 20 22v72zM662 630h38v170
h39v-386h-39v178h-38v-178h-39v386h39v-170zM811 640l-7 52v-278h-35v386h46l40 -220l8 -58v278h34v-386h-46zM929 414v386h38v-386h-38zM1075 547h36v-48q0 -85 -55 -85q-58 0 -58 85v216q0 85 58 85q55 0 55 -85v-35h-36v59q0 22 -20 22q-19 0 -19 -22v-264q0 -22 19 -22
q20 0 20 22v72zM1125 414l51 386h38l52 -386h-39l-7 58h-50l-6 -58h-39zM1176 513h38l-12 109l-7 69l-5 -69zM1319 453h60v-39h-98v386h38v-347zM122 324q0 22 -16 22q-17 0 -17 -22v-52q0 -26 36 -72q35 -47 35 -81v-35q0 -84 -54 -84q-56 0 -56 84v48h39v-71q0 -23 17 -23
q16 0 16 23v44q0 36 -36 81q-36 46 -36 89v25q0 85 56 85q54 0 54 -85v-35h-38v59zM268 385h38v-301q0 -84 -57 -84q-58 0 -58 84v301h39v-324q0 -23 19 -23t19 23v324zM376 0h-38v385h59q64 0 64 -88v-16q0 -88 -63 -88h-22v-193zM398 231q24 0 24 26v64q0 26 -25 26h-21
v-116h22zM525 38h58v-38h-97v385h97v-38h-58v-131h33v-39h-33v-139zM647 0h-38v385h59q64 0 64 -81v-42q0 -55 -30 -76l29 -186h-38l-25 177h-21v-177zM669 216q24 0 24 25v80q0 26 -25 26h-21v-131h22zM881 385l-51 -385h-39l-51 385h39l25 -208l6 -68l6 68l26 208h39z
M896 0v385h39v-385h-39zM1037 324q0 22 -16 22t-16 -22v-52q0 -25 35 -72q35 -49 35 -81v-35q0 -84 -54 -84q-55 0 -55 84v48h39v-71q0 -23 16 -23t16 23v44q0 36 -36 81q-35 45 -35 89v25q0 85 55 85q54 0 54 -85v-35h-38v59zM1222 84q0 -84 -58 -84t-58 84v216q0 85 58 85
t58 -85v-216zM1184 325q0 22 -20 22q-19 0 -19 -22v-264q0 -23 19 -23q20 0 20 23v264zM1291 0h-38v385h59q64 0 64 -81v-42q0 -55 -29 -76l29 -186h-40l-24 177h-21v-177zM1312 216q26 0 26 25v80q0 26 -26 26h-21v-131h21z" />
    <glyph glyph-name="Icircumflex" unicode="&#xce;" horiz-adv-x="1853" 
d="M333 415l52 386h39l51 -386h-39l-8 58h-49l-6 -58h-40zM385 514h38l-13 109l-6 69l-6 -69zM561 740q0 23 -16 23t-16 -23v-53q0 -25 35 -72q36 -48 36 -81v-34q0 -85 -55 -85t-55 85v47h39v-71q0 -23 16 -23t16 23v44q0 35 -36 82q-35 46 -35 90v24q0 85 55 85t55 -85
v-35h-39v59zM702 740q0 23 -16 23t-16 -23v-53q0 -25 35 -72q36 -48 36 -81v-34q0 -85 -55 -85t-55 85v47h39v-71q0 -23 16 -23t16 23v44q0 35 -36 82q-35 44 -35 90v24q0 85 55 85t55 -85v-35h-39v59zM771 415v386h40v-386h-40zM912 740q0 23 -16 23t-16 -23v-53
q0 -25 35 -72q36 -48 36 -81v-34q0 -85 -55 -85t-55 85v47h39v-71q0 -23 16 -23t16 23v44q0 35 -36 82q-35 46 -35 90v24q0 85 55 85t55 -85v-35h-39v59zM968 801h116v-38h-38v-348h-40v348h-38v38zM1067 415l51 386h39l52 -386h-40l-6 58h-50l-7 -58h-39zM1118 514h39
l-13 109l-6 69l-6 -69zM1266 641l-7 52v-278h-35v386h46l39 -220l8 -58v278h35v-386h-46zM1369 801h115v-38h-38v-348h-38v348h-39v38zM1547 801h116v-38h-38v-348h-39v348h-39v38zM1795 500q0 -85 -58 -85q-57 0 -57 85v216q0 85 57 85q58 0 58 -85v-216zM1757 740
q0 23 -20 23q-19 0 -19 -23v-264q0 -23 19 -23q20 0 20 23v264zM127 132h37v-47q0 -85 -56 -85q-58 0 -58 85v216q0 85 58 85q56 0 56 -85v-35h-37v59q0 23 -19 23q-20 0 -20 -23v-264q0 -23 20 -23q19 0 19 23v71zM231 216h39v170h39v-386h-39v178h-39v-178h-39v386h39
v-170zM339 0v386h39v-386h-39zM447 38h60v-38h-98v386h98v-38h-60v-132h34v-38h-34v-140zM570 0h-39v386h99v-38h-60v-132h34v-38h-34v-178zM696 0l52 386h38l51 -386h-39l-7 57h-49l-7 -57h-39zM748 99h38l-14 109l-6 68l-6 -68zM894 226l-6 52v-278h-35v386h46l40 -220
l7 -58v278h35v-386h-46zM1012 0v386h39v-386h-39zM1081 0v386h57l25 -208l6 -69l6 69l26 208h58v-386h-35v301l-5 -46l-33 -255h-32l-34 259l-4 42v-301h-35zM1274 0l51 386h39l51 -386h-39l-7 57h-49l-7 -57h-39zM1325 99h39l-14 109l-6 68l-6 -68zM1400 386h116v-38h-39
v-348h-39v348h-38v38zM1648 85q0 -85 -58 -85t-58 85v216q0 85 58 85t58 -85v-216zM1610 325q0 23 -20 23q-19 0 -19 -23v-264q0 -23 19 -23q20 0 20 23v264zM1718 0h-39v386h59q65 0 65 -81v-43q0 -54 -30 -76l29 -186h-39l-25 178h-20v-178zM1739 216q25 0 25 26v79
q0 27 -26 27h-20v-132h21z" />
    <glyph glyph-name="Idieresis" unicode="&#xcf;" horiz-adv-x="2046" 
d="M127 548h37v-48q0 -85 -56 -85q-58 0 -58 85v216q0 85 58 85q56 0 56 -84v-36h-37v60q0 22 -19 22q-20 0 -20 -22v-265q0 -22 20 -22q19 0 19 22v72zM193 415v386h39v-386h-39zM304 642l-7 52v-279h-34v386h46l39 -220l8 -58v278h35v-386h-46zM460 454h60v-39h-98v386h98
v-38h-60v-132h34v-38h-34v-139zM545 415v386h56l26 -208l6 -68l6 68l25 208h58v-386h-35v303l-5 -47l-33 -256h-32l-34 259l-3 43v-302h-35zM738 415l51 386h38l52 -386h-40l-6 58h-50l-6 -58h-39zM789 514h38l-12 109l-7 69l-6 -68zM863 801h116v-38h-38v-348h-38v348h-40
v38zM1112 500q0 -85 -58 -85t-58 85v216q0 85 58 85t58 -85v-216zM1073 741q0 22 -19 22t-19 -22v-265q0 -22 19 -22t19 22v265zM1201 593h59v-178l-19 26q-11 -26 -40 -26q-58 0 -58 85v216q0 85 58 85q59 0 59 -84v-36h-37v60q0 22 -22 22q-20 0 -20 -22v-265
q0 -22 20 -22q22 0 22 22v78h-22v39zM1326 415h-38v386h59q65 0 65 -81v-43q0 -51 -30 -76l29 -186h-39l-25 178h-21v-178zM1348 631q25 0 25 27v78q0 27 -26 27h-21v-132h22zM1419 415l52 386h39l51 -386h-39l-8 58h-48l-7 -58h-40zM1471 514h38l-13 109l-6 69l-6 -68z
M1615 415h-38v386h59q64 0 64 -89v-15q0 -89 -64 -89h-21v-193zM1636 647q25 0 25 26v63q0 27 -25 27h-21v-116h21zM1764 631h38v170h39v-386h-39v178h-38v-178h-39v386h39v-170zM1906 415v165l-50 221h39l23 -119l8 -52l7 52l23 119h40l-51 -221v-165h-39zM1841 262
q0 -50 -28 -66q28 -14 28 -65v-46q0 -85 -59 -85h-57v386h57q59 0 59 -85v-39zM1802 325q0 23 -20 23h-18v-132h19q19 0 19 22v87zM1802 155q0 21 -19 23h-19v-140h18q20 0 20 23v94zM1906 0v165l-50 221h39l23 -119l8 -53l7 53l23 119h40l-51 -221v-165h-39z" />
    <glyph glyph-name="Eth" unicode="&#xd0;" horiz-adv-x="254" 
d="M152 358q0 29 -26 29t-26 -29v-274q0 -30 26 -30t26 30v84h51v-62q0 -105 -77 -105t-77 105v230q0 105 77 105t77 -105v-60h-51v82z" />
    <glyph glyph-name="Ntilde" unicode="&#xd1;" horiz-adv-x="428" 
d="M153 200q-10 -6 -19 -11.5t-17 -11.5q-16 -13 -16 -44v-49q0 -31 24 -31q28 0 28 31v116zM50 139q0 52 40 80q19 14 35 25t28 20v97q0 29 -24 29q-22 0 -22 -29v-84h-52v62q0 105 74 105q76 0 76 -105v-339h-52v20q-13 -20 -42 -20q-61 0 -61 106v33zM327 360
q0 29 -26 29t-26 -29v-274q0 -30 26 -30t26 30v84h51v-62q0 -105 -77 -105t-77 105v230q0 105 77 105t77 -105v-60h-51v82z" />
    <glyph glyph-name="Ograve" unicode="&#xd2;" horiz-adv-x="2435" 
d="M165 677q0 -53 -27 -66q27 -14 27 -65v-46q0 -85 -57 -85h-58v385h58q57 0 57 -85v-38zM127 739q0 22 -19 22h-20v-131h20q19 0 19 22v87zM127 570q0 22 -19 22h-20v-138h20q19 0 19 22v94zM180 415l51 385h40l50 -385h-38l-8 58h-49l-6 -58h-40zM231 514h40l-14 108
l-6 68l-6 -68zM409 739q0 22 -17 22t-17 -22v-53q0 -25 36 -71q36 -50 36 -82v-33q0 -85 -55 -85t-55 85v47h38v-71q0 -22 17 -22t17 22v44q0 18 -9.5 38t-26.5 43q-36 46 -36 89v25q0 85 55 85t55 -85v-35h-38v59zM516 454h59v-39h-97v385h97v-39h-59v-131h34v-38h-34v-138
zM715 500q0 -85 -57 -85h-58v385h58q57 0 57 -85v-215zM677 739q0 22 -19 22h-19v-307h19q19 0 19 22v263zM922 500q0 -85 -59 -85q-57 0 -57 85v215q0 85 57 85q59 0 59 -85v-215zM882 739q0 22 -19 22t-19 -22v-263q0 -22 19 -22t19 22v263zM993 640l-6 52v-277h-35v385
h46l40 -220l7 -58v278h35v-385h-46zM1198 726h-36v38q0 36 30 36v-18q-16 0 -16 -16h22v-40zM1289 739q0 22 -17 22q-16 0 -16 -22v-53q0 -25 36 -71q36 -48 36 -82v-33q0 -85 -56 -85q-54 0 -54 85v47h38v-71q0 -22 16 -22q17 0 17 22v44q0 34 -36 81q-35 45 -35 89v25
q0 85 54 85q56 0 56 -85v-35h-39v59zM1344 800h115v-39h-38v-346h-38v346h-39v39zM1443 415l51 385h39l51 -385h-38l-8 58h-49l-7 -58h-39zM1494 514h39l-13 108l-6 68l-6 -68zM1638 415h-39v385h60q64 0 64 -81v-42q0 -53 -30 -77l29 -185h-39l-24 177h-21v-177zM1660 630
q25 0 25 27v78q0 26 -26 26h-21v-131h22zM1791 800h116v-39h-38v-346h-39v346h-39v39zM1963 415h-39v385h59q64 0 64 -81v-42q0 -53 -30 -77l29 -185h-39l-24 177h-20v-177zM1984 630q25 0 25 27v78q0 26 -26 26h-20v-131h21zM2109 454h59v-39h-97v385h97v-39h-59v-131h34
v-38h-34v-138zM2194 415v385h38v-176l10 34l47 142h40l-64 -188l68 -197h-41l-50 152l-10 33v-185h-38zM2345 800h35v-39q0 -36 -29 -34v16q15 0 15 17h-21v40zM1209 132h37v-47q0 -85 -56 -85q-58 0 -58 85v216q0 84 58 84q56 0 56 -84v-35h-37v59q0 22 -19 22t-19 -22
v-264q0 -22 19 -22t19 22v71zM1313 0h-39v385h60q64 0 64 -80v-43q0 -54 -31 -76l29 -186h-38l-25 177h-20v-177zM1334 216q26 0 26 27v78q0 26 -26 26h-21v-131h21zM1459 39h60v-39h-98v385h98v-38h-60v-131h34v-39h-34v-138zM1528 0l51 385h40l50 -385h-39l-7 58h-49
l-6 -58h-40zM1579 100h39l-13 108l-7 68l-5 -68zM1654 385h115v-38h-38v-347h-39v347h-38v38zM1825 39h59v-39h-98v385h98v-38h-59v-131h33v-39h-33v-138zM2024 85q0 -85 -57 -85h-58v385h58q57 0 57 -84v-216zM1986 325q0 22 -19 22h-20v-308h20q19 0 19 22v264zM2230 263
q0 -53 -28 -66q28 -13 28 -66v-46q0 -85 -58 -85h-58v385h58q58 0 58 -84v-38zM2192 325q0 22 -20 22h-19v-131h20q19 0 19 22v87zM2192 155q0 22 -19 22h-20v-138h19q20 0 20 22v94zM2295 0v165l-49 220h39l23 -118l7 -52l7 52l23 118h40l-51 -220v-165h-39z" />
    <glyph glyph-name="Oacute" unicode="&#xd3;" horiz-adv-x="2534" 
d="M166 677q0 -53 -27 -66q27 -14 27 -65v-46q0 -85 -58 -85h-58v385h58q58 0 58 -85v-38zM128 739q0 22 -20 22h-19v-131h20q19 0 19 22v87zM128 570q0 22 -19 22h-20v-138h19q20 0 20 22v94zM182 415l51 385h38l52 -385h-40l-6 58h-50l-7 -58h-38zM233 514h38l-13 108
l-6 68l-6 -68zM409 739q0 22 -16 22q-17 0 -17 -22v-53q0 -25 36 -71q35 -47 35 -82v-33q0 -85 -54 -85q-55 0 -55 85v47h38v-71q0 -22 17 -22q16 0 16 22v44q0 36 -35 81q-36 46 -36 89v25q0 85 55 85q54 0 54 -85v-35h-38v59zM516 454h60v-39h-98v385h98v-39h-60v-131h34
v-38h-34v-138zM717 500q0 -85 -59 -85h-57v385h57q59 0 59 -85v-215zM678 739q0 22 -20 22h-19v-307h19q20 0 20 22v263zM922 500q0 -85 -58 -85t-58 85v215q0 85 58 85t58 -85v-215zM884 739q0 22 -20 22t-20 -22v-263q0 -22 20 -22t20 22v263zM994 640l-7 52v-277h-34v385
h46l39 -220l8 -58v278h35v-385h-47zM1198 726h-34v38q0 36 28 36v-18q-15 0 -15 -16h21v-40zM1290 739q0 22 -16 22q-17 0 -17 -22v-53q0 -25 36 -71q36 -48 36 -82v-33q0 -85 -55 -85q-56 0 -56 85v47h39v-71q0 -22 17 -22q16 0 16 22v44q0 34 -35 81q-37 48 -37 89v25
q0 85 56 85q55 0 55 -85v-35h-39v59zM1345 800h116v-39h-39v-346h-39v346h-38v39zM1445 415l50 385h40l51 -385h-40l-7 58h-49l-7 -58h-38zM1495 514h39l-14 108l-5 68l-6 -68zM1639 415h-38v385h58q65 0 65 -81v-42q0 -53 -30 -77l29 -185h-39l-25 177h-20v-177zM1660 630
q25 0 25 27v78q0 26 -26 26h-20v-131h21zM2027 800l-51 -385h-36l-31 245l-31 -245h-36l-51 385h39l26 -207l6 -69l5 68l26 208h31l26 -207l7 -69l5 68l25 208h40zM2005 415l50 385h40l50 -385h-38l-8 58h-48l-7 -58h-39zM2055 514h40l-14 108l-6 68l-6 -68zM2199 415h-38
v385h59q64 0 64 -81v-42q0 -53 -30 -77l30 -185h-40l-24 177h-21v-177zM2220 630q26 0 26 27v78q0 26 -26 26h-21v-131h21zM2379 739q0 22 -16 22q-17 0 -17 -22v-53q0 -25 36 -71q36 -50 36 -82v-33q0 -85 -55 -85q-56 0 -56 85v47h39v-71q0 -22 17 -22q16 0 16 22v44
q0 34 -35 81q-37 48 -37 89v25q0 85 56 85q55 0 55 -85v-35h-39v59zM2444 800h35v-39q0 -35 -30 -34v16q17 0 17 17h-22v40zM1308 132h37v-47q0 -85 -56 -85q-58 0 -58 85v216q0 84 58 84q56 0 56 -84v-35h-37v59q0 22 -19 22t-19 -22v-264q0 -22 19 -22t19 22v71zM1412 0
h-38v385h59q63 0 63 -80v-43q0 -54 -29 -76l28 -186h-38l-25 177h-20v-177zM1433 216q25 0 25 27v78q0 26 -25 26h-21v-131h21zM1559 39h59v-39h-98v385h98v-38h-59v-131h33v-39h-33v-138zM1628 0l51 385h39l51 -385h-40l-6 58h-49l-7 -58h-39zM1679 100h38l-13 108l-6 68
l-6 -68zM1753 385h115v-38h-38v-347h-38v347h-39v38zM1924 39h59v-39h-97v385h97v-38h-59v-131h34v-39h-34v-138zM2123 85q0 -85 -57 -85h-58v385h58q57 0 57 -84v-216zM2085 325q0 22 -19 22h-19v-308h19q19 0 19 22v264zM2330 263q0 -52 -28 -66q28 -14 28 -66v-46
q0 -85 -59 -85h-57v385h57q59 0 59 -84v-38zM2290 325q0 22 -19 22h-19v-131h20q18 0 18 22v87zM2290 155q0 22 -18 22h-20v-138h19q19 0 19 22v94zM2395 0v165l-50 220h39l23 -118l7 -52l8 52l22 118h40l-51 -220v-165h-38z" />
    <glyph glyph-name="Ocircumflex" unicode="&#xd4;" horiz-adv-x="2343" 
d="M166 677q0 -53 -27 -66q27 -14 27 -65v-46q0 -85 -57 -85h-59v385h59q57 0 57 -85v-38zM128 739q0 22 -19 22h-20v-131h20q19 0 19 22v87zM128 570q0 22 -19 22h-20v-138h20q19 0 19 22v94zM182 415l51 385h39l51 -385h-40l-6 58h-49l-7 -58h-39zM233 514h38l-13 108
l-6 68l-6 -68zM409 739q0 22 -16 22q-17 0 -17 -22v-53q0 -25 36 -71q35 -47 35 -82v-33q0 -85 -54 -85q-55 0 -55 85v47h38v-71q0 -22 17 -22q16 0 16 22v44q0 34 -36 81q-35 47 -35 89v25q0 85 55 85q54 0 54 -85v-35h-38v59zM517 454h59v-39h-98v385h98v-39h-59v-131h34
v-38h-34v-138zM717 500q0 -85 -58 -85h-58v385h58q58 0 58 -85v-215zM678 739q0 22 -19 22h-20v-307h20q19 0 19 22v263zM922 500q0 -85 -58 -85q-57 0 -57 85v215q0 85 57 85q58 0 58 -85v-215zM884 739q0 22 -20 22q-19 0 -19 -22v-263q0 -22 19 -22q20 0 20 22v263z
M994 640l-7 52v-277h-34v385h46l39 -220l8 -58v278h35v-385h-46zM1198 726h-34v38q0 36 28 36v-18q-15 0 -15 -16h21v-40zM1290 739q0 22 -16 22t-16 -22v-53q0 -26 35 -71q35 -47 35 -82v-33q0 -85 -54 -85q-55 0 -55 85v47h39v-71q0 -22 16 -22t16 22v44q0 36 -35 81
q-36 46 -36 89v25q0 85 55 85q54 0 54 -85v-35h-38v59zM1345 800h116v-39h-39v-346h-38v346h-39v39zM1444 415l51 385h40l50 -385h-39l-7 58h-49l-6 -58h-40zM1495 514h39l-13 108l-7 68l-5 -68zM1639 415h-38v385h59q63 0 63 -81v-42q0 -54 -29 -77l29 -185h-39l-25 177
h-20v-177zM1660 630q25 0 25 27v78q0 26 -25 26h-21v-131h21zM1806 592h58v-177l-19 26q-9 -26 -40 -26q-58 0 -58 85v215q0 85 59 85q58 0 58 -85v-35h-36v59q0 22 -22 22q-20 0 -20 -22v-263q0 -22 19 -22q22 0 22 22v77h-21v39zM1877 415l51 385h39l51 -385h-39l-7 58
h-49l-7 -58h-39zM1928 514h38l-12 108l-7 68l-6 -68zM2002 800h116v-39h-39v-346h-38v346h-39v39zM2173 454h60v-39h-98v385h98v-39h-60v-131h34v-38h-34v-138zM2253 800h35v-39q0 -35 -30 -34v16q17 0 17 17h-22v40zM1118 132h36v-47q0 -85 -56 -85q-57 0 -57 85v216
q0 84 57 84q56 0 56 -84v-35h-36v59q0 22 -20 22q-19 0 -19 -22v-264q0 -22 19 -22q20 0 20 22v71zM1221 0h-38v385h59q63 0 63 -80v-43q0 -54 -29 -76l28 -186h-38l-25 177h-20v-177zM1242 216q25 0 25 27v78q0 26 -25 26h-21v-131h21zM1368 39h59v-39h-98v385h98v-38h-59
v-131h33v-39h-33v-138zM1437 0l51 385h39l51 -385h-40l-6 58h-49l-7 -58h-39zM1488 100h38l-12 108l-7 68l-6 -68zM1562 385h115v-38h-38v-347h-38v347h-39v38zM1733 39h60v-39h-98v385h98v-38h-60v-131h34v-39h-34v-138zM1932 85q0 -85 -57 -85h-58v385h58q57 0 57 -84
v-216zM1894 325q0 22 -19 22h-19v-308h19q19 0 19 22v264zM2139 263q0 -52 -28 -66q28 -14 28 -66v-46q0 -85 -59 -85h-57v385h57q59 0 59 -84v-38zM2099 325q0 22 -19 22h-19v-131h20q18 0 18 22v87zM2099 155q0 22 -18 22h-20v-138h19q19 0 19 22v94zM2204 0v165l-50 220
h39l23 -118l7 -52l8 52l22 118h40l-51 -220v-165h-38z" />
    <glyph glyph-name="Otilde" unicode="&#xd5;" horiz-adv-x="2407" 
d="M166 678q0 -53 -27 -66q27 -14 27 -65v-47q0 -84 -58 -84h-58v385h58q58 0 58 -85v-38zM128 741q0 21 -20 21h-19v-130h20q19 0 19 22v87zM128 571q0 20 -19 22h-20v-139h19q20 0 20 22v95zM182 416l51 385h39l51 -385h-39l-8 58h-49l-7 -58h-38zM233 514h38l-13 109
l-6 68l-6 -68zM410 741q0 21 -17 21q-16 0 -16 -21v-53q0 -12 8.5 -30.5t26.5 -41.5q36 -48 36 -82v-34q0 -84 -55 -84t-55 84v48h39v-72q0 -22 16 -22q17 0 17 22v45q0 34 -36 81q-36 46 -36 89v25q0 85 55 85t55 -85v-35h-38v60zM517 454h60v-38h-98v385h98v-39h-60v-130
h34v-39h-34v-139zM718 500q0 -84 -58 -84h-59v385h59q58 0 58 -85v-216zM679 741q0 21 -19 21h-20v-308h20q19 0 19 22v265zM923 500q0 -84 -57 -84q-58 0 -58 84v216q0 85 58 85q57 0 57 -85v-216zM884 741q0 21 -18 21q-20 0 -20 -21v-265q0 -22 20 -22q18 0 18 22v265z
M995 642l-6 51v-277h-35v385h46l40 -219l7 -59v278h35v-385h-46zM1200 727h-35v39q0 35 29 35v-17q-15 0 -15 -17h21v-40zM1259 416h-38v385h58q65 0 65 -89v-15q0 -89 -64 -89h-21v-192zM1280 647q25 0 25 26v64q0 25 -26 25h-20v-115h21zM1407 416h-38v385h59q65 0 65 -81
v-42q0 -52 -31 -77l30 -185h-39l-25 177h-21v-177zM1429 632q25 0 25 25v80q0 25 -26 25h-21v-130h22zM1554 454h60v-38h-98v385h98v-39h-60v-130h34v-39h-34v-139zM1755 500q0 -84 -58 -84h-58v385h58q58 0 58 -85v-216zM1716 741q0 21 -19 21h-20v-308h20q19 0 19 22v265z
M1770 416l51 385h39l51 -385h-39l-7 58h-49l-7 -58h-39zM1821 514h39l-13 109l-7 68l-5 -68zM1896 801h116v-39h-39v-346h-39v346h-38v39zM2144 500q0 -84 -58 -84q-57 0 -57 84v216q0 85 57 85q58 0 58 -85v-216zM2105 741q0 21 -19 21t-19 -21v-265q0 -22 19 -22t19 22
v265zM2213 416h-38v385h59q65 0 65 -81v-42q0 -52 -31 -77l30 -185h-39l-25 177h-21v-177zM2235 632q25 0 25 25v80q0 25 -26 25h-21v-130h22zM2318 801h35v-38q0 -36 -30 -36v17q16 0 16 18h-21v39zM1179 133h37v-48q0 -85 -56 -85q-58 0 -58 85v216q0 85 58 85
q56 0 56 -85v-35h-37v60q0 22 -19 22t-19 -22v-265q0 -22 19 -22t19 22v72zM1283 0h-38v386h59q65 0 65 -81v-43q0 -52 -31 -75l30 -187h-39l-25 178h-21v-178zM1305 217q25 0 25 25v80q0 26 -26 26h-21v-131h22zM1431 39h59v-39h-98v386h98v-38h-59v-132h33v-38h-33v-139z
M1499 0l51 386h40l51 -386h-39l-7 59h-49l-7 -59h-40zM1550 99h39l-13 109l-6 69l-5 -69zM1625 386h116v-38h-38v-348h-39v348h-39v38zM1797 39h58v-39h-97v386h97v-38h-58v-132h34v-38h-34v-139zM1996 85q0 -85 -57 -85h-58v386h58q57 0 57 -85v-216zM1959 326q0 22 -20 22
h-19v-309h19q20 0 20 22v265zM2203 262q0 -52 -27 -65q27 -14 27 -65v-47q0 -85 -59 -85h-58v386h58q59 0 59 -85v-39zM2164 326q0 22 -20 22h-19v-132h20q19 0 19 23v87zM2164 155q0 22 -19 23h-20v-139h19q20 0 20 22v94zM2268 0v165l-50 221h40l23 -119l7 -52l7 52
l23 119h39l-50 -221v-165h-39z" />
    <glyph glyph-name="Odieresis" unicode="&#xd6;" horiz-adv-x="2058" 
d="M167 678q0 -52 -28 -66q28 -14 28 -65v-47q0 -84 -59 -84h-58v385h58q59 0 59 -85v-38zM128 741q0 21 -20 21h-19v-130h20q19 0 19 22v87zM128 571q0 20 -19 22h-20v-139h19q20 0 20 22v95zM182 416l51 385h39l51 -385h-39l-7 58h-49l-7 -58h-39zM233 514h38l-12 109
l-7 68l-5 -68zM410 741q0 21 -17 21q-16 0 -16 -21v-53q0 -26 36 -72q35 -47 35 -82v-34q0 -84 -55 -84t-55 84v48h39v-72q0 -22 16 -22q17 0 17 22v45q0 34 -36 81q-17 23 -26.5 45t-9.5 44v25q0 85 55 85t55 -85v-35h-38v60zM517 454h60v-38h-97v385h97v-39h-60v-130h35
v-39h-35v-139zM718 500q0 -84 -58 -84h-57v385h57q58 0 58 -85v-216zM679 741q0 21 -19 21h-19v-308h19q19 0 19 22v265zM924 500q0 -84 -58 -84t-58 84v216q0 85 58 85t58 -85v-216zM885 741q0 21 -19 21q-20 0 -20 -21v-265q0 -22 20 -22q19 0 19 22v265zM997 642l-8 51
v-277h-34v385h45l40 -219l8 -59v278h35v-385h-47zM1200 727h-34v39q0 35 29 35v-17q-16 0 -16 -17h21v-40zM1206 416l51 385h39l51 -385h-39l-7 58h-50l-6 -58h-39zM1257 514h38l-12 109l-7 68l-6 -68zM1401 454h59v-38h-98v385h39v-347zM1481 416v385h39v-385h-39z
M1589 454h59v-38h-97v385h97v-39h-59v-130h34v-39h-34v-139zM1715 642l-7 51v-277h-35v385h46l40 -219l8 -59v278h35v-385h-47zM1904 741q0 21 -17 21q-16 0 -16 -21v-53q0 -12 8.5 -30.5t27.5 -41.5q35 -47 35 -82v-34q0 -84 -55 -84t-55 84v48h39v-72q0 -22 16 -22
q17 0 17 22v45q0 34 -36 81q-36 46 -36 89v25q0 85 55 85t55 -85v-35h-38v60zM1969 801h35v-38q0 -36 -30 -36v17q16 0 16 18h-21v39zM831 133h36v-48q0 -85 -56 -85q-58 0 -58 85v216q0 85 58 85q56 0 56 -85v-35h-36v60q0 22 -20 22q-19 0 -19 -22v-265q0 -22 19 -22
q20 0 20 22v72zM935 0h-39v386h60q63 0 63 -81v-43q0 -54 -30 -75l29 -187h-38l-25 178h-20v-178zM956 217q26 0 26 25v80q0 26 -26 26h-21v-131h21zM1082 39h59v-39h-98v386h98v-38h-59v-132h33v-38h-33v-139zM1151 0l51 386h39l51 -386h-39l-7 59h-49l-7 -59h-39zM1202 99
h38l-12 109l-7 69l-6 -69zM1276 386h116v-38h-38v-348h-39v348h-39v38zM1448 39h59v-39h-98v386h98v-38h-59v-132h34v-38h-34v-139zM1647 85q0 -85 -57 -85h-58v386h58q57 0 57 -85v-216zM1610 326q0 22 -20 22h-19v-309h19q20 0 20 22v265zM1854 262q0 -51 -28 -65
q28 -14 28 -65v-47q0 -85 -58 -85h-58v386h58q58 0 58 -85v-39zM1815 326q0 22 -19 22h-20v-132h20q19 0 19 23v87zM1815 155q0 21 -19 23h-20v-139h20q19 0 19 22v94zM1919 0v165l-50 221h40l23 -119l7 -52l7 52l23 119h39l-50 -221v-165h-39z" />
    <glyph glyph-name="multiply" unicode="&#xd7;" horiz-adv-x="2668" 
d="M166 678q0 -53 -28 -66q28 -13 28 -65v-47q0 -84 -58 -84h-58v385h58q58 0 58 -85v-38zM128 741q0 21 -20 21h-19v-130h20q19 0 19 22v87zM128 571q0 20 -19 22h-20v-139h19q20 0 20 22v95zM182 416l51 385h39l51 -385h-40l-6 58h-50l-6 -58h-39zM233 514h38l-13 109
l-6 68l-6 -68zM410 741q0 21 -17 21q-16 0 -16 -21v-53q0 -12 8.5 -30.5t26.5 -41.5q36 -46 36 -82v-34q0 -84 -55 -84t-55 84v48h39v-72q0 -22 16 -22q17 0 17 22v45q0 34 -36 81q-17 23 -26.5 45t-9.5 44v25q0 85 55 85t55 -85v-35h-38v60zM517 454h60v-38h-98v385h98v-39
h-60v-130h34v-39h-34v-139zM718 500q0 -84 -59 -84h-57v385h57q59 0 59 -85v-216zM679 741q0 21 -20 21h-19v-308h19q20 0 20 22v265zM924 500q0 -84 -58 -84t-58 84v216q0 85 58 85t58 -85v-216zM885 741q0 21 -19 21q-20 0 -20 -21v-265q0 -22 20 -22q19 0 19 22v265z
M996 642l-7 51v-277h-35v385h46l40 -219l8 -59v278h35v-385h-47zM1200 727h-35v39q0 35 29 35v-17q-15 0 -15 -17h21v-40zM1207 801h115v-39h-38v-346h-38v346h-39v39zM1378 454h59v-38h-98v385h98v-39h-59v-130h33v-39h-33v-139zM1500 416h-37v385h58q65 0 65 -81v-42
q0 -52 -31 -77l30 -185h-39l-25 177h-21v-177zM1522 632q25 0 25 25v80q0 25 -26 25h-21v-130h22zM1609 416v385h57l26 -208l5 -68l6 68l26 208h57v-385h-34v301l-4 -46l-34 -255h-33l-33 258l-4 43v-301h-35zM1818 416v385h38v-385h-38zM1929 642l-7 51v-277h-35v385h46
l40 -219l8 -59v278h35v-385h-47zM2031 416l51 385h39l51 -385h-39l-7 58h-50l-6 -58h-39zM2082 514h38l-12 109l-7 68l-6 -68zM2156 801h115v-39h-37v-346h-39v346h-39v39zM2405 500q0 -84 -58 -84t-58 84v216q0 85 58 85t58 -85v-216zM2366 741q0 21 -19 21q-20 0 -20 -21
v-265q0 -22 20 -22q19 0 19 22v265zM2474 416h-39v385h60q63 0 63 -81v-42q0 -54 -29 -77l29 -185h-39l-25 177h-20v-177zM2495 632q26 0 26 25v80q0 25 -26 25h-21v-130h21zM2578 801h35v-38q0 -36 -29 -36v17q15 0 15 18h-21v39zM1440 133h37v-48q0 -85 -56 -85
q-58 0 -58 85v216q0 85 58 85q56 0 56 -85v-35h-37v60q0 22 -19 22t-19 -22v-265q0 -22 19 -22t19 22v72zM1544 0h-38v386h59q64 0 64 -81v-43q0 -53 -30 -75l29 -187h-39l-24 178h-21v-178zM1566 217q24 0 24 25v80q0 26 -25 26h-21v-131h22zM1691 39h59v-39h-97v386h97
v-38h-59v-132h34v-38h-34v-139zM1760 0l51 386h39l51 -386h-39l-7 59h-49l-7 -59h-39zM1811 99h39l-13 109l-6 69l-7 -69zM1886 386h115v-38h-38v-348h-38v348h-39v38zM2057 39h59v-39h-97v386h97v-38h-59v-132h34v-38h-34v-139zM2257 85q0 -85 -58 -85h-57v386h57
q58 0 58 -85v-216zM2218 326q0 22 -19 22h-19v-309h19q19 0 19 22v265zM2463 262q0 -52 -28 -65q28 -13 28 -65v-47q0 -85 -58 -85h-58v386h58q58 0 58 -85v-39zM2425 326q0 22 -20 22h-19v-132h20q19 0 19 23v87zM2425 155q0 21 -19 23h-20v-139h19q20 0 20 22v94zM2529 0
v165l-50 221h39l23 -119l7 -52l8 52l22 119h40l-50 -221v-165h-39z" />
    <glyph glyph-name="Oslash" unicode="&#xd8;" horiz-adv-x="2201" 
d="M165 676q0 -52 -27 -65q27 -14 27 -65v-47q0 -84 -57 -84h-58v385h58q57 0 57 -85v-39zM128 740q0 21 -20 21h-19v-130h20q19 0 19 22v87zM128 570q0 20 -19 22h-20v-139h19q20 0 20 23v94zM181 415l51 385h39l51 -385h-39l-7 58h-49l-7 -58h-39zM232 514h38l-13 108
l-6 68l-5 -68zM408 740q0 21 -16 21t-16 -21v-53q0 -25 35 -72q36 -48 36 -82v-34q0 -84 -55 -84q-54 0 -54 84v48h38v-71q0 -23 16 -23t16 23v43q0 37 -35 82q-35 47 -35 89v25q0 85 54 85q55 0 55 -85v-35h-39v60zM516 453h60v-38h-98v385h98v-39h-60v-130h34v-39h-34
v-139zM716 499q0 -84 -58 -84h-58v385h58q58 0 58 -85v-216zM678 740q0 21 -20 21h-19v-308h19q20 0 20 23v264zM922 499q0 -84 -58 -84q-57 0 -57 84v216q0 85 57 85q58 0 58 -85v-216zM883 740q0 21 -19 21q-20 0 -20 -21v-264q0 -23 20 -23q19 0 19 23v264zM994 641
l-7 51v-277h-35v385h47l39 -219l8 -59v278h35v-385h-46zM1198 726h-35v39q0 35 29 35v-17q-15 0 -15 -17h21v-40zM1334 676q0 -52 -27 -65q27 -15 27 -65v-47q0 -84 -57 -84h-58v385h58q57 0 57 -85v-39zM1296 740q0 21 -19 21h-20v-130h20q19 0 19 22v87zM1296 570
q0 21 -19 22h-20v-139h20q19 0 19 23v94zM1349 415l52 385h38l51 -385h-38l-8 58h-49l-7 -58h-39zM1401 514h38l-13 108l-7 68l-5 -68zM1475 800h116v-39h-39v-346h-38v346h-39v39zM1608 415v385h56l26 -208l6 -68l5 68l26 208h58v-385h-35v301l-5 -46l-33 -255h-32l-34 258
l-3 43v-301h-35zM1800 415l51 385h39l52 -385h-40l-7 58h-49l-7 -58h-39zM1851 514h38l-13 108l-5 68l-6 -68zM1998 641l-6 51v-277h-35v385h46l39 -219l8 -59v278h34v-385h-45zM2111 800h35v-39q0 -35 -30 -35v17q17 0 17 17h-22v40zM974 132h37v-47q0 -85 -56 -85
q-58 0 -58 85v216q0 84 58 84q56 0 56 -84v-35h-37v58q0 23 -19 23t-19 -23v-263q0 -22 19 -22t19 22v71zM1079 0h-39v385h59q64 0 64 -80v-43q0 -55 -30 -76l29 -186h-39l-24 178h-20v-178zM1100 216q24 0 24 26v79q0 26 -25 26h-20v-131h21zM1226 39h58v-39h-97v385h97
v-38h-58v-131h33v-38h-33v-139zM1295 0l51 385h38l52 -385h-40l-7 58h-49l-7 -58h-38zM1346 99h38l-13 109l-6 68l-6 -68zM1419 385h116v-38h-38v-347h-39v347h-39v38zM1591 39h59v-39h-98v385h98v-38h-59v-131h34v-38h-34v-139zM1790 85q0 -85 -58 -85h-57v385h57
q58 0 58 -84v-216zM1752 324q0 23 -20 23h-18v-308h18q20 0 20 22v263zM1996 262q0 -52 -27 -65q27 -15 27 -66v-46q0 -85 -57 -85h-59v385h59q57 0 57 -84v-39zM1958 324q0 23 -19 23h-20v-131h20q19 0 19 22v86zM1958 155q0 21 -19 23h-20v-139h20q19 0 19 22v94zM2062 0
v165l-51 220h40l23 -118l7 -52l7 52l23 118h40l-51 -220v-165h-38z" />
    <glyph glyph-name="Ugrave" unicode="&#xd9;" horiz-adv-x="2564" 
d="M166 676q0 -51 -28 -65q28 -16 28 -65v-47q0 -84 -58 -84h-58v385h58q58 0 58 -85v-39zM127 740q0 21 -19 21h-20v-130h20q19 0 19 22v87zM127 570q0 21 -19 22h-20v-139h20q19 0 19 23v94zM181 415l51 385h39l51 -385h-39l-8 58h-49l-6 -58h-39zM232 514h39l-14 108
l-6 68l-6 -68zM409 740q0 21 -16 21q-17 0 -17 -21v-53q0 -26 36 -72q36 -50 36 -82v-34q0 -84 -55 -84t-55 84v48h38v-71q0 -23 17 -23q16 0 16 23v43q0 19 -9.5 39t-26.5 43q-35 45 -35 89v25q0 85 55 85t55 -85v-35h-39v60zM517 453h58v-38h-97v385h97v-39h-58v-130h33
v-39h-33v-139zM716 499q0 -84 -58 -84h-57v385h57q58 0 58 -85v-216zM677 740q0 21 -19 21h-18v-308h18q19 0 19 23v264zM921 499q0 -84 -57 -84q-58 0 -58 84v216q0 85 58 85q57 0 57 -85v-216zM884 740q0 21 -20 21q-19 0 -19 -21v-264q0 -23 19 -23q20 0 20 23v264z
M994 641l-6 51v-277h-35v385h46l39 -219l8 -59v278h34v-385h-45zM1195 726h-35v39q0 35 30 35v-17q-16 0 -16 -17h21v-40zM1204 800h116v-39h-38v-346h-39v346h-39v39zM1375 631h39v169h39v-385h-39v177h-39v-177h-38v385h38v-169zM1522 453h59v-38h-98v385h98v-39h-59v-130
h33v-39h-33v-139zM1666 415v385h55l26 -208l7 -68l5 68l26 208h58v-385h-35v301l-5 -46l-33 -255h-32l-35 258l-3 43v-301h-34zM1858 415l51 385h38l52 -385h-39l-8 58h-49l-7 -58h-38zM1909 514h38l-13 108l-6 68l-6 -68zM1983 800h116v-39h-39v-346h-38v346h-39v39z
M2155 415h-39v385h58q65 0 65 -81v-43q0 -53 -30 -75l29 -186h-39l-25 177h-19v-177zM2175 631q25 0 25 25v80q0 25 -26 25h-19v-130h20zM2262 415v385h39v-385h-39zM2454 800l-44 -178l53 -207h-40l-23 109l-10 39l-9 -40l-24 -108h-40l53 207l-44 178h40l17 -87l7 -32
l7 32l17 87h40zM2474 800h35v-39q0 -35 -29 -35v17q16 0 16 17h-22v40zM1337 132h37v-47q0 -85 -55 -85q-58 0 -58 85v216q0 84 58 84q55 0 55 -84v-35h-37v58q0 23 -18 23q-19 0 -19 -23v-263q0 -22 19 -22q18 0 18 22v71zM1442 0h-38v385h58q65 0 65 -80v-43
q0 -53 -31 -76l30 -186h-39l-25 178h-20v-178zM1463 216q25 0 25 26v79q0 26 -26 26h-20v-131h21zM1589 39h59v-39h-98v385h98v-38h-59v-131h33v-38h-33v-139zM1657 0l51 385h40l50 -385h-39l-6 58h-50l-6 -58h-40zM1708 99h39l-13 109l-6 68l-6 -68zM1783 385h115v-38h-38
v-347h-38v347h-39v38zM1954 39h59v-39h-98v385h98v-38h-59v-131h33v-38h-33v-139zM2154 85q0 -85 -58 -85h-58v385h58q58 0 58 -84v-216zM2116 324q0 23 -20 23h-19v-308h19q20 0 20 22v263zM2359 262q0 -52 -27 -65q27 -15 27 -66v-46q0 -85 -58 -85h-57v385h57
q58 0 58 -84v-39zM2321 324q0 23 -20 23h-19v-131h20q19 0 19 22v86zM2321 155q0 21 -19 23h-20v-139h19q20 0 20 22v94zM2425 0v165l-50 220h39l23 -118l7 -52l8 52l22 118h40l-50 -220v-165h-39z" />
    <glyph glyph-name="Uacute" unicode="&#xda;" horiz-adv-x="1237" 
d="M50 415l50 384h39l52 -384h-39l-8 57h-48l-7 -57h-39zM100 514h39l-13 108l-6 68l-5 -68zM277 739q0 22 -16 22t-16 -22v-53q0 -26 35 -71q35 -48 35 -82v-33q0 -85 -54 -85q-55 0 -55 85v47h39v-72q0 -22 16 -22t16 22v45q0 34 -35 80q-36 46 -36 90v25q0 84 55 84
q54 0 54 -84v-36h-38v60zM418 739q0 22 -16 22q-17 0 -17 -22v-53q0 -25 36 -71q35 -48 35 -82v-33q0 -85 -54 -85q-55 0 -55 85v47h38v-72q0 -22 17 -22q16 0 16 22v45q0 35 -36 80q-35 45 -35 90v25q0 84 55 84q54 0 54 -84v-36h-38v60zM603 500q0 -85 -58 -85
q-57 0 -57 85v215q0 84 57 84q58 0 58 -84v-215zM564 739q0 22 -19 22t-19 -22v-264q0 -22 19 -22t19 22v264zM710 547h37v-47q0 -85 -56 -85q-58 0 -58 85v215q0 84 58 84q56 0 56 -84v-36h-37v60q0 22 -19 22t-19 -22v-264q0 -22 19 -22t19 22v72zM776 415v384h39v-384
h-39zM830 415l51 384h39l51 -384h-39l-8 57h-48l-7 -57h-39zM881 514h39l-14 108l-5 68l-7 -68zM956 799h115v-38h-38v-346h-39v346h-38v38zM1126 453h59v-38h-97v384h98v-38h-60v-131h34v-38h-34v-139zM103 0h-38v385h59q64 0 64 -88v-15q0 -90 -64 -90h-21v-192zM124 231
q26 0 26 26v64q0 25 -26 25h-21v-115h21zM252 0h-39v385h60q63 0 63 -81v-42q0 -54 -29 -76l28 -186h-39l-24 177h-20v-177zM273 216q25 0 25 26v79q0 25 -25 25h-21v-130h21zM475 85q0 -85 -58 -85q-57 0 -57 85v216q0 84 57 84q58 0 58 -84v-216zM436 324q0 22 -19 22
t-19 -22v-263q0 -23 19 -23t19 23v263zM622 85q0 -85 -58 -85h-58v385h58q58 0 58 -84v-216zM583 324q0 22 -19 22h-19v-308h19q19 0 19 23v263zM729 385h38v-300q0 -85 -57 -85q-58 0 -58 85v300h39v-324q0 -23 19 -23t19 23v324zM876 132h36v-47q0 -85 -55 -85
q-58 0 -58 85v216q0 84 58 84q55 0 55 -84v-36h-36v59q0 22 -20 22q-19 0 -19 -22v-263q0 -23 19 -23q20 0 20 23v71zM980 38h59v-38h-97v385h97v-39h-59v-130h34v-39h-34v-139zM1102 0h-38v385h59q64 0 64 -81v-42q0 -54 -29 -76l28 -186h-39l-25 177h-20v-177zM1123 216
q26 0 26 26v79q0 25 -26 25h-21v-130h21z" />
    <glyph glyph-name="Ucircumflex" unicode="&#xdb;" horiz-adv-x="1362" 
d="M176 415l51 384h39l51 -384h-38l-8 57h-49l-7 -57h-39zM227 514h38l-12 108l-7 68l-5 -68zM403 739q0 22 -16 22t-16 -22v-53q0 -24 35 -71q36 -50 36 -82v-33q0 -85 -55 -85q-54 0 -54 85v47h38v-72q0 -22 16 -22t16 22v45q0 36 -35 80q-35 45 -35 90v25q0 84 54 84
q55 0 55 -84v-36h-39v60zM544 739q0 22 -16 22t-16 -22v-53q0 -26 35 -71q35 -48 35 -82v-33q0 -85 -54 -85q-55 0 -55 85v47h39v-72q0 -22 16 -22t16 22v45q0 36 -35 80q-36 46 -36 90v25q0 84 55 84q54 0 54 -84v-36h-38v60zM729 500q0 -85 -57 -85q-58 0 -58 85v215
q0 84 58 84q57 0 57 -84v-215zM691 739q0 22 -19 22t-19 -22v-264q0 -22 19 -22t19 22v264zM837 547h36v-47q0 -85 -55 -85q-58 0 -58 85v215q0 84 58 84q55 0 55 -84v-36h-36v60q0 22 -20 22q-19 0 -19 -22v-264q0 -22 19 -22q20 0 20 22v72zM903 415v384h38v-384h-38z
M956 415l52 384h39l50 -384h-39l-7 57h-49l-7 -57h-39zM1008 514h38l-13 108l-6 68l-6 -68zM1082 799h116v-38h-39v-346h-38v346h-39v38zM1253 453h59v-38h-98v384h98v-38h-59v-131h33v-38h-33v-139zM89 0h-39v385h60q64 0 64 -88v-15q0 -90 -64 -90h-21v-192zM110 231
q25 0 25 26v64q0 25 -25 25h-21v-115h21zM238 0h-39v385h59q64 0 64 -81v-42q0 -54 -30 -76l29 -186h-39l-24 177h-20v-177zM259 216q24 0 24 26v79q0 25 -25 25h-20v-130h21zM461 85q0 -85 -58 -85t-58 85v216q0 84 58 84t58 -84v-216zM422 324q0 22 -19 22t-19 -22v-263
q0 -23 19 -23t19 23v263zM607 85q0 -85 -57 -85h-58v385h58q57 0 57 -84v-216zM569 324q0 22 -19 22h-19v-308h19q19 0 19 23v263zM715 385h38v-300q0 -85 -57 -85q-58 0 -58 85v300h38v-324q0 -23 20 -23q19 0 19 23v324zM861 132h37v-47q0 -85 -56 -85q-57 0 -57 85v216
q0 84 57 84q56 0 56 -84v-36h-37v59q0 22 -19 22t-19 -22v-263q0 -23 19 -23t19 23v71zM966 38h59v-38h-98v385h98v-39h-59v-130h33v-39h-33v-139zM1088 0h-39v385h60q64 0 64 -81v-42q0 -53 -29 -76l28 -186h-39l-25 177h-20v-177zM1109 216q25 0 25 26v79q0 25 -25 25h-21
v-130h21zM1267 324q0 22 -16 22t-16 -22v-52q0 -27 35 -72q36 -48 36 -82v-33q0 -85 -55 -85q-54 0 -54 85v47h38v-71q0 -22 16 -22t16 22v44q0 37 -35 82q-35 44 -35 89v25q0 84 54 84q55 0 55 -84v-36h-39v59z" />
    <glyph glyph-name="Udieresis" unicode="&#xdc;" horiz-adv-x="1791" 
d="M991 415v385h56l25 -207l6 -69l6 68l26 208h58v-385h-35v302l-5 -48l-33 -254h-32l-34 258l-4 43v-301h-34zM1275 800h39v-301q0 -84 -58 -84t-58 84v301h40v-325q0 -22 18 -22q19 0 19 22v325zM1417 739q0 23 -17 23t-17 -23v-52q0 -26 37 -72q18 -24 26 -44.5t8 -37.5
v-34q0 -84 -54 -84t-54 84v47h37v-71q0 -22 17 -22t17 22v45q0 33 -37 81q-18 23 -26 45t-8 45v25q0 84 54 84t54 -84v-36h-37v59zM1486 415v385h39v-385h-39zM1632 546h37v-47q0 -84 -56 -84q-59 0 -59 84v217q0 84 59 84q56 0 56 -84v-36h-37v59q0 23 -19 23t-19 -23v-264
q0 -22 19 -22t19 22v71zM121 325q0 21 -17 21q-16 0 -16 -21v-53q0 -24 36 -72t36 -82v-33q0 -85 -56 -85q-54 0 -54 85v48h38v-73q0 -22 16 -22q17 0 17 22v45q0 34 -35 81q-36 46 -36 90v24q0 85 54 85q56 0 56 -85v-35h-39v60zM267 385h39v-300q0 -85 -58 -85
q-57 0 -57 85v300h38v-325q0 -22 19 -22t19 22v325zM376 0h-39v385h59q65 0 65 -89v-15q0 -89 -65 -89h-20v-192zM396 231q26 0 26 26v64q0 25 -26 25h-20v-115h20zM524 38h59v-38h-98v385h98v-39h-59v-131h34v-38h-34v-139zM647 0h-39v385h60q64 0 64 -81v-42
q0 -53 -31 -76l30 -186h-39l-24 177h-21v-177zM668 216q25 0 25 25v80q0 25 -25 25h-21v-130h21zM880 385l-50 -385h-39l-51 385h38l26 -208l6 -67l6 67l26 208h38zM896 0v385h39v-385h-39zM1037 325q0 21 -16 21q-17 0 -17 -21v-53q0 -24 36 -72q34 -47 34 -82v-33
q0 -85 -53 -85q-55 0 -55 85v48h38v-73q0 -22 17 -22q16 0 16 22v45q0 34 -36 81q-35 45 -35 90v24q0 85 55 85q53 0 53 -85v-35h-37v60zM1222 85q0 -85 -58 -85t-58 85v215q0 85 58 85t58 -85v-215zM1183 325q0 21 -19 21q-18 0 -18 -21v-265q0 -22 18 -22q19 0 19 22v265z
M1294 226l-7 52v-278h-34v385h46l40 -220l8 -57v277h33v-385h-45zM1586 262q0 -53 -28 -66q28 -13 28 -65v-46q0 -85 -57 -85h-58v385h58q57 0 57 -85v-38zM1548 325q0 21 -19 21h-20v-131h20q19 0 19 24v86zM1548 155q0 21 -19 22h-20v-139h20q19 0 19 22v95zM1652 0v164
l-50 221h39l23 -120l8 -51l6 51l24 120h39l-50 -221v-164h-39z" />
    <glyph glyph-name="Yacute" unicode="&#xdd;" horiz-adv-x="1631" 
d="M968 739q0 23 -16 23t-16 -23v-52q0 -28 35 -72q36 -48 36 -82v-34q0 -84 -55 -84t-55 84v47h39v-71q0 -22 16 -22t16 22v45q0 34 -35 81q-36 45 -36 90v25q0 84 55 84t55 -84v-36h-39v59zM1115 546h36v-47q0 -84 -55 -84q-59 0 -59 84v217q0 84 59 84q55 0 55 -84v-36
h-36v59q0 23 -20 23q-19 0 -19 -23v-264q0 -22 19 -22q20 0 20 22v71zM1296 499q0 -84 -59 -84q-56 0 -56 84v217q0 84 56 84q59 0 59 -84v-217zM1257 739q0 23 -20 23q-18 0 -18 -23v-264q0 -22 18 -22q20 0 20 22v264zM1365 415h-39v385h61q63 0 63 -81v-43q0 -51 -30 -75
l29 -186h-38l-25 177h-21v-177zM1387 630q25 0 25 26v79q0 27 -26 27h-21v-132h22zM1513 453h58v-38h-97v385h97v-38h-58v-132h32v-38h-32v-139zM126 133h37v-48q0 -85 -56 -85q-57 0 -57 85v215q0 85 57 85q56 0 56 -84v-36h-37v60q0 21 -19 21q-20 0 -20 -21v-265
q0 -22 20 -22q19 0 19 22v73zM307 85q0 -85 -57 -85q-58 0 -58 85v215q0 85 58 85q57 0 57 -85v-215zM268 325q0 21 -18 21q-20 0 -20 -21v-265q0 -22 20 -22q18 0 18 22v265zM338 0v385h57l25 -208l7 -67l5 67l25 208h59v-385h-36v301l-4 -46l-33 -255h-33l-33 258l-4 43
v-301h-35zM584 0h-37v385h58q64 0 64 -89v-15q0 -89 -63 -89h-22v-192zM606 231q25 0 25 26v64q0 25 -26 25h-21v-115h22zM810 85q0 -85 -58 -85q-57 0 -57 85v215q0 85 57 85q58 0 58 -85v-215zM772 325q0 21 -20 21q-19 0 -19 -21v-265q0 -22 19 -22q20 0 20 22v265z
M912 325q0 21 -16 21t-16 -21v-53q0 -25 35 -72q35 -49 35 -82v-33q0 -85 -54 -85q-55 0 -55 85v48h39v-73q0 -22 16 -22t16 22v45q0 36 -35 81q-36 46 -36 90v24q0 85 55 85q54 0 54 -85v-35h-38v60zM1021 38h59v-38h-98v385h98v-39h-59v-131h33v-38h-33v-139zM1220 85
q0 -85 -58 -85h-57v385h57q58 0 58 -85v-215zM1182 325q0 21 -20 21h-19v-308h19q20 0 20 22v265zM1425 262q0 -53 -27 -66q27 -13 27 -65v-46q0 -85 -57 -85h-57v385h57q57 0 57 -85v-38zM1387 325q0 21 -19 21h-20v-131h20q19 0 19 24v86zM1387 155q0 21 -19 22h-20v-139
h20q19 0 19 22v95zM1492 0v164l-51 221h40l23 -120l8 -51l5 51l23 120h41l-51 -221v-164h-38z" />
    <glyph glyph-name="Thorn" unicode="&#xde;" horiz-adv-x="1356" 
d="M50 415l51 385h39l52 -385h-40l-8 57h-48l-6 -57h-40zM101 514h39l-13 108l-6 69l-6 -68zM321 499q0 -84 -56 -84h-58v385h58q56 0 56 -84v-217zM284 739q0 23 -19 23h-20v-309h20q19 0 19 22v264zM469 499q0 -84 -58 -84h-58v385h58q58 0 58 -84v-217zM430 739
q0 23 -19 23h-19v-309h19q19 0 19 22v264zM500 415v385h38v-385h-38zM555 800h116v-38h-39v-347h-38v347h-39v38zM688 415v385h37v-385h-37zM873 499q0 -84 -59 -84q-57 0 -57 84v217q0 84 57 84q59 0 59 -84v-217zM834 739q0 23 -20 23q-18 0 -18 -23v-264q0 -22 18 -22
q20 0 20 22v264zM945 641l-7 52v-278h-36v385h47l40 -220l7 -58v278h35v-385h-46zM1047 415l51 385h39l50 -385h-38l-7 57h-50l-6 -57h-39zM1098 514h38l-12 108l-7 69l-6 -68zM1242 453h59v-38h-98v385h39v-347zM269 0v385h56l26 -208l6 -67l7 67l25 208h57v-385h-33v301
l-5 -46l-35 -255h-31l-34 258l-4 43v-301h-35zM554 385h40v-300q0 -85 -59 -85q-58 0 -58 85v300h39v-325q0 -22 19 -22t19 22v325zM696 325q0 21 -17 21q-16 0 -16 -21v-53q0 -25 35 -72t35 -82v-33q0 -85 -54 -85q-56 0 -56 85v48h40v-73q0 -22 16 -22q17 0 17 22v45
q0 18 -9.5 38t-27.5 43q-17 23 -26.5 45t-9.5 45v24q0 85 56 85q54 0 54 -85v-35h-37v60zM765 0v385h37v-385h-37zM910 133h38v-48q0 -85 -56 -85q-58 0 -58 85v215q0 85 58 85q56 0 56 -84v-36h-38v60q0 21 -18 21q-19 0 -19 -21v-265q0 -22 19 -22q18 0 18 22v73z
M1151 262q0 -53 -27 -66q27 -14 27 -65v-46q0 -85 -58 -85h-57v385h57q58 0 58 -85v-38zM1112 325q0 21 -19 21h-18v-131h19q18 0 18 24v86zM1112 155q0 20 -18 22h-19v-139h18q19 0 19 22v95zM1217 0v164l-50 221h39l23 -120l7 -51l8 51l23 120h39l-50 -221v-164h-39z" />
    <glyph glyph-name="germandbls" unicode="&#xdf;" horiz-adv-x="1261" 
d="M284 546h37v-47q0 -84 -56 -84q-59 0 -59 84v217q0 84 59 84q56 0 56 -84v-36h-37v59q0 23 -19 23q-20 0 -20 -23v-264q0 -22 20 -22q19 0 19 22v71zM465 499q0 -84 -59 -84q-56 0 -56 84v217q0 84 56 84q59 0 59 -84v-217zM426 739q0 23 -20 23q-19 0 -19 -23v-264
q0 -22 19 -22q20 0 20 22v264zM567 739q0 23 -16 23q-17 0 -17 -23v-52q0 -27 36 -72q35 -49 35 -82v-34q0 -84 -54 -84q-55 0 -55 84v47h38v-71q0 -22 17 -22q16 0 16 22v45q0 34 -36 81q-35 44 -35 90v25q0 84 55 84q54 0 54 -84v-36h-38v59zM623 800h115v-38h-38v-347
h-39v347h-38v38zM831 800h39v-301q0 -84 -58 -84q-57 0 -57 84v301h38v-325q0 -22 19 -22t19 22v325zM901 415v385h57l24 -207l7 -69l6 68l26 208h58v-385h-35v302l-5 -48l-33 -254h-33l-33 258l-4 43v-301h-35zM1148 453h59v-38h-98v385h99v-38h-60v-132h34v-38h-34v-139z
M164 85q0 -85 -57 -85h-57v385h57q57 0 57 -85v-215zM127 325q0 21 -20 21h-19v-308h19q20 0 20 22v265zM235 38h58v-38h-97v385h97v-39h-58v-131h33v-38h-33v-139zM390 325q0 21 -17 21q-16 0 -16 -21v-53q0 -25 35 -72q37 -49 37 -82v-33q0 -85 -56 -85q-54 0 -54 85v48
h38v-73q0 -22 16 -22q17 0 17 22v45q0 34 -36 81q-35 47 -35 90v24q0 85 54 85q56 0 56 -85v-35h-39v60zM459 0v385h39v-385h-39zM587 177h58v-177l-18 26q-12 -26 -40 -26q-58 0 -58 85v215q0 85 58 85t58 -84v-36h-36v60q0 21 -22 21q-20 0 -20 -21v-265q0 -22 20 -22
q22 0 22 22v79h-22v38zM716 226l-7 52v-278h-36v385h47l39 -220l8 -57v277h35v-385h-47zM871 38h59v-38h-98v385h98v-39h-59v-131h34v-38h-34v-139zM995 0h-40v385h60q64 0 64 -81v-42q0 -54 -31 -76l30 -186h-39l-24 177h-20v-177zM1015 216q25 0 25 25v80q0 25 -25 25h-20
v-130h20zM1173 325q0 21 -16 21t-16 -21v-53q0 -25 35 -72t35 -82v-33q0 -85 -54 -85q-55 0 -55 85v48h39v-73q0 -22 16 -22t16 22v45q0 36 -35 81q-36 46 -36 90v24q0 85 55 85q54 0 54 -85v-35h-38v60z" />
    <glyph glyph-name="agrave" unicode="&#xe0;" horiz-adv-x="658" 
d="M50 0l50 385h40l51 -385h-39l-8 57h-49l-6 -57h-39zM100 99h40l-14 109l-7 68l-5 -68zM199 46h35v-46h-35v46zM338 133h36v-48q0 -85 -56 -85q-57 0 -57 85v215q0 85 57 85q56 0 56 -84v-36h-36v60q0 21 -20 21q-19 0 -19 -21v-265q0 -22 19 -22q20 0 20 22v73zM396 46
h35v-46h-35v46zM495 38h61v-38h-98v385h98v-39h-60v-131h34v-38h-35v-139zM573 46h35v-46h-35v46z" />
    <glyph glyph-name="aacute" unicode="&#xe1;" horiz-adv-x="679" 
d="M50 0l51 386h40l50 -386h-39l-7 57h-49l-7 -57h-39zM101 99h39l-13 109l-6 69l-6 -69zM201 47h35v-47h-35v47zM332 325q0 22 -16 22t-16 -22v-52q0 -24 35 -73q36 -47 36 -82v-33q0 -85 -55 -85q-54 0 -54 85v48h38v-72q0 -23 16 -23t16 23v44q0 37 -35 82q-35 44 -35 90
v24q0 85 54 85q55 0 55 -85v-35h-39v59zM396 47h35v-47h-35v47zM533 133h37v-48q0 -85 -57 -85t-57 85v216q0 85 57 85t57 -85v-35h-37v59q0 22 -20 22q-19 0 -19 -22v-264q0 -23 19 -23q20 0 20 23v72zM594 47h35v-47h-35v47z" />
    <glyph glyph-name="acircumflex" unicode="&#xe2;" horiz-adv-x="1138" 
d="M121 325q0 22 -16 22q-17 0 -17 -22v-53q0 -25 36 -73q17 -23 26.5 -43.5t9.5 -37.5v-34q0 -84 -55 -84t-55 84v48h38v-72q0 -22 17 -22q16 0 16 22v45q0 36 -36 81q-35 44 -35 90v24q0 85 55 85t55 -85v-35h-39v60zM177 385h115v-38h-38v-347h-39v347h-38v38zM294 0
l51 385h38l51 -385h-38l-8 58h-49l-7 -58h-38zM345 99h38l-13 108l-6 69l-6 -68zM484 0h-37v385h58q64 0 64 -81v-42q0 -54 -30 -76l30 -186h-39l-25 177h-21v-177zM506 215q25 0 25 27v79q0 26 -26 26h-21v-132h22zM632 0h-39v385h60q63 0 63 -81v-42q0 -53 -29 -76
l28 -186h-39l-24 177h-20v-177zM653 215q25 0 25 27v79q0 26 -25 26h-21v-132h21zM744 0v385h38v-385h-38zM855 226l-7 52v-278h-35v385h46l40 -220l8 -58v278h35v-385h-47zM1028 177h59v-177l-19 26q-11 -26 -40 -26q-58 0 -58 84v216q0 85 58 85q60 0 60 -85v-35h-38v60
q0 22 -22 22q-19 0 -19 -22v-265q0 -22 19 -22q22 0 22 22v79h-22v38z" />
    <glyph glyph-name="atilde" unicode="&#xe3;" horiz-adv-x="1138" 
d="M121 740q0 21 -16 21q-17 0 -17 -21v-53q0 -26 36 -72q36 -50 36 -82v-33q0 -85 -55 -85t-55 84v48h38v-72q0 -22 17 -22q16 0 16 22v44q0 35 -36 82q-35 44 -35 89v25q0 85 55 85t55 -85v-35h-39v60zM177 800h115v-39h-38v-346h-39v346h-38v39zM294 415l51 385h38
l51 -385h-38l-8 57h-49l-7 -57h-38zM345 514h38l-13 108l-6 68l-6 -68zM484 415h-37v385h58q64 0 64 -81v-43q0 -53 -30 -75l30 -186h-39l-25 176h-21v-176zM506 630q25 0 25 26v80q0 25 -26 25h-21v-131h22zM632 415h-39v385h60q63 0 63 -81v-43q0 -52 -29 -75l28 -186h-39
l-24 176h-20v-176zM653 630q25 0 25 26v80q0 25 -25 25h-21v-131h21zM744 415v385h38v-385h-38zM855 641l-7 51v-277h-35v385h46l40 -220l8 -58v278h35v-385h-47zM1028 591h59v-176l-19 25q-10 -25 -40 -25q-58 0 -58 85v215q0 85 58 85q60 0 60 -85v-35h-38v60q0 21 -22 21
q-19 0 -19 -21v-265q0 -22 19 -22q22 0 22 22v78h-22v38z" />
    <glyph glyph-name="adieresis" unicode="&#xe4;" horiz-adv-x="1336" 
d="M128 548h37v-48q0 -85 -56 -85q-59 0 -59 85v216q0 85 59 85q56 0 56 -85v-35h-37v60q0 21 -20 21q-19 0 -19 -21v-265q0 -22 19 -22q20 0 20 22v72zM233 631h39v170h37v-386h-37v178h-39v-178h-39v386h39v-170zM325 415l52 386h38l51 -386h-38l-8 58h-49l-7 -58h-39z
M377 514h38l-13 109l-7 68l-5 -68zM516 415h-37v386h58q65 0 65 -81v-43q0 -51 -31 -76l30 -186h-39l-25 177h-21v-177zM538 632q25 0 25 25v80q0 25 -26 25h-21v-130h22zM614 415l51 386h39l51 -386h-39l-8 58h-49l-6 -58h-39zM665 514h39l-13 109l-7 68l-6 -68zM847 548
h36v-48q0 -85 -55 -85q-58 0 -58 85v216q0 85 58 85q55 0 55 -85v-35h-36v60q0 21 -19 21q-20 0 -20 -21v-265q0 -22 20 -22q19 0 19 22v72zM900 801h115v-39h-39v-347h-38v347h-38v39zM1068 454h59v-39h-98v386h98v-39h-59v-131h33v-38h-33v-139zM1190 415h-39v386h60
q63 0 63 -81v-43q0 -53 -29 -76l28 -186h-39l-24 177h-20v-177zM1211 632q24 0 24 25v80q0 25 -24 25h-21v-130h21zM318 386l-51 -386h-39l-51 386h39l25 -208l6 -69l6 68l26 209h39zM449 84q0 -84 -57 -84q-58 0 -58 84v217q0 85 58 85q57 0 57 -85v-217zM411 325
q0 22 -19 22q-20 0 -20 -22v-264q0 -23 20 -23q19 0 19 23v264zM481 0v386h37v-386h-37zM626 132h37v-48q0 -84 -57 -84t-57 84v217q0 85 57 85t57 -85v-35h-37v59q0 22 -20 22q-19 0 -19 -22v-264q0 -23 19 -23q20 0 20 23v71zM728 38h59v-38h-97v386h97v-39h-59v-131h33
v-39h-33v-139zM886 325q0 22 -16 22t-16 -22v-53q0 -25 35 -72q36 -48 36 -82v-34q0 -84 -55 -84t-55 84v48h39v-71q0 -23 16 -23t16 23v44q0 37 -35 81q-17 23 -26.5 45.5t-9.5 44.5v25q0 85 55 85t55 -85v-35h-39v59zM1131 262q0 -53 -27 -65q27 -15 27 -66v-47
q0 -84 -57 -84h-58v386h58q57 0 57 -85v-39zM1092 325q0 22 -18 22h-20v-131h20q18 0 18 22v87zM1092 155q0 22 -18 22h-20v-139h20q18 0 18 23v94zM1197 0v165l-51 221h40l24 -119l6 -52l8 52l23 119h39l-50 -221v-165h-39z" />
    <glyph glyph-name="aring" unicode="&#xe5;" horiz-adv-x="864" 
d="M191 801l-51 -386h-39l-51 386h39l25 -208l6 -68l6 68l26 208h39zM322 500q0 -85 -57 -85q-58 0 -58 85v216q0 85 58 85q57 0 57 -85v-216zM284 741q0 21 -19 21q-20 0 -20 -21v-265q0 -22 20 -22q19 0 19 22v265zM354 415v386h38v-386h-38zM499 548h37v-48
q0 -85 -56 -85q-58 0 -58 85v216q0 85 58 85q56 0 56 -85v-35h-37v60q0 21 -20 21q-18 0 -18 -21v-265q0 -22 18 -22q20 0 20 22v72zM601 454h60v-39h-98v386h98v-39h-60v-131h35v-38h-35v-139zM759 741q0 21 -16 21t-16 -21v-53q0 -26 36 -72q35 -47 35 -83v-33
q0 -85 -55 -85q-54 0 -54 85v48h38v-72q0 -22 16 -22t16 22v44q0 37 -35 81q-35 49 -35 90v25q0 85 54 85q55 0 55 -85v-35h-39v60zM658 262q0 -54 -27 -65q27 -14 27 -66v-47q0 -84 -57 -84h-58v386h58q57 0 57 -85v-39zM620 325q0 22 -19 22h-19v-131h19q19 0 19 22v87z
M620 155q0 22 -19 22h-19v-139h19q19 0 19 23v94zM724 0v165l-50 221h40l23 -119l7 -52l7 52l23 119h40l-51 -221v-165h-39z" />
    <glyph glyph-name="ae" unicode="&#xe6;" horiz-adv-x="1224" 
d="M693 801l-52 -386h-39l-51 386h39l25 -208l7 -68l5 68l26 208h40zM823 500q0 -85 -58 -85q-57 0 -57 85v216q0 85 57 85q58 0 58 -85v-216zM784 741q0 21 -19 21q-18 0 -18 -21v-265q0 -22 18 -22q19 0 19 22v265zM854 415v386h39v-386h-39zM1000 548h37v-48
q0 -85 -56 -85q-58 0 -58 85v216q0 85 58 85q56 0 56 -85v-35h-37v60q0 21 -19 21q-20 0 -20 -21v-265q0 -22 20 -22q19 0 19 22v72zM1102 454h60v-39h-99v386h99v-39h-60v-131h34v-38h-34v-139zM50 386h116v-39h-39v-347h-38v347h-39v39zM168 0l51 386h39l51 -386h-39
l-8 58h-49l-7 -58h-38zM219 99h39l-14 108l-6 69l-6 -68zM357 38h59v-38h-97v386h38v-348zM479 38h59v-38h-98v386h98v-39h-59v-131h33v-39h-33v-139zM607 226l-6 52v-278h-35v386h46l40 -220l8 -59v279h34v-386h-46zM712 386h115v-39h-39v-347h-39v347h-37v39zM1019 262
q0 -53 -28 -65q28 -16 28 -66v-47q0 -84 -58 -84h-58v386h58q58 0 58 -85v-39zM980 325q0 22 -19 22h-20v-131h20q19 0 19 22v87zM980 155q0 22 -19 22h-20v-139h20q19 0 19 23v94zM1085 0v165l-51 221h40l22 -119l8 -52l8 52l22 119h40l-51 -221v-165h-38z" />
    <glyph glyph-name="ccedilla" unicode="&#xe7;" horiz-adv-x="1359" 
d="M242 452h58v-37h-96v384h96v-39h-58v-129h33v-40h-33v-139zM447 799l-43 -178l53 -206h-39l-26 108l-7 39l-10 -39l-24 -108h-39l53 206l-45 178h39l18 -86l8 -33l5 33l18 86h39zM512 452h59v-37h-98v384h98v-39h-59v-129h33v-40h-33v-139zM673 546h37v-47q0 -84 -57 -84
t-57 84v216q0 84 57 84t57 -84v-35h-37v58q0 22 -20 22t-20 -22v-262q0 -24 20 -24t20 24v70zM814 799h39v-300q0 -84 -57 -84q-59 0 -59 84v300h39v-323q0 -24 20 -24q18 0 18 24v323zM870 799h116v-39h-39v-345h-39v345h-38v39zM1002 415v384h39v-384h-39zM1197 799
l-51 -384h-39l-51 384h40l25 -208l6 -68l6 68l25 208h39zM1250 452h59v-37h-96v384h96v-39h-59v-129h34v-40h-34v-139zM89 0h-39v386h58q65 0 65 -88v-16q0 -90 -65 -90h-19v-192zM108 231q26 0 26 26v64q0 26 -26 26h-19v-116h19zM236 0h-37v386h58q63 0 63 -82v-42
q0 -52 -29 -76l29 -186h-39l-24 178h-21v-178zM257 215q26 0 26 28v78q0 26 -26 26h-21v-132h21zM459 84q0 -84 -57 -84q-59 0 -59 84v216q0 86 59 86q57 0 57 -86v-216zM422 325q0 22 -20 22q-19 0 -19 -22v-264q0 -22 19 -22q20 0 20 22v264zM606 84q0 -84 -57 -84h-59
v386h59q57 0 57 -86v-216zM567 325q0 22 -18 22h-19v-308h19q18 0 18 22v264zM714 386h39v-302q0 -84 -59 -84q-57 0 -57 84v302h37v-325q0 -22 20 -22t20 22v325zM861 133h35v-49q0 -84 -55 -84q-59 0 -59 84v216q0 86 59 86q28 0 41.5 -21.5t13.5 -62.5v-36h-35v59
q0 22 -20 22t-20 -22v-264q0 -22 20 -22t20 22v72zM964 39h59v-39h-98v386h98v-39h-59v-132h34v-37h-34v-139zM1086 0h-37v386h58q63 0 63 -82v-42q0 -52 -29 -76l29 -186h-39l-24 178h-21v-178zM1107 215q26 0 26 28v78q0 26 -26 26h-21v-132h21zM1266 325q0 22 -18 22
q-15 0 -15 -22v-53q0 -27 35 -72q35 -49 35 -81v-35q0 -84 -55 -84t-55 84v49h40v-72q0 -22 15 -22q18 0 18 22v45q0 36 -35 80q-18 23 -28 45.5t-10 44.5v24q0 86 55 86t55 -86v-34h-37v59z" />
    <glyph glyph-name="egrave" unicode="&#xe8;" horiz-adv-x="2115" 
d="M688 676q0 -50 -28 -65q28 -13 28 -65v-47q0 -84 -58 -84h-57v385h57q58 0 58 -85v-39zM650 739q0 23 -20 23h-19v-132h20q19 0 19 22v87zM650 570q0 20 -19 22h-20v-139h19q20 0 20 22v95zM703 415l52 385h38l51 -385h-38l-7 58h-49l-7 -58h-40zM755 514h38l-13 108
l-6 69l-6 -68zM931 739q0 23 -16 23q-17 0 -17 -23v-52q0 -26 36 -72q36 -47 36 -82v-34q0 -84 -55 -84t-55 84v49h38v-73q0 -22 17 -22q16 0 16 22v45q0 35 -35 81q-36 46 -36 90v24q0 85 55 85t55 -85v-35h-39v59zM1039 453h59v-38h-97v385h98v-38h-60v-132h34v-38h-34
v-139zM1239 499q0 -84 -58 -84h-57v385h57q58 0 58 -85v-216zM1200 739q0 23 -19 23h-20v-309h20q19 0 19 22v264zM1444 499q0 -84 -57 -84q-58 0 -58 84v216q0 85 58 85q57 0 57 -85v-216zM1405 739q0 23 -18 23q-20 0 -20 -23v-264q0 -22 20 -22q18 0 18 22v264zM1516 641
l-7 52v-278h-34v385h46l39 -220l8 -57v277h35v-385h-46zM1679 800h116v-38h-39v-347h-39v347h-38v38zM1850 630h39v170h37v-385h-37v177h-39v-177h-39v385h39v-170zM1996 453h59v-38h-97v385h97v-38h-59v-132h34v-38h-34v-139zM108 177h59v-177l-19 27q-11 -27 -40 -27
q-58 0 -58 85v216q0 85 58 85q60 0 60 -85v-35h-38v59q0 22 -22 22q-19 0 -19 -22v-264q0 -22 19 -22q22 0 22 22v78h-22v38zM233 0h-38v386h59q64 0 64 -81v-43q0 -54 -30 -75l29 -187h-38l-25 178h-21v-178zM255 217q24 0 24 25v79q0 26 -25 26h-21v-130h22zM326 0l51 386
h39l51 -386h-39l-7 58h-49l-7 -58h-39zM377 100h39l-14 108l-6 68l-6 -68zM521 0h-39v386h60q64 0 64 -89v-15q0 -89 -63 -89h-22v-193zM543 231q24 0 24 27v63q0 26 -25 26h-21v-116h22zM670 216h38v170h38v-386h-38v178h-38v-178h-39v386h39v-170zM777 0v386h39v-386h-39z
M923 132h37v-47q0 -85 -56 -85q-57 0 -57 85v216q0 85 57 85q56 0 56 -85v-35h-37v59q0 22 -19 22t-19 -22v-264q0 -22 19 -22t19 22v71zM1089 227l-6 51v-278h-35v386h46l40 -220l8 -59v279h34v-386h-46zM1322 85q0 -85 -58 -85q-57 0 -57 85v216q0 85 57 85q58 0 58 -85
v-216zM1284 325q0 22 -20 22q-18 0 -18 -22v-264q0 -22 18 -22q20 0 20 22v264zM1479 386l-51 -386h-39l-51 386h39l25 -208l6 -68l6 68l26 208h39zM1533 39h59v-39h-98v386h98v-39h-59v-131h33v-38h-33v-139zM1656 39h59v-39h-98v386h39v-347zM1910 262q0 -53 -28 -65
q28 -15 28 -65v-47q0 -85 -58 -85h-57v386h57q58 0 58 -85v-39zM1871 325q0 22 -19 22h-19v-131h19q19 0 19 22v87zM1871 156q0 21 -19 22h-19v-139h19q19 0 19 22v95zM1976 0v165l-51 221h40l23 -120l7 -51l8 51l22 120h40l-50 -221v-165h-39z" />
    <glyph glyph-name="eacute" unicode="&#xe9;" horiz-adv-x="1879" 
d="M452 676q0 -50 -27 -65q27 -14 27 -65v-47q0 -84 -58 -84h-58v385h58q58 0 58 -85v-39zM413 739q0 23 -19 23h-19v-132h19q19 0 19 22v87zM413 570q0 21 -19 22h-19v-139h19q19 0 19 22v95zM468 415l50 385h39l51 -385h-39l-7 58h-49l-7 -58h-38zM518 514h39l-13 108
l-7 69l-5 -68zM694 739q0 23 -16 23t-16 -23v-52q0 -26 36 -72q35 -47 35 -82v-34q0 -84 -55 -84q-54 0 -54 84v49h38v-73q0 -22 16 -22t16 22v45q0 37 -35 81q-35 47 -35 90v24q0 85 54 85q55 0 55 -85v-35h-39v59zM803 453h59v-38h-98v385h98v-38h-59v-132h33v-38h-33
v-139zM1002 499q0 -84 -57 -84h-58v385h58q57 0 57 -85v-216zM963 739q0 23 -18 23h-19v-309h19q18 0 18 22v264zM1208 499q0 -84 -58 -84t-58 84v216q0 85 58 85t58 -85v-216zM1170 739q0 23 -20 23q-19 0 -19 -23v-264q0 -22 19 -22q20 0 20 22v264zM1280 641l-6 52v-278
h-35v385h46l39 -220l8 -57v277h35v-385h-47zM1443 800h115v-38h-38v-347h-38v347h-39v38zM1613 630h39v170h39v-385h-39v177h-39v-177h-38v385h38v-170zM1760 453h59v-38h-97v385h98v-38h-60v-132h34v-38h-34v-139zM121 325q0 22 -16 22q-17 0 -17 -22v-53q0 -22 36 -72
q36 -48 36 -81v-34q0 -85 -55 -85t-55 85v48h38v-72q0 -22 17 -22q16 0 16 22v45q0 34 -35 81q-36 45 -36 89v25q0 85 55 85t55 -85v-35h-39v59zM229 216h38v170h39v-386h-39v178h-38v-178h-38v386h38v-170zM452 85q0 -85 -58 -85q-57 0 -57 85v216q0 85 57 85q58 0 58 -85
v-216zM413 325q0 22 -19 22q-18 0 -18 -22v-264q0 -22 18 -22q19 0 19 22v264zM522 0h-39v386h59q65 0 65 -81v-43q0 -53 -30 -75l29 -187h-40l-24 178h-20v-178zM543 217q25 0 25 25v79q0 26 -26 26h-20v-130h21zM616 386h115v-39h-38v-347h-38v347h-39v39zM878 325
q0 22 -16 22t-16 -22v-53q0 -24 36 -72q35 -49 35 -81v-34q0 -85 -55 -85q-54 0 -54 85v48h38v-72q0 -22 16 -22t16 22v45q0 34 -35 81q-35 44 -35 89v25q0 85 54 85q55 0 55 -85v-35h-39v59zM934 386h115v-39h-38v-347h-38v347h-39v39zM1182 85q0 -85 -58 -85q-57 0 -57 85
v216q0 85 57 85q58 0 58 -85v-216zM1143 325q0 22 -19 22t-19 -22v-264q0 -22 19 -22t19 22v264zM1251 0h-38v386h59q64 0 64 -81v-43q0 -54 -30 -75l29 -187h-39l-25 178h-20v-178zM1272 217q26 0 26 25v79q0 26 -26 26h-21v-130h21zM1395 0v165l-51 221h40l23 -120l7 -51
l7 51l23 120h39l-50 -221v-165h-38zM1673 262q0 -26 -6.5 -42.5t-20.5 -22.5q27 -14 27 -65v-47q0 -85 -57 -85h-58v386h58q57 0 57 -85v-39zM1635 325q0 22 -19 22h-19v-131h20q18 0 18 22v87zM1635 156q0 20 -18 22h-20v-139h19q19 0 19 22v95zM1740 0v165l-51 221h39
l24 -120l7 -51l7 51l23 120h40l-51 -221v-165h-38z" />
    <glyph glyph-name="ecircumflex" unicode="&#xea;" horiz-adv-x="1517" 
d="M50 415v384h38v-384h-38zM160 641l-6 51v-277h-35v384h47l39 -219l7 -58v277h34v-384h-46zM264 799h115v-38h-38v-346h-38v346h-39v38zM434 415h-38v384h59q64 0 64 -81v-42q0 -54 -30 -76l29 -185h-38l-25 177h-21v-177zM456 630q24 0 24 26v78q0 27 -25 27h-21v-131h22
zM657 500q0 -85 -57 -85t-57 85v215q0 84 57 84t57 -84v-215zM619 739q0 22 -19 22t-19 -22v-264q0 -22 19 -22t19 22v264zM804 500q0 -85 -58 -85h-57v384h57q58 0 58 -84v-215zM765 739q0 22 -19 22h-19v-308h19q19 0 19 22v264zM911 799h38v-299q0 -85 -57 -85
q-58 0 -58 85v299h39v-324q0 -22 19 -22t19 22v324zM1057 546h37v-47q0 -84 -55 -84q-58 0 -58 85v215q0 84 58 84q55 0 55 -84v-35h-37v59q0 22 -19 22t-19 -22v-264q0 -22 19 -22t19 22v71zM1123 415v384h38v-384h-38zM1233 641l-6 51v-277h-35v384h46l39 -219l8 -58v277
h34v-384h-46zM1409 592h58v-177l-18 26q-12 -26 -41 -26q-58 0 -58 85v215q0 84 59 84q58 0 58 -84v-35h-36v59q0 22 -22 22q-20 0 -20 -22v-264q0 -22 19 -22q22 0 22 22v78h-21v39z" />
    <glyph glyph-name="edieresis" unicode="&#xeb;" horiz-adv-x="1517" 
d="M50 1v385h38v-385h-38zM160 226l-6 52v-277h-35v385h47l39 -220l7 -58v278h34v-385h-46zM264 386h115v-39h-38v-346h-38v346h-39v39zM434 1h-38v385h59q64 0 64 -81v-43q0 -52 -30 -76l29 -185h-38l-25 177h-21v-177zM456 216q24 0 24 27v78q0 26 -25 26h-21v-131h22z
M657 85q0 -84 -57 -84t-57 84v216q0 85 57 85t57 -85v-216zM619 325q0 22 -19 22t-19 -22v-264q0 -22 19 -22t19 22v264zM804 85q0 -84 -58 -84h-57v385h57q58 0 58 -85v-216zM765 325q0 22 -19 22h-19v-308h19q19 0 19 22v264zM911 386h38v-301q0 -84 -57 -84q-58 0 -58 84
v301h39v-325q0 -22 19 -22t19 22v325zM1057 133h37v-48q0 -84 -55 -84q-58 0 -58 84v216q0 85 58 85q55 0 55 -85v-35h-37v59q0 22 -19 22t-19 -22v-264q0 -22 19 -22t19 22v72zM1123 1v385h38v-385h-38zM1233 226l-6 52v-277h-35v385h46l39 -220l8 -58v278h34v-385h-46z
M1409 178h58v-177l-18 26q-12 -26 -41 -26q-58 0 -58 84v216q0 85 59 85q58 0 58 -85v-35h-36v59q0 22 -22 22q-20 0 -20 -22v-264q0 -22 19 -22q22 0 22 22v79h-21v38z" />
    <glyph glyph-name="igrave" unicode="&#xec;" horiz-adv-x="1134" 
d="M485 593h59v-178l-19 26q-11 -26 -41 -26q-58 0 -58 86v215q0 85 59 85q60 0 60 -85v-34h-39v58q0 23 -21 23q-20 0 -20 -23v-263q0 -24 19 -24q22 0 22 24v77h-21v39zM649 801h38v-300q0 -86 -57 -86q-58 0 -58 86v300h38v-324q0 -24 20 -24q19 0 19 24v324zM757 453h58
v-38h-97v386h97v-38h-57v-132h32v-38h-33v-140zM913 740q0 23 -17 23q-16 0 -16 -23v-52q0 -27 35 -72q36 -48 36 -82v-33q0 -86 -55 -86q-56 0 -56 86v47h40v-71q0 -24 16 -24q17 0 17 24v43q0 35 -36 82q-37 48 -37 89v25q0 85 56 85q55 0 55 -85v-34h-38v58zM968 801h116
v-38h-40v-348h-37v348h-39v38zM120 325q0 23 -16 23t-16 -23v-52q0 -25 36 -73q17 -24 26.5 -44t9.5 -38v-32q0 -86 -56 -86q-54 0 -54 86v47h38v-71q0 -23 16 -23t16 23v43q0 18 -8 38.5t-26 43.5q-36 45 -36 89v25q0 85 54 85q56 0 56 -85v-35h-40v59zM176 386h116v-38
h-38v-348h-38v348h-40v38zM275 0l52 386h39l51 -386h-39l-7 58h-49l-6 -58h-41zM327 99h38l-13 109l-5 68l-7 -67zM471 0h-39v386h60q64 0 64 -81v-42q0 -54 -29 -77l28 -186h-39l-24 177h-21v-177zM493 217q25 0 25 25v80q0 26 -26 26h-21v-131h22zM618 0h-38v386h59
q64 0 64 -81v-42q0 -54 -29 -77l28 -186h-39l-25 177h-20v-177zM639 217q26 0 26 25v80q0 26 -26 26h-21v-131h21zM727 0v386h38v-386h-38zM838 226l-7 52v-278h-35v386h46l40 -219l7 -59v278h35v-386h-45zM1014 177h58v-177l-19 26q-11 -26 -40 -26q-58 0 -58 86v215
q0 85 59 85t59 -85v-35h-37v59q0 23 -22 23q-20 0 -20 -23v-263q0 -23 19 -23q23 0 23 23v78h-22v37z" />
    <glyph glyph-name="iacute" unicode="&#xed;" horiz-adv-x="1629" 
d="M50 415v386h57l25 -208l7 -68l5 68l26 208h58v-386h-35v302l-5 -46l-34 -256h-31l-34 260l-4 41v-301h-35zM243 415l51 386h39l51 -386h-38l-8 58h-49l-7 -58h-39zM294 514h38l-12 110l-6 67l-7 -67zM438 415h-38v386h60q63 0 63 -81v-42q0 -53 -29 -77l28 -186h-38
l-25 178h-21v-178zM460 631q26 0 26 27v78q0 27 -26 27h-22v-132h22zM534 801h115v-38h-39v-348h-39v348h-37v38zM667 415v386h37v-386h-37zM719 415l52 386h39l51 -386h-39l-8 58h-49l-6 -58h-40zM771 514h38l-13 110l-6 67l-6 -67zM915 453h60v-38h-99v386h39v-348z
M1039 415l51 386h40l51 -386h-40l-8 58h-49l-6 -58h-39zM1090 514h39l-13 110l-7 67l-5 -67zM1234 415h-38v386h60q63 0 63 -81v-42q0 -54 -30 -77l29 -186h-38l-25 178h-21v-178zM1256 631q25 0 25 27v78q0 27 -25 27h-22v-132h22zM1330 801h114v-38h-38v-348h-39v348h-37
v38zM1533 740q0 23 -16 23q-17 0 -17 -23v-52q0 -25 35 -72q36 -48 36 -82v-33q0 -86 -54 -86q-56 0 -56 86v47h39v-71q0 -24 17 -24q16 0 16 24v43q0 35 -36 82q-36 46 -36 89v25q0 85 56 85q54 0 54 -85v-34h-38v58zM676 86q0 -86 -58 -86h-57v386h57q58 0 58 -85v-215z
M638 325q0 23 -20 23h-18v-309h18q20 0 20 23v263zM708 0v386h38v-386h-38zM816 0h-39v386h60q63 0 63 -81v-42q0 -55 -28 -77l27 -186h-38l-25 177h-20v-177zM837 217q26 0 26 25v80q0 26 -26 26h-21v-131h21zM962 39h60v-39h-97v386h97v-38h-60v-131h35v-40h-35v-138z
M1125 133h36v-47q0 -86 -56 -86q-58 0 -58 86v215q0 85 58 85q56 0 56 -85v-35h-36v59q0 23 -20 23t-20 -23v-263q0 -23 20 -23t20 23v71zM1176 386h115v-38h-37v-348h-39v348h-39v38zM1424 86q0 -86 -58 -86q-57 0 -57 86v215q0 85 57 85q58 0 58 -85v-215zM1386 325
q0 23 -20 23q-19 0 -19 -23v-263q0 -23 19 -23q20 0 20 23v263zM1493 0h-38v386h60q64 0 64 -81v-42q0 -55 -30 -77l29 -186h-39l-24 177h-22v-177zM1516 217q25 0 25 25v80q0 26 -26 26h-22v-131h23z" />
    <glyph glyph-name="icircumflex" unicode="&#xee;" horiz-adv-x="1928" 
d="M350 415v386h56l26 -208l6 -68l6 68l26 208h57v-386h-34v302l-5 -46l-34 -256h-32l-33 260l-4 41v-301h-35zM543 415l51 386h39l51 -386h-38l-8 58h-49l-8 -58h-38zM594 514h38l-12 110l-6 67l-7 -67zM738 415h-38v386h59q64 0 64 -81v-42q0 -53 -29 -77l28 -186h-39
l-25 178h-20v-178zM759 631q26 0 26 27v78q0 27 -26 27h-21v-132h21zM834 801h115v-38h-39v-348h-39v348h-37v38zM965 415v386h39v-386h-39zM1019 415l51 386h40l51 -386h-40l-7 58h-49l-7 -58h-39zM1070 514h39l-13 110l-6 67l-6 -67zM1215 453h59v-38h-98v386h39v-348z
M1339 415l51 386h38l52 -386h-40l-7 58h-49l-7 -58h-38zM1390 514h38l-12 110l-8 67l-5 -67zM1533 415h-37v386h59q64 0 64 -81v-42q0 -53 -30 -77l29 -186h-38l-25 178h-22v-178zM1555 631q25 0 25 27v78q0 27 -25 27h-22v-132h22zM1629 801h115v-38h-38v-348h-39v348h-38
v38zM1833 740q0 23 -17 23q-16 0 -16 -23v-52q0 -25 35 -72q36 -48 36 -82v-33q0 -86 -55 -86t-55 86v47h39v-71q0 -24 16 -24q17 0 17 24v43q0 35 -36 82q-36 46 -36 89v25q0 85 55 85t55 -85v-34h-38v58zM128 133h37v-47q0 -86 -57 -86q-58 0 -58 86v215q0 85 58 85
q57 0 57 -85v-35h-37v59q0 23 -20 23q-19 0 -19 -23v-263q0 -23 19 -23q20 0 20 23v71zM232 217h38v169h39v-386h-39v177h-38v-177h-39v386h39v-169zM455 86q0 -86 -58 -86q-57 0 -57 86v215q0 85 57 85q58 0 58 -85v-215zM418 325q0 23 -21 23q-19 0 -19 -23v-263
q0 -23 19 -23q21 0 21 23v263zM525 0h-39v386h60q64 0 64 -81v-42q0 -55 -30 -77l29 -186h-38l-25 177h-21v-177zM547 217q25 0 25 25v80q0 26 -26 26h-21v-131h22zM672 39h59v-39h-98v386h98v-38h-59v-131h34v-40h-34v-138zM872 86q0 -86 -58 -86q-57 0 -57 86v215
q0 85 57 85q58 0 58 -85v-215zM834 325q0 23 -20 23q-19 0 -19 -23v-263q0 -23 19 -23q20 0 20 23v263zM962 177h58v-177l-19 26q-11 -26 -40 -26q-58 0 -58 86v215q0 85 59 85t59 -85v-35h-38v59q0 23 -21 23t-21 -23v-263q0 -23 20 -23q22 0 22 23v78h-21v37zM1087 0h-39
v386h60q63 0 63 -81v-42q0 -56 -28 -77l27 -186h-38l-25 177h-20v-177zM1108 217q25 0 25 25v80q0 26 -25 26h-21v-131h21zM1179 0l52 386h39l52 -386h-40l-7 58h-49l-6 -58h-41zM1231 99h39l-13 109l-7 68l-5 -67zM1376 0h-39v386h59q64 0 64 -89v-15q0 -89 -63 -89h-21
v-193zM1397 232q25 0 25 26v64q0 26 -26 26h-20v-116h21zM1524 217h38v169h39v-386h-39v177h-38v-177h-39v386h39v-169zM1670 39h60v-39h-98v386h98v-38h-60v-131h34v-40h-34v-138zM1793 0h-38v386h59q64 0 64 -81v-42q0 -54 -29 -77l28 -186h-38l-25 177h-21v-177z
M1814 217q26 0 26 25v80q0 26 -26 26h-21v-131h21z" />
    <glyph glyph-name="idieresis" unicode="&#xef;" horiz-adv-x="2010" 
d="M122 740q0 22 -17 22q-16 0 -16 -22v-53q0 -23 35 -72q36 -47 36 -81v-34q0 -84 -55 -84t-55 84v48h39v-72q0 -22 16 -22q17 0 17 22v45q0 34 -36 81q-36 45 -36 90v24q0 85 55 85t55 -85v-35h-38v59zM229 416h-38v385h60q63 0 63 -89v-15q0 -89 -63 -89h-22v-192z
M251 647q25 0 25 26v63q0 26 -25 26h-22v-115h22zM378 453h59v-37h-98v385h98v-39h-59v-130h34v-39h-34v-140zM539 548h37v-48q0 -84 -56 -84q-58 0 -58 84v216q0 85 58 85q56 0 56 -85v-35h-37v59q0 22 -19 22t-19 -22v-264q0 -23 19 -23t19 23v72zM605 416v385h38v-385
h-38zM658 416l52 385h39l51 -385h-39l-7 57h-50l-6 -57h-40zM710 515h38l-13 108l-6 69l-6 -68zM854 453h59v-37h-98v385h39v-348zM993 416v385h56l26 -208l6 -68l6 68l26 208h57v-385h-34v301l-5 -46l-34 -255h-32l-33 259l-4 42v-301h-35zM1186 416l51 385h39l51 -385h-39
l-8 57h-49l-6 -57h-39zM1237 515h38l-13 108l-6 69l-6 -68zM1342 416v385h39v-176l10 34l47 142h40l-64 -188l68 -197h-41l-50 151l-10 34v-185h-39zM1537 453h59v-37h-98v385h98v-39h-59v-130h33v-39h-33v-140zM1757 801h39v-301q0 -84 -58 -84t-58 84v301h39v-325
q0 -23 19 -23t19 23v325zM1865 416h-38v385h59q65 0 65 -89v-15q0 -89 -64 -89h-22v-192zM1887 647q25 0 25 26v63q0 26 -26 26h-21v-115h22zM780 39h59v-38h-97v385h97v-38h-59v-132h34v-38h-34v-139zM903 1h-39v385h98v-38h-59v-132h34v-38h-34v-177zM1023 1h-38v385h98
v-38h-60v-132h35v-38h-35v-177zM1144 39h59v-38h-98v385h98v-38h-59v-132h34v-38h-34v-139zM1305 133h37v-48q0 -84 -56 -84q-58 0 -58 84v216q0 85 58 85q56 0 56 -85v-35h-37v59q0 23 -19 23t-19 -23v-264q0 -22 19 -22t19 22v72zM1357 386h115v-38h-38v-347h-38v347h-39
v38zM1560 325q0 23 -16 23q-17 0 -17 -23v-52q0 -26 36 -72q36 -48 36 -82v-34q0 -84 -55 -84t-55 84v48h38v-72q0 -22 17 -22q16 0 16 22v45q0 37 -35 81q-36 46 -36 90v24q0 85 55 85t55 -85v-35h-39v59zM1804 263q0 -52 -27 -66q27 -13 27 -65v-47q0 -84 -57 -84h-58v385
h58q57 0 57 -85v-38zM1766 325q0 23 -19 23h-19v-132h20q18 0 18 22v87zM1766 156q0 20 -18 22h-20v-139h19q19 0 19 22v95zM1871 1v164l-51 221h39l24 -119l6 -52l8 52l23 119h40l-51 -221v-164h-38z" />
    <glyph glyph-name="eth" unicode="&#xf0;" horiz-adv-x="666" 
d="M165 261q0 -50 -27 -65q27 -14 27 -65v-47q0 -84 -57 -84h-58v385h58q57 0 57 -85v-39zM127 324q0 23 -19 23h-19v-131h19q19 0 19 21v87zM127 155q0 21 -19 22h-19v-139h19q19 0 19 22v95zM189 46h36v-46h-36v46zM322 324q0 23 -17 23q-16 0 -16 -23v-52q0 -25 35 -72
q36 -47 36 -81v-35q0 -84 -55 -84t-55 84v48h39v-72q0 -21 16 -21q17 0 17 21v45q0 35 -35 82q-37 44 -37 89v24q0 85 55 85t55 -85v-35h-38v59zM385 46h34v-46h-34v46zM523 132h36v-48q0 -84 -56 -84q-57 0 -57 84v216q0 85 57 85q56 0 56 -85v-34h-36v58q0 23 -20 23
q-19 0 -19 -23v-264q0 -22 19 -22q20 0 20 22v72zM582 46h34v-46h-34v46z" />
    <glyph glyph-name="ntilde" unicode="&#xf1;" horiz-adv-x="653" 
d="M285 386l-51 -385h-35l-32 245l-31 -245h-35l-51 385h39l25 -208l7 -68l5 68l26 208h31l26 -208l6 -68l6 68l25 208h39zM301 1v385h38v-385h-38zM356 386h115v-38h-38v-347h-39v347h-38v38zM526 216h39v170h38v-385h-38v177h-39v-177h-38v385h38v-170z" />
    <glyph glyph-name="ograve" unicode="&#xf2;" horiz-adv-x="932" 
d="M142 740q0 22 -17 22q-16 0 -16 -22v-53q0 -25 36 -73q35 -47 35 -81v-34q0 -84 -55 -84q-54 0 -54 84v48h38v-72q0 -22 16 -22q17 0 17 22v44q0 36 -35 82q-36 45 -36 90v24q0 85 54 85q55 0 55 -85v-35h-38v60zM288 547h37v-48q0 -84 -55 -84q-58 0 -58 84v216
q0 85 58 85q55 0 55 -84v-36h-37v60q0 22 -19 22t-19 -22v-265q0 -22 19 -22t19 22v72zM392 415h-38v385h59q64 0 64 -81v-43q0 -52 -29 -75l29 -186h-39l-25 177h-21v-177zM414 630q24 0 24 27v78q0 27 -25 27h-21v-132h22zM539 453h60v-38h-98v385h98v-38h-60v-132h34v-38
h-34v-139zM662 453h60v-38h-98v385h98v-38h-60v-132h34v-38h-34v-139zM788 641l-7 52v-278h-35v385h46l40 -220l7 -58v278h35v-385h-46zM286 386l-51 -386h-35l-33 246l-31 -246h-35l-51 386h39l25 -209l7 -68l5 68l26 209h31l26 -209l6 -68l6 68l25 209h40zM339 0h-38v386
h59q64 0 64 -81v-43q0 -56 -29 -76l28 -186h-38l-25 177h-21v-177zM361 216q25 0 25 25v80q0 26 -26 26h-21v-131h22zM448 0v386h38v-386h-38zM503 386h115v-39h-38v-347h-38v347h-39v39zM674 38h60v-38h-99v386h99v-39h-60v-131h34v-39h-34v-139zM797 0h-39v386h60
q64 0 64 -81v-43q0 -55 -30 -76l29 -186h-39l-25 177h-20v-177zM818 216q26 0 26 25v80q0 26 -26 26h-21v-131h21z" />
    <glyph glyph-name="oacute" unicode="&#xf3;" horiz-adv-x="1064" 
d="M283 740q0 21 -16 21q-17 0 -17 -21v-53q0 -27 35 -72q36 -48 36 -81v-34q0 -85 -54 -85q-55 0 -55 85v47h38v-71q0 -22 17 -22q16 0 16 22v44q0 35 -36 82q-35 46 -35 89v25q0 84 55 84q54 0 54 -84v-35h-38v59zM429 547h37v-47q0 -85 -56 -85q-58 0 -58 85v216
q0 84 58 84q56 0 56 -84v-35h-37v59q0 22 -20 22q-19 0 -19 -22v-264q0 -22 19 -22q20 0 20 22v71zM533 415h-39v385h60q64 0 64 -81v-42q0 -54 -30 -76l29 -186h-39l-24 177h-21v-177zM554 631q25 0 25 26v79q0 26 -25 26h-21v-131h21zM680 454h59v-39h-98v385h98v-38h-59
v-131h33v-39h-33v-138zM802 454h59v-39h-97v385h97v-38h-59v-131h34v-39h-34v-138zM928 641l-7 52v-278h-35v385h46l40 -219l8 -59v278h34v-385h-46zM285 386l-50 -385h-35l-32 246l-31 -246h-35l-52 385h40l24 -207l7 -69l6 68l25 208h31l26 -207l6 -69l6 68l26 208h38z
M340 1h-39v385h59q64 0 64 -81v-42q0 -53 -29 -76l28 -186h-39l-25 177h-19v-177zM361 217q25 0 25 25v79q0 26 -26 26h-20v-130h21zM448 1v385h38v-385h-38zM503 386h116v-39h-39v-346h-39v346h-38v39zM674 40h59v-39h-98v385h98v-39h-59v-130h33v-39h-33v-138zM797 1h-39
v385h59q64 0 64 -81v-42q0 -53 -29 -76l28 -186h-39l-25 177h-19v-177zM817 217q26 0 26 25v79q0 26 -26 26h-20v-130h20zM975 326q0 21 -16 21t-16 -21v-53q0 -25 36 -73q35 -47 35 -80v-34q0 -85 -55 -85q-54 0 -54 85v47h38v-71q0 -22 16 -22t16 22v44q0 37 -35 81
q-35 47 -35 90v25q0 84 54 84q55 0 55 -84v-36h-39v60z" />
    <glyph glyph-name="ocircumflex" unicode="&#xf4;" horiz-adv-x="1307" 
d="M50 415l51 386h40l51 -386h-39l-8 58h-49l-7 -58h-39zM101 515h39l-13 108l-6 69l-6 -69zM249 641l-7 52v-278h-34v386h46l39 -220l7 -58v278h35v-386h-45zM367 415v386h38v-386h-38zM436 415v386h56l25 -208l7 -68l6 68l26 208h57v-386h-34v303l-4 -47l-35 -256h-32
l-34 259l-3 44v-303h-35zM630 415l50 386h39l51 -386h-39l-7 58h-50l-6 -58h-38zM680 515h38l-12 108l-7 69l-6 -69zM772 801h116v-38h-39v-348h-38v348h-39v38zM904 415v386h39v-386h-39zM1090 500q0 -85 -58 -85q-57 0 -57 85v217q0 84 57 84q58 0 58 -84v-217zM1051 741
q0 22 -19 22t-19 -22v-266q0 -22 19 -22t19 22v266zM1162 641l-6 52v-278h-36v386h48l38 -220l8 -58v278h35v-386h-46zM354 84q0 -84 -58 -84h-58v386h58q58 0 58 -85v-217zM315 326q0 21 -19 21h-19v-309h19q19 0 19 22v266zM386 0v386h37v-386h-37zM493 0h-38v386h59
q64 0 64 -81v-43q0 -55 -30 -76l30 -186h-40l-25 178h-20v-178zM514 216q25 0 25 26v79q0 26 -25 26h-21v-131h21zM640 38h59v-38h-97v386h97v-39h-59v-132h34v-37h-34v-140zM802 133h37v-49q0 -84 -56 -84q-58 0 -58 84v217q0 85 58 85q56 0 56 -85v-35h-37v60q0 21 -19 21
q-20 0 -20 -21v-266q0 -22 20 -22q19 0 19 22v73zM854 386h116v-39h-40v-347h-38v347h-38v39zM1101 84q0 -84 -57 -84t-57 84v217q0 85 57 85t57 -85v-217zM1063 326q0 21 -19 21t-19 -21v-266q0 -22 19 -22t19 22v266zM1171 0h-38v386h60q64 0 64 -81v-43q0 -54 -30 -76
l29 -186h-39l-25 178h-21v-178zM1193 216q25 0 25 26v79q0 26 -25 26h-22v-131h22z" />
    <glyph glyph-name="otilde" unicode="&#xf5;" horiz-adv-x="1746" 
d="M50 417v385h38v-176l10 34l47 142h40l-65 -188l69 -197h-40l-51 151l-10 35v-186h-38zM244 455h59v-38h-97v385h97v-38h-59v-132h34v-38h-34v-139zM363 417v164l-50 221h39l23 -119l8 -52l7 52l22 119h40l-51 -221v-164h-38zM511 417l51 385h39l51 -385h-38l-8 58h-50
l-5 -58h-40zM562 516h39l-13 108l-7 69l-5 -68zM709 643l-7 52v-278h-35v385h46l40 -220l8 -58v278h34v-385h-46zM826 417v385h39v-385h-39zM895 417v385h57l25 -208l6 -68l6 68l26 208h58v-385h-35v301l-5 -46l-34 -255h-31l-34 258l-4 43v-301h-35zM1088 417l51 385h38
l51 -385h-39l-7 58h-49l-6 -58h-39zM1139 516h38l-12 108l-7 69l-6 -68zM1213 802h116v-38h-38v-347h-39v347h-39v38zM1345 417v385h39v-385h-39zM1530 501q0 -84 -58 -84q-57 0 -57 84v216q0 85 57 85q58 0 58 -85v-216zM1492 741q0 23 -20 23q-19 0 -19 -23v-264
q0 -22 19 -22q20 0 20 22v264zM1602 643l-6 52v-278h-35v385h46l40 -220l7 -58v278h34v-385h-46zM443 327q0 22 -16 22t-16 -22v-52q0 -25 36 -73q35 -47 35 -81v-34q0 -84 -55 -84q-54 0 -54 84v48h38v-72q0 -22 16 -22t16 22v45q0 36 -36 81q-34 44 -34 89v25q0 85 54 85
q55 0 55 -85v-35h-39v59zM590 388h38v-301q0 -84 -58 -84q-57 0 -57 84v301h38v-325q0 -22 19 -22q20 0 20 22v325zM697 3h-38v385h59q64 0 64 -89v-15q0 -89 -64 -89h-21v-192zM718 234q26 0 26 25v64q0 27 -26 27h-21v-116h21zM845 41h60v-38h-98v385h98v-38h-60v-132h34
v-38h-34v-139zM968 3h-38v385h59q64 0 64 -81v-43q0 -54 -30 -75l29 -186h-39l-25 177h-20v-177zM989 218q26 0 26 26v79q0 27 -26 27h-21v-132h21zM1202 388l-51 -385h-39l-51 385h39l25 -208l6 -68l5 68l27 208h39zM1217 3v385h39v-385h-39zM1357 327q0 22 -16 22t-16 -22
v-52q0 -24 35 -73q35 -45 35 -81v-34q0 -84 -54 -84q-55 0 -55 84v48h39v-72q0 -22 16 -22t16 22v45q0 35 -35 81q-36 45 -36 89v25q0 85 55 85q54 0 54 -85v-35h-38v59zM1542 87q0 -84 -57 -84q-58 0 -58 84v216q0 85 58 85q57 0 57 -85v-216zM1504 327q0 23 -19 23
q-20 0 -20 -23v-264q0 -22 20 -22q19 0 19 22v264zM1612 3h-39v385h59q64 0 64 -81v-43q0 -54 -30 -75l29 -186h-38l-25 177h-20v-177zM1633 218q25 0 25 26v79q0 27 -26 27h-20v-132h21z" />
    <glyph glyph-name="odieresis" unicode="&#xf6;" horiz-adv-x="1423" 
d="M285 800l-50 -386h-36l-32 246l-31 -246h-35l-51 386h38l26 -208l6 -69l6 69l25 208h32l25 -208l6 -69l6 69l26 208h39zM301 414v386h38v-386h-38zM356 800h115v-39h-38v-347h-38v347h-39v39zM527 630h38v170h39v-386h-39v178h-38v-178h-39v386h39v-170zM694 414v386h57
l25 -208l7 -69l5 69l26 208h58v-386h-35v302l-4 -47l-35 -255h-31l-34 259l-4 42v-301h-35zM979 800h39v-302q0 -84 -57 -84q-58 0 -58 84v302h38v-325q0 -23 20 -23q18 0 18 23v325zM1120 739q0 22 -16 22t-16 -22v-53q0 -25 35 -72q36 -48 36 -81v-35q0 -84 -55 -84
t-55 84v48h39v-71q0 -23 16 -23t16 23v44q0 35 -36 82q-35 46 -35 90v23q0 86 55 86t55 -86v-35h-39v60zM1190 414v386h39v-386h-39zM1336 546h37v-48q0 -84 -55 -84q-59 0 -59 84v216q0 86 59 86q55 0 55 -85v-36h-37v60q0 22 -19 22t-19 -22v-264q0 -23 19 -23t19 23v71z
M818 -1h-38v386h98v-39h-60v-131h34v-38h-34v-178zM938 -1h-38v386h60q64 0 64 -81v-43q0 -54 -30 -76l29 -186h-39l-25 178h-21v-178zM960 215q25 0 25 26v79q0 26 -25 26h-22v-131h22zM1163 84q0 -85 -58 -85t-58 85v216q0 85 58 85t58 -85v-216zM1125 324q0 22 -20 22
q-19 0 -19 -22v-264q0 -23 19 -23q20 0 20 23v264zM1194 -1v386h56l26 -208l6 -69l6 69l25 208h58v-386h-35v301l-4 -46l-34 -255h-32l-34 259l-3 42v-301h-35z" />
    <glyph glyph-name="divide" unicode="&#xf7;" horiz-adv-x="1140" 
d="M223 500q0 -85 -58 -85q-57 0 -57 85v216q0 86 57 86q58 0 58 -86v-216zM185 741q0 22 -20 22q-19 0 -19 -22v-265q0 -22 19 -22q20 0 20 22v265zM292 415h-38v387h60q64 0 64 -81v-43q0 -54 -30 -76l29 -187h-39l-25 178h-21v-178zM314 632q25 0 25 26v79q0 26 -25 26
h-22v-131h22zM402 415v387h38v-387h-38zM529 593h59v-178l-19 26q-11 -26 -40 -26q-58 0 -58 85v216q0 86 58 86q60 0 60 -85v-36h-38v60q0 22 -22 22q-19 0 -19 -22v-265q0 -22 18 -22q23 0 23 22v79h-22v38zM616 415v387h39v-387h-39zM728 642l-7 52v-279h-35v387h46
l39 -221l8 -58v279h35v-387h-46zM829 415l52 387h39l51 -387h-39l-8 59h-49l-6 -59h-40zM881 515h38l-13 108l-6 69l-6 -68zM1025 454h59v-39h-97v387h38v-348zM50 0v386h57l26 -208l6 -69l6 69l25 208h58v-386h-35v302l-4 -46l-34 -256h-32l-34 259l-3 43v-302h-36z
M336 386h38v-301q0 -85 -57 -85q-58 0 -58 85v301h39v-325q0 -23 19 -23t19 23v325zM477 325q0 22 -16 22t-16 -22v-52q0 -24 35 -73q36 -48 36 -81v-34q0 -85 -55 -85t-55 85v48h39v-72q0 -23 16 -23t16 23v44q0 36 -36 81q-35 47 -35 90v25q0 85 55 85t55 -85v-35h-39v59z
M546 0v386h40v-386h-40zM693 133h37v-48q0 -85 -55 -85q-59 0 -59 85v216q0 85 59 85q55 0 55 -85v-35h-37v60q0 22 -19 22t-19 -22v-265q0 -23 19 -23t19 23v72zM934 262q0 -52 -28 -65q28 -15 28 -66v-46q0 -85 -58 -85h-58v386h58q58 0 58 -85v-39zM896 326q0 22 -20 22
h-19v-132h20q19 0 19 23v87zM896 156q0 20 -19 22h-20v-140h19q20 0 20 23v95zM1000 0v165l-50 221h39l23 -119l8 -52l7 52l23 119h40l-51 -221v-165h-39z" />
    <glyph glyph-name="oslash" unicode="&#xf8;" horiz-adv-x="367" 
d="M50 0l52 386h39l50 -386h-38l-7 57h-50l-6 -57h-40zM102 99h38l-13 109l-6 68l-6 -68zM279 325q0 22 -17 22q-16 0 -16 -22v-52q0 -25 36 -73q35 -49 35 -81v-34q0 -85 -55 -85q-54 0 -54 85v48h38v-72q0 -23 16 -23q17 0 17 23v44q0 36 -36 81q-35 47 -35 90v24
q0 86 54 86q55 0 55 -86v-34h-38v59z" />
    <glyph glyph-name="ugrave" unicode="&#xf9;" horiz-adv-x="367" 
d="M50 415l52 386h39l50 -386h-38l-7 57h-50l-6 -57h-40zM102 514h38l-13 108l-6 69l-6 -68zM279 739q0 23 -17 23q-16 0 -16 -23v-52q0 -26 36 -72q35 -49 35 -82v-34q0 -84 -55 -84q-54 0 -54 84v48h38v-72q0 -22 16 -22q17 0 17 22v45q0 34 -36 81q-35 47 -35 90v24
q0 86 54 86q55 0 55 -86v-35h-38v59z" />
    <glyph glyph-name="uacute" unicode="&#xfa;" horiz-adv-x="1146" 
d="M826 547h37v-48q0 -84 -56 -84q-58 0 -58 84v216q0 86 58 86q56 0 56 -86v-35h-37v59q0 23 -20 23q-19 0 -19 -23v-264q0 -22 19 -22q20 0 20 22v72zM1008 499q0 -84 -58 -84q-57 0 -57 84v216q0 86 57 86q58 0 58 -86v-216zM969 739q0 23 -19 23t-19 -23v-264
q0 -22 19 -22t19 22v264zM1032 627h64v-31h-64v31zM121 325q0 22 -16 22t-16 -22v-52q0 -25 36 -73q35 -47 35 -81v-34q0 -85 -55 -85t-55 85v48h39v-72q0 -23 16 -23t16 23v44q0 35 -35 81q-36 46 -36 90v24q0 86 55 86t55 -86v-34h-39v59zM178 386h115v-39h-38v-347h-39
v347h-38v39zM295 0l51 386h39l51 -386h-39l-7 57h-50l-7 -57h-38zM346 99h39l-14 109l-6 68l-6 -68zM487 0h-39v386h59q64 0 64 -82v-42q0 -54 -30 -76l29 -186h-39l-24 177h-20v-177zM508 216q25 0 25 26v79q0 26 -26 26h-20v-131h21zM634 0h-39v386h59q63 0 63 -82v-42
q0 -53 -29 -76l28 -186h-37l-25 177h-20v-177zM655 216q25 0 25 26v79q0 26 -26 26h-20v-131h21zM745 0v386h39v-386h-39zM856 227l-6 51v-278h-35v386h46l39 -220l8 -59v279h35v-386h-46zM1030 177h59v-177l-19 26q-11 -26 -40 -26q-58 0 -58 85v215q0 86 58 86
q60 0 60 -86v-34h-38v59q0 22 -22 22q-20 0 -20 -22v-264q0 -23 19 -23q23 0 23 23v78h-22v38z" />
    <glyph glyph-name="ucircumflex" unicode="&#xfb;" horiz-adv-x="2002" 
d="M414 415h-39v385h98v-38h-59v-131h34v-39h-34v-177zM534 453h60v-38h-98v385h98v-38h-60v-131h34v-39h-34v-139zM603 415l51 385h39l51 -385h-39l-7 57h-49l-7 -57h-39zM654 514h39l-13 108l-7 68l-5 -67zM729 800h116v-38h-39v-347h-38v347h-39v38zM938 800h39v-301
q0 -84 -58 -84q-57 0 -57 84v301h38v-325q0 -22 19 -22t19 22v325zM1046 415h-39v385h60q64 0 64 -81v-42q0 -54 -30 -76l29 -186h-39l-25 177h-20v-177zM1067 631q26 0 26 26v78q0 27 -26 27h-21v-131h21zM1154 415v385h39v-385h-39zM1265 641l-7 52v-278h-34v385h46
l40 -220l7 -58v278h35v-385h-46zM1441 592h59v-177l-19 25q-10 -25 -40 -25q-58 0 -58 84v216q0 85 58 85q60 0 60 -85v-35h-38v60q0 22 -22 22q-20 0 -20 -22v-265q0 -22 20 -22q22 0 22 22v79h-22v38zM1573 800h116v-38h-39v-347h-38v347h-39v38zM1744 631h39v169h38v-385
h-38v177h-39v-177h-39v385h39v-169zM1891 453h59v-38h-98v385h98v-38h-59v-131h34v-39h-34v-139zM192 386l-51 -386h-40l-51 386h39l26 -209l6 -68l6 68l26 209h39zM322 84q0 -84 -57 -84q-58 0 -58 84v216q0 86 58 86q57 0 57 -86v-216zM284 324q0 22 -19 22t-19 -22v-263
q0 -23 19 -23t19 23v263zM354 0v386h38v-386h-38zM500 132h36v-48q0 -84 -55 -84q-58 0 -58 84v216q0 86 58 86q55 0 55 -86v-35h-36v59q0 22 -19 22q-20 0 -20 -22v-263q0 -23 20 -23q19 0 19 23v71zM604 38h60v-38h-99v386h99v-40h-60v-130h34v-39h-34v-139zM734 386h116
v-40h-40v-346h-38v346h-38v40zM833 0l51 386h39l51 -386h-39l-8 57h-48l-7 -57h-39zM884 99h38l-13 108l-6 69l-6 -68zM1028 38h59v-38h-97v386h38v-348zM1147 38h58v-38h-97v386h97v-40h-58v-130h33v-39h-33v-139zM1272 226l-7 52v-278h-34v386h46l39 -220l8 -58v278h35
v-386h-46zM1376 386h115v-40h-38v-346h-39v346h-38v40zM1579 324q0 22 -16 22t-16 -22v-52q0 -26 36 -72q35 -49 35 -81v-35q0 -84 -55 -84t-55 84v48h39v-71q0 -23 16 -23t16 23v44q0 34 -35 81q-36 46 -36 90v24q0 86 55 86t55 -86v-35h-39v59zM1823 84q0 -84 -57 -84
q-58 0 -58 84v216q0 86 58 86q57 0 57 -86v-216zM1785 324q0 22 -19 22q-20 0 -20 -22v-263q0 -23 20 -23q19 0 19 23v263zM1893 0h-38v386h97v-40h-59v-130h34v-39h-34v-177z" />
    <glyph glyph-name="udieresis" unicode="&#xfc;" horiz-adv-x="1316" 
d="M210 415l51 386h39l51 -386h-39l-7 58h-49l-7 -58h-39zM261 514h39l-14 109l-6 69l-6 -68zM409 642l-7 52v-279h-35v386h46l40 -219l7 -59v278h35v-386h-46zM526 415v386h39v-386h-39zM596 415v386h56l26 -207l6 -69l6 68l25 208h58v-386h-34v303l-5 -47l-34 -256h-32
l-34 260l-4 42v-302h-34zM789 415l51 386h38l52 -386h-40l-7 58h-49l-7 -58h-38zM840 514h38l-13 109l-6 69l-6 -68zM915 801h115v-38h-38v-348h-39v348h-38v38zM1047 415v386h39v-386h-39zM1232 500q0 -85 -57 -85q-58 0 -58 85v216q0 85 58 85q57 0 57 -85v-216zM1194 741
q0 22 -19 22q-20 0 -20 -22v-265q0 -22 20 -22q19 0 19 22v265zM1305 642l-7 52v-279h-35v386h46l40 -219l8 -59v278h34v-386h-46zM88 0h-38v386h59q64 0 64 -89v-15q0 -89 -63 -89h-22v-193zM110 232q25 0 25 26v63q0 26 -26 26h-21v-115h22zM237 0h-39v386h60q64 0 64 -81
v-43q0 -52 -30 -76l29 -186h-39l-25 177h-20v-177zM258 216q26 0 26 26v79q0 26 -26 26h-21v-131h21zM461 84q0 -84 -57 -84q-58 0 -58 84v217q0 85 58 85q57 0 57 -85v-217zM423 325q0 22 -19 22t-19 -22v-265q0 -22 19 -22t19 22v265zM608 84q0 -84 -58 -84h-58v386h58
q58 0 58 -85v-217zM569 325q0 22 -19 22h-19v-309h19q19 0 19 22v265zM716 386h38v-302q0 -84 -57 -84q-58 0 -58 84v302h39v-326q0 -22 19 -22t19 22v326zM863 133h37v-49q0 -84 -56 -84q-59 0 -59 84v217q0 85 59 85q56 0 56 -85v-35h-37v59q0 22 -19 22q-20 0 -20 -22
v-265q0 -22 20 -22q19 0 19 22v73zM915 386h115v-39h-38v-347h-39v347h-38v39zM1047 0v386h39v-386h-39zM1232 84q0 -84 -57 -84q-58 0 -58 84v217q0 85 58 85q57 0 57 -85v-217zM1194 325q0 22 -19 22q-20 0 -20 -22v-265q0 -22 20 -22q19 0 19 22v265zM1305 227l-7 51
v-278h-35v386h46l40 -221l8 -57v278h34v-386h-46z" />
    <glyph glyph-name="yacute" unicode="&#xfd;" horiz-adv-x="1481" 
d="M164 499q0 -83 -57 -83h-57v383h57q57 0 57 -84v-216zM127 739q0 22 -20 22h-18v-307h18q20 0 20 21v264zM197 416v383h37v-383h-37zM303 416h-38v383h59q64 0 64 -81v-42q0 -54 -30 -75l30 -185h-40l-24 176h-21v-176zM324 630q25 0 25 26v79q0 26 -25 26h-21v-131h21z
M450 454h59v-38h-98v383h98v-38h-59v-131h33v-38h-33v-138zM610 547h37v-48q0 -83 -56 -83q-57 0 -57 83v216q0 84 57 84q56 0 56 -84v-35h-37v59q0 22 -19 22q-20 0 -20 -22v-264q0 -21 20 -21q19 0 19 21v72zM662 799h115v-38h-38v-345h-39v345h-38v38zM907 499
q0 -83 -57 -83t-57 83v216q0 84 57 84t57 -84v-216zM870 739q0 22 -20 22q-18 0 -18 -22v-264q0 -21 18 -21q20 0 20 21v264zM977 416h-39v383h60q64 0 64 -81v-42q0 -53 -30 -75l29 -185h-39l-24 176h-21v-176zM999 630q25 0 25 26v79q0 26 -26 26h-21v-131h22zM1258 499
q0 -83 -57 -83t-57 83v216q0 84 57 84t57 -84v-216zM1220 739q0 22 -19 22t-19 -22v-264q0 -21 19 -21t19 21v264zM1327 416h-38v383h98v-38h-60v-131h34v-38h-34v-176zM393 179h58v-176l-19 26q-11 -26 -39 -26q-59 0 -59 84v215q0 84 59 84q58 0 58 -84v-35h-36v58
q0 23 -22 23q-20 0 -20 -23v-262q0 -23 18 -23q23 0 23 23v78h-21v38zM518 3h-39v383h59q63 0 63 -80v-43q0 -52 -29 -75l29 -185h-39l-24 176h-20v-176zM538 217q26 0 26 27v78q0 26 -26 26h-20v-131h20zM610 3l50 383h39l51 -383h-39l-7 57h-49l-7 -57h-38zM660 101h39
l-13 108l-7 69l-5 -68zM803 3h-37v383h58q65 0 65 -88v-15q0 -88 -65 -88h-21v-192zM824 234q25 0 25 24v64q0 26 -25 26h-21v-114h21zM952 217h38v169h37v-383h-37v176h-38v-176h-39v383h39v-169zM1058 3v383h39v-383h-39zM1203 134h38v-47q0 -84 -56 -84q-57 0 -57 84v215
q0 84 57 84q56 0 56 -84v-35h-38v58q0 23 -18 23q-19 0 -19 -23v-262q0 -23 19 -23q18 0 18 23v71zM1340 325q0 23 -16 23t-16 -23v-52q0 -24 36 -72q34 -48 34 -80v-34q0 -84 -54 -84q-55 0 -55 84v47h39v-71q0 -22 16 -22t16 22v44q0 37 -35 82q-17 23 -26.5 44.5
t-9.5 44.5v24q0 84 55 84q54 0 54 -84v-35h-38v58z" />
    <glyph glyph-name="thorn" unicode="&#xfe;" horiz-adv-x="1765" 
d="M210 415l51 386h39l51 -386h-39l-7 58h-49l-7 -58h-39zM261 514h39l-14 109l-6 69l-6 -68zM409 642l-7 52v-279h-35v386h46l40 -219l7 -59v278h35v-386h-46zM526 415v386h39v-386h-39zM596 415v386h56l26 -207l6 -69l6 68l25 208h58v-386h-34v303l-5 -47l-34 -256h-32
l-34 260l-4 42v-302h-34zM789 415l51 386h38l52 -386h-40l-7 58h-49l-7 -58h-38zM840 514h38l-13 109l-6 69l-6 -68zM915 801h115v-38h-38v-348h-39v348h-38v38zM1047 415v386h39v-386h-39zM1232 500q0 -85 -57 -85q-58 0 -58 85v216q0 85 58 85q57 0 57 -85v-216zM1194 741
q0 22 -19 22q-20 0 -20 -22v-265q0 -22 20 -22q19 0 19 22v265zM1305 642l-7 52v-279h-35v386h46l40 -219l8 -59v278h34v-386h-46zM88 0h-38v386h59q64 0 64 -89v-15q0 -89 -63 -89h-22v-193zM110 232q25 0 25 26v63q0 26 -26 26h-21v-115h22zM237 0h-39v386h60q64 0 64 -81
v-43q0 -52 -30 -76l29 -186h-39l-25 177h-20v-177zM258 216q26 0 26 26v79q0 26 -26 26h-21v-131h21zM461 84q0 -84 -57 -84q-58 0 -58 84v217q0 85 58 85q57 0 57 -85v-217zM423 325q0 22 -19 22t-19 -22v-265q0 -22 19 -22t19 22v265zM608 84q0 -84 -58 -84h-58v386h58
q58 0 58 -85v-217zM569 325q0 22 -19 22h-19v-309h19q19 0 19 22v265zM716 386h38v-302q0 -84 -57 -84q-58 0 -58 84v302h39v-326q0 -22 19 -22t19 22v326zM863 133h37v-49q0 -84 -56 -84q-59 0 -59 84v217q0 85 59 85q56 0 56 -85v-35h-37v59q0 22 -19 22q-20 0 -20 -22
v-265q0 -22 20 -22q19 0 19 22v73zM915 386h115v-39h-38v-347h-39v347h-38v39zM1047 0v386h39v-386h-39zM1232 84q0 -84 -57 -84q-58 0 -58 84v217q0 85 58 85q57 0 57 -85v-217zM1194 325q0 22 -19 22q-20 0 -20 -22v-265q0 -22 20 -22q19 0 19 22v265zM1305 227l-7 51
v-278h-35v386h46l40 -221l8 -57v278h34v-386h-46z" />
    <glyph glyph-name="ydieresis" unicode="&#xff;" horiz-adv-x="1481" 
d="M121 740q0 22 -17 22q-16 0 -16 -22v-53q0 -24 36 -72q17 -23 26.5 -43.5t9.5 -37.5v-34q0 -85 -56 -85q-54 0 -54 85v48h38v-73q0 -21 16 -21q17 0 17 21v45q0 37 -36 82q-35 44 -35 90v24q0 85 54 85q56 0 56 -85v-35h-39v59zM306 500q0 -85 -58 -85q-57 0 -57 85v216
q0 85 57 85q58 0 58 -85v-216zM268 741q0 21 -20 21q-19 0 -19 -21v-266q0 -21 19 -21q20 0 20 21v266zM414 801h39v-301q0 -85 -58 -85t-58 85v301h39v-326q0 -21 19 -21t19 21v326zM526 642l-7 51v-278h-35v386h46l39 -220l8 -58v278h35v-386h-46zM759 500q0 -85 -59 -85
h-57v386h57q59 0 59 -85v-216zM720 741q0 21 -20 21h-19v-308h19q20 0 20 21v266zM887 454h60v-39h-98v386h98v-39h-60v-131h35v-38h-35v-139zM1010 415h-38v386h98v-39h-60v-131h34v-38h-34v-178zM1131 415h-39v386h98v-39h-59v-131h34v-38h-34v-178zM1252 454h59v-39h-98
v386h98v-39h-59v-131h33v-38h-33v-139zM1413 548h37v-48q0 -85 -56 -85q-58 0 -58 85v216q0 85 58 85q56 0 56 -84v-36h-37v60q0 21 -19 21t-19 -21v-266q0 -21 19 -21t19 21v73zM1465 801h116v-39h-39v-347h-39v347h-38v39zM1668 740q0 22 -16 22t-16 -22v-53q0 -23 35 -72
q36 -47 36 -81v-34q0 -85 -55 -85t-55 85v48h39v-73q0 -21 16 -21t16 21v45q0 35 -35 82q-36 45 -36 90v24q0 85 55 85t55 -85v-35h-39v59zM458 325q0 22 -16 22t-16 -22v-53q0 -23 35 -72q18 -23 26.5 -43.5t8.5 -37.5v-35q0 -84 -54 -84q-55 0 -55 84v49h39v-73
q0 -21 16 -21t16 21v45q0 35 -36 82q-35 46 -35 89v25q0 85 55 85q54 0 54 -85v-36h-38v60zM605 386h39v-302q0 -84 -58 -84t-58 84v302h38v-326q0 -22 20 -22q19 0 19 22v326zM712 0h-37v386h59q64 0 64 -89v-15q0 -89 -64 -89h-22v-193zM734 232q25 0 25 26v63
q0 26 -25 26h-22v-115h22zM861 38h60v-38h-98v386h98v-39h-60v-131h34v-39h-34v-139zM985 0h-39v386h59q64 0 64 -81v-43q0 -53 -29 -76l28 -186h-39l-25 177h-19v-177zM1005 216q26 0 26 26v79q0 26 -26 26h-20v-131h20zM1219 386l-52 -386h-39l-50 386h38l26 -209l6 -68
l5 68l26 209h40zM1234 0v386h39v-386h-39zM1375 325q0 22 -17 22q-16 0 -16 -22v-53q0 -23 35 -72q37 -48 37 -81v-35q0 -84 -56 -84q-55 0 -55 84v49h39v-73q0 -21 16 -21q17 0 17 21v45q0 35 -36 82q-36 45 -36 89v25q0 85 55 85q56 0 56 -85v-36h-39v60zM1560 84
q0 -84 -58 -84q-57 0 -57 84v217q0 85 57 85q58 0 58 -85v-217zM1521 325q0 22 -19 22t-19 -22v-265q0 -22 19 -22t19 22v265zM1630 0h-39v386h59q65 0 65 -81v-43q0 -52 -30 -76l29 -186h-39l-25 177h-20v-177zM1651 216q25 0 25 26v79q0 26 -26 26h-20v-131h21z" />
    <glyph glyph-name="OE" unicode="&#x152;" horiz-adv-x="585" 
d="M88 0h-38v385h97v-38h-59v-131h34v-39h-34v-177zM170 0v385h39v-385h-39zM278 39h59v-39h-97v385h38v-346zM358 0v385h56l26 -207l6 -68l6 67l25 208h58v-385h-35v301l-5 -45l-33 -256h-32l-34 259l-4 41v-300h-34z" />
    <glyph glyph-name="oe" unicode="&#x153;" horiz-adv-x="585" 
d="M88 416h-38v385h97v-38h-59v-131h34v-39h-34v-177zM170 416v385h39v-385h-39zM278 455h59v-39h-97v385h38v-346zM358 416v385h56l26 -207l6 -68l6 67l25 208h58v-385h-35v301l-5 -45l-33 -256h-32l-34 259l-4 41v-300h-34z" />
    <glyph glyph-name="Scaron" unicode="&#x160;" horiz-adv-x="383" 
d="M50 0l51 385h39l51 -385h-39l-7 57h-49l-7 -57h-39zM101 99h39l-13 108l-7 69l-5 -68zM248 226l-7 51v-277h-35v385h46l40 -219l7 -58v277h34v-385h-45z" />
    <glyph glyph-name="scaron" unicode="&#x161;" horiz-adv-x="242" 
d="M50 413l51 387h40l51 -387h-39l-7 57h-50l-7 -57h-39zM101 512h39l-13 109l-6 68l-6 -67z" />
    <glyph glyph-name="Ydieresis" unicode="&#x178;" horiz-adv-x="1526" 
d="M88 415h-38v385h59q64 0 64 -88v-16q0 -88 -64 -88h-21v-193zM110 646q24 0 24 26v64q0 26 -25 26h-21v-116h22zM236 415h-39v385h60q64 0 64 -81v-42q0 -55 -30 -76l29 -186h-39l-25 177h-20v-177zM257 631q26 0 26 25v80q0 26 -26 26h-21v-131h21zM383 453h59v-38h-97
v385h97v-38h-59v-131h33v-39h-33v-139zM538 739q0 22 -16 22t-16 -22v-52q0 -25 35 -72q36 -48 36 -81v-35q0 -84 -55 -84q-54 0 -54 84v48h38v-71q0 -23 16 -23t16 23v44q0 35 -35 81q-35 45 -35 89v25q0 85 54 85q55 0 55 -85v-35h-39v59zM647 453h59v-38h-99v385h99v-38
h-59v-131h33v-39h-33v-139zM772 641l-7 52v-278h-35v385h46l40 -220l8 -58v278h34v-385h-46zM875 800h116v-38h-38v-347h-39v347h-39v38zM1079 739q0 22 -16 22t-16 -22v-52q0 -25 35 -72q35 -49 35 -81v-35q0 -84 -54 -84q-55 0 -55 84v48h39v-71q0 -23 16 -23t16 23v44
q0 36 -36 81q-35 45 -35 89v25q0 85 55 85q54 0 54 -85v-35h-38v59zM1192 415l52 385h38l51 -385h-39l-7 57h-49l-7 -57h-39zM1244 514h38l-13 108l-7 68l-6 -67zM1390 641l-7 52v-278h-35v385h46l41 -220l7 -58v278h34v-385h-46z" />
    <glyph glyph-name="Zcaron" unicode="&#x17d;" horiz-adv-x="1369" 
d="M50 1l51 385h38l52 -385h-40l-6 58h-49l-7 -58h-39zM101 100h38l-12 108l-7 69l-6 -68zM277 326q0 21 -17 21q-15 0 -15 -21v-53q0 -27 35 -72q35 -49 35 -81v-34q0 -85 -55 -85q-54 0 -54 85v47h39v-71q0 -22 15 -22q17 0 17 22v44q0 36 -35 81q-36 45 -36 90v25
q0 84 54 84q55 0 55 -84v-36h-38v60zM418 326q0 21 -17 21q-16 0 -16 -21v-53q0 -25 35 -72q36 -48 36 -81v-34q0 -85 -55 -85t-55 85v47h39v-71q0 -22 16 -22q17 0 17 22v44q0 34 -36 81q-36 45 -36 90v25q0 84 55 84t55 -84v-36h-38v60zM602 86q0 -85 -57 -85
q-58 0 -58 85v216q0 84 58 84q57 0 57 -84v-216zM564 326q0 21 -19 21t-19 -21v-264q0 -22 19 -22t19 22v264zM710 133h37v-47q0 -85 -56 -85q-58 0 -58 85v216q0 84 58 84q56 0 56 -84v-36h-37v60q0 21 -19 21t-19 -21v-264q0 -22 19 -22t19 22v71zM776 1v385h37v-385h-37z
M829 1l51 385h39l51 -385h-39l-7 58h-49l-7 -58h-39zM880 100h39l-14 108l-6 69l-6 -68zM955 386h115v-39h-38v-346h-38v346h-39v39zM1125 40h59v-39h-97v385h97v-39h-59v-130h35v-39h-35v-138zM1281 326q0 21 -17 21q-16 0 -16 -21v-53q0 -25 35 -72q36 -48 36 -81v-34
q0 -85 -55 -85t-55 85v47h39v-71q0 -22 16 -22q17 0 17 22v44q0 34 -36 81q-36 45 -36 90v25q0 84 55 84t55 -84v-36h-38v60z" />
    <glyph glyph-name="zcaron" unicode="&#x17e;" horiz-adv-x="1162" 
d="M50 414l52 385h39l51 -385h-39l-7 57h-50l-6 -57h-40zM102 513h39l-14 108l-6 68l-6 -67zM305 414h-39v385h98v-38h-59v-131h34v-39h-34v-177zM387 414v385h39v-385h-39zM495 452h58v-38h-97v385h39v-347zM575 414v385h56l26 -208l6 -68l6 68l25 208h58v-385h-35v301
l-5 -46l-33 -255h-32l-34 258l-3 43v-301h-35zM957 676q0 -51 -27 -66q27 -14 27 -66v-46q0 -84 -57 -84h-58v385h58q57 0 57 -85v-38zM918 739q0 22 -18 22h-20v-131h20q18 0 18 22v87zM918 569q0 22 -18 22h-20v-139h20q18 0 18 23v94zM1023 414v165l-50 220h39l23 -119
l8 -52l7 52l22 119h40l-50 -220v-165h-39z" />
    <glyph glyph-name="florin" unicode="&#x192;" horiz-adv-x="1473" 
d="M50 416v385h57l24 -207l7 -69l5 68l27 208h57v-385h-34v302l-5 -46l-33 -256h-32l-33 258l-6 43v-301h-34zM297 454h59v-38h-98v385h98v-38h-59v-132h33v-38h-33v-139zM458 548h38v-47q0 -85 -57 -85q-58 0 -58 85v216q0 84 58 84q57 0 57 -84v-35h-38v59q0 22 -19 22
t-19 -22v-264q0 -23 19 -23t19 23v71zM563 631h39v170h37v-385h-37v177h-39v-177h-40v385h40v-170zM656 416l50 385h40l51 -385h-40l-6 57h-49l-8 -57h-38zM706 515h40l-13 109l-8 67l-4 -67zM855 642l-8 51v-277h-34v385h45l40 -219l8 -60v279h35v-385h-47zM971 416v385h40
v-385h-40zM1117 548h38v-47q0 -85 -57 -85q-56 0 -56 85v216q0 84 56 84q57 0 57 -84v-35h-38v59q0 22 -19 22q-18 0 -18 -22v-264q0 -23 18 -23q19 0 19 23v71zM1169 416l50 385h39l52 -385h-40l-6 57h-49l-8 -57h-38zM1219 515h39l-12 109l-8 67l-5 -67zM1364 454h59v-38
h-97v385h38v-347zM774 85q0 -85 -57 -85h-58v386h58q57 0 57 -85v-216zM737 326q0 21 -20 21h-18v-307h18q20 0 20 20v266zM844 40h61v-40h-99v386h99v-39h-61v-131h34v-38h-34v-138zM1001 326q0 21 -17 21q-16 0 -16 -21v-54q0 -23 35 -72q19 -23 27 -43.5t8 -37.5v-34
q0 -85 -54 -85q-56 0 -56 85v47h40v-71q0 -12 4 -16.5t12 -4.5t12.5 4.5t4.5 16.5v45q0 34 -36 81q-37 46 -37 90v24q0 85 56 85q54 0 54 -85v-35h-37v60zM1070 0v386h39v-386h-39zM1199 178h57v-178l-19 26q-9 -26 -39 -26q-58 0 -58 85v216q0 85 59 85q58 0 58 -85v-35
h-37v60q0 21 -21 21t-21 -21v-266q0 -20 20 -20q21 0 21 20v80h-20v38zM1327 226l-8 53v-279h-35v386h47l39 -220l8 -58v278h34v-386h-45z" />
    <glyph glyph-name="circumflex" unicode="&#x2c6;" horiz-adv-x="1128" 
d="M332 546h37v-47q0 -85 -56 -85q-58 0 -58 85v215q0 85 58 85q56 0 56 -85v-35h-37v59q0 23 -19 23t-19 -23v-263q0 -23 19 -23t19 23v71zM512 499q0 -85 -57 -85t-57 85v215q0 85 57 85t57 -85v-215zM475 738q0 23 -20 23q-19 0 -19 -23v-263q0 -23 19 -23q20 0 20 23
v263zM582 452h59v-38h-97v385h38v-347zM777 499q0 -85 -57 -85q-58 0 -58 85v215q0 85 58 85q57 0 57 -85v-215zM739 738q0 23 -19 23t-19 -23v-263q0 -23 19 -23t19 23v263zM885 799h38v-300q0 -85 -58 -85q-57 0 -57 85v300h39v-324q0 -23 18 -23q20 0 20 23v324zM993 414
h-38v385h58q65 0 65 -81v-42q0 -53 -31 -77l30 -185h-39l-25 176h-20v-176zM1014 630q25 0 25 25v79q0 27 -26 27h-20v-131h21zM166 85q0 -85 -59 -85h-57v385h57q59 0 59 -85v-215zM127 324q0 23 -20 23h-19v-309h19q20 0 20 22v264zM234 38h60v-38h-98v385h98v-38h-60
v-131h35v-39h-35v-139zM390 324q0 23 -17 23q-16 0 -16 -23v-53q0 -24 36 -72q36 -47 36 -80v-34q0 -85 -56 -85q-55 0 -55 85v47h39v-71q0 -23 16 -23q17 0 17 23v44q0 18 -9.5 38t-26.5 43q-36 46 -36 90v24q0 85 55 85q56 0 56 -85v-35h-39v59zM459 0v385h39v-385h-39z
M586 177h59v-177l-19 26q-11 -26 -40 -26q-58 0 -58 85v215q0 85 58 85q59 0 59 -85v-35h-36v59q0 23 -23 23q-19 0 -19 -23v-264q0 -22 19 -22q22 0 22 22v79h-22v38zM714 226l-6 51v-277h-34v385h46l38 -219l8 -58v277h36v-385h-48zM871 38h59v-38h-98v385h98v-38h-59
v-131h33v-39h-33v-139zM993 0h-38v385h58q65 0 65 -81v-42q0 -55 -31 -77l30 -185h-39l-25 177h-20v-177zM1014 216q25 0 25 26v78q0 27 -26 27h-20v-131h21z" />
    <glyph glyph-name="tilde" unicode="&#x2dc;" horiz-adv-x="529" 
d="M50 2l50 384h39l51 -384h-39l-6 57h-50l-7 -57h-38zM100 101h39l-13 107l-6 68l-6 -67zM247 227l-6 52v-277h-35v384h46l39 -219l7 -58v277h35v-384h-46zM479 86q0 -84 -57 -84h-58v384h58q57 0 57 -85v-215zM441 326q0 22 -19 22h-20v-308h20q19 0 19 22v264z" />
    <glyph glyph-name="endash" unicode="&#x2013;" horiz-adv-x="254" 
d="M153 717q0 29 -26 29t-26 -29v-274q0 -30 26 -30t26 30v84h51v-62q0 -105 -77 -105t-77 105v230q0 105 77 105t77 -105v-60h-51v82z" />
    <glyph glyph-name="emdash" unicode="&#x2014;" horiz-adv-x="428" 
d="M153 557q-10 -6 -19 -11.5t-17 -11.5q-16 -13 -16 -44v-49q0 -31 24 -31q28 0 28 31v116zM50 496q0 52 40 80q19 14 35 25t28 20v97q0 29 -24 29q-22 0 -22 -29v-84h-52v62q0 105 74 105q76 0 76 -105v-339h-52v20q-13 -20 -42 -20q-61 0 -61 106v33zM327 717
q0 29 -26 29t-26 -29v-274q0 -30 26 -30t26 30v84h51v-62q0 -105 -77 -105t-77 105v230q0 105 77 105t77 -105v-60h-51v82z" />
    <glyph glyph-name="quoteleft" unicode="&#x2018;" horiz-adv-x="145" 
d="M122 647h-72v80q0 74 60 73v-35q-32 0 -32 -35h44v-83z" />
    <glyph glyph-name="quoteright" unicode="&#x2019;" horiz-adv-x="147" 
d="M25 801h72v-80q0 -75 -60 -73v35q32 0 32 35h-44v83z" />
    <glyph glyph-name="quotesinglbase" unicode="&#x201a;" horiz-adv-x="242" 
d="M50 0l51 387h40l51 -387h-39l-7 57h-50l-7 -57h-39zM101 99h39l-13 109l-6 68l-6 -67z" />
    <glyph glyph-name="quotedblleft" unicode="&#x201c;" horiz-adv-x="251" 
d="M122 647h-72v80q0 74 60 73v-35q-32 0 -32 -35h44v-83zM222 647h-72v80q0 74 60 73v-35q-32 0 -32 -35h44v-83z" />
    <glyph glyph-name="quotedblright" unicode="&#x201d;" horiz-adv-x="248" 
d="M126 801h72v-80q0 -75 -60 -73v35q32 0 32 35h-44v83zM26 801h72v-80q0 -75 -60 -73v35q32 0 32 35h-44v83z" />
    <glyph glyph-name="quotedblbase" unicode="&#x201e;" horiz-adv-x="958" 
d="M403 582v82l79 24v-106h197v21q0 47 11.5 87.5t39.5 67.5q23 22 51.5 31.5t57.5 9.5q21 0 39 -3.5t30 -8.5l-12 -63q-8 4 -21 7t-30 3q-26 0 -42.5 -10.5t-26.5 -28.5t-13.5 -41.5t-3.5 -48.5v-23h126l-19 -61h-107v-383h-80v383h-63v46l-18 -46h-116v-240
q0 -42 13.5 -64t46.5 -22q17 0 27.5 1t19.5 4l4 -60q-12 -5 -30 -9t-41 -4q-29 0 -51 9.5t-37 26.5q-17 18 -24 47t-7 68v243h-68v46l-22 -46h-115v-240q0 -42 13 -64t47 -22q32 0 46 5l4 -60q-11 -5 -29.5 -9t-42.5 -4q-28 0 -50 9.5t-36 26.5q-17 18 -24.5 47t-7.5 68v243
h-68v61h68v82l80 24v-106h205zM72 74v-15h16v-8h-16v-33q0 -13 9 -13q4 0 6 1l1 -8q-6 -2 -11 -2q-6 0 -11 5t-5 16v34h-9v8h9v12zM101 40q0 5 -0.5 10t-0.5 9h10l1 -12q5 14 18 14q1 0 1 -0.5t1 -0.5v-10q-1 0 -1 0.5t-2 0.5q-13 0 -15 -16q-1 -1 -1 -2v-3v-32h-11v42z
M185 13q0 -7 2 -15h-11l-1 7q-5 -9 -19 -9q-9 0 -14 5.5t-5 11.5q0 24 38 24v1q0 4 -2.5 9t-12.5 5t-15 -4l-3 7q4 2 9 4t11 2q14 0 18.5 -8t4.5 -18v-22zM175 29q-10 0 -18.5 -2t-8.5 -12t11 -10q7 0 10 3t5 6q1 2 1 5v10zM248 0q-6 -4 -18 -4q-14 0 -22.5 9t-8.5 23
t9.5 23t24.5 9q9 0 15 -2l-3 -9q-2 2 -12 2q-11 0 -16.5 -6.5t-5.5 -16.5q0 -11 6 -17t15 -6q5 0 8.5 1t5.5 2zM266 27q0 -12 6.5 -17t15.5 -5q11 0 17 3l2 -8q-3 -2 -8 -3t-13 -1q-14 0 -22 9t-8 23t7.5 23.5t21.5 9.5q15 0 20.5 -10.5t5.5 -18.5q0 -2 -0.5 -3t-0.5 -2h-44
zM299 35q1 5 -2 11t-13 6q-8 0 -12.5 -5.5t-5.5 -11.5h33zM325 40q0 5 -0.5 10t-0.5 9h10l1 -12q3 14 17 14q1 0 1.5 -0.5t1.5 -0.5v-10q-1 0 -1.5 0.5t-2.5 0.5q-13 0 -15 -16q-1 0 -1 -5v-32h-10v42zM383 74v-15h16v-8h-16v-33q0 -13 8 -13q5 0 7 1v-8q-4 -2 -10 -2
q-7 0 -12 5q-4 5 -4 16v34h-10v8h10v12zM467 29q0 -17 -10 -25t-21 -8q-13 0 -21.5 8.5t-8.5 23.5q0 16 9 24.5t22 8.5q14 0 22 -9t8 -23zM418 28q0 -23 19 -23t19 23q0 8 -4.5 16t-14.5 8t-14.5 -7.5t-4.5 -16.5zM481 43q0 11 -1 16h11v-10h1q2 5 7 8.5t13 3.5q6 0 14 -5
t8 -21v-37h-11v35q0 8 -3 13t-11 5q-12 0 -16 -11v-5v-37h-12v45zM605 6q0 -21 -9 -28q-5 -4 -11 -5.5t-11 -1.5q-11 0 -21 4l2 9q4 -2 8.5 -3t10.5 -1q8 0 14 4.5t6 16.5v7h-1q-5 -10 -19 -10q-11 0 -19 8.5t-8 21.5q0 16 9 24.5t20 8.5q8 0 12.5 -3.5t6.5 -7.5v9h11
q-1 -4 -1 -16v-37zM593 35v5q-3 12 -16 12q-8 0 -13 -6.5t-5 -17.5q0 -9 4.5 -15.5t13.5 -6.5q13 0 15 12q1 2 1 6v11zM626 -4q-7 0 -7 8q0 9 8 9q7 0 7 -9q0 -8 -8 -8zM649 -2v53h-9v8h9v3q0 15 7 22q4 3 8 4t7 1q8 0 10 -1l-1 -9q-4 2 -8 2q-7 0 -9 -5.5t-2 -12.5v-4h15
v-8h-15v-53h-12zM740 29q0 -17 -10 -25t-21 -8q-13 0 -21.5 8.5t-8.5 23.5q0 16 9 24.5t22 8.5q14 0 22 -9t8 -23zM691 28q0 -11 5 -17t13 -6q20 0 20 23q0 8 -4.5 16t-14.5 8t-14.5 -7.5t-4.5 -16.5zM754 43q0 11 -1 16h11v-10h1q2 5 7 8.5t13 3.5q6 0 13.5 -5t7.5 -21v-37
h-10v35q0 8 -3 13t-11 5q-12 0 -16 -11v-5v-37h-12v45zM838 74v-15h16v-8h-16v-33q0 -13 8 -13q5 0 7 1v-8q-4 -2 -10 -2q-7 0 -12 5q-4 5 -4 16v34h-9v8h9v12zM866 9q6 -4 15 -4q11 0 11 8t-11 12q-16 6 -16 18q0 7 5.5 12.5t15.5 5.5q7 0 15 -4l-3 -8q-3 3 -12 3
q-11 0 -11 -8q0 -7 12 -10q8 -4 12 -8t4 -12t-6 -13t-17 -5q-9 0 -17 4z" />
    </font>
</defs>
</svg>
